<svg id="Layer_1" data-name="Layer 1" xmlns="http://www.w3.org/2000/svg" viewBox="0 0 2000 2000"><defs><style>.cls-1{fill:#1b1464;}.cls-2{fill:#ff883b;}.cls-3{fill:#fff16b;}.cls-4{fill:#5ee19e;}.cls-5{fill:gray;}</style></defs><path class="cls-1" d="M792.28,842.44a52.13,52.13,0,0,0-49.5,35.65s-.09.09-.09.13c-.22,1-.39,1.93-.66,2.89a30.13,30.13,0,0,1-.87,3.29,69.2,69.2,0,0,1-7.41,17.32,2,2,0,0,1-.31.48,73.15,73.15,0,0,1-14.86,17.71c-1.27,1.14-2.54,2.19-3.9,3.25-1.1.83-2.24,1.62-3.38,2.41a.85.85,0,0,1-.22.13c-.74.48-1.49,1-2.23,1.4a25.37,25.37,0,0,1-2.28,1.36,68.13,68.13,0,0,1-8.64,4.21A73.89,73.89,0,0,1,607,902.2a2,2,0,0,1-.31-.48,68.81,68.81,0,0,1-7.4-17.32,28.08,28.08,0,0,1-.88-3.29c-.26-1-.44-1.93-.66-2.89,0,0-.09-.09-.09-.13a52.14,52.14,0,1,0-49.49,68.61,51,51,0,0,0,9.11-.79.14.14,0,0,0,.09,0l.81-.16a43.2,43.2,0,0,0,4.21-1.06c.59-.17,1.19-.34,1.78-.49a9.35,9.35,0,0,1,1.14-.35,73.17,73.17,0,0,1,18.45-2.33,72.24,72.24,0,0,1,10.7.79A73.87,73.87,0,0,1,652.73,989c.35,1,.7,2,1,3s.75,2.33,1.05,3.51a73.22,73.22,0,0,1-2.76,46,74.65,74.65,0,0,1-4.65,9.64A73,73,0,0,1,636.16,1066c-.27.31-.53.53-.84.83-.87.88-1.75,1.71-2.71,2.54-.75.79-1.45,1.63-2.2,2.46l-.08.09a49.56,49.56,0,0,0-5.22,7.49,52.12,52.12,0,1,0,84.17-8.54s0-.14-.08-.18c-.75-.66-1.49-1.27-2.2-2a31.39,31.39,0,0,1-2.41-2.36,69.51,69.51,0,0,1-11.26-15.08,1.57,1.57,0,0,1-.27-.53A73.66,73.66,0,0,1,722.39,950v-.09A73.29,73.29,0,0,1,746,942.27a72.24,72.24,0,0,1,10.7-.79,73.11,73.11,0,0,1,18.45,2.33,9.35,9.35,0,0,1,1.14.35c.6.15,1.19.32,1.78.49,1.39.41,2.79.79,4.21,1.06l.81.16a.14.14,0,0,0,.09,0,51.08,51.08,0,0,0,9.12.79,52.13,52.13,0,0,0,0-104.26ZM545.94,917.21a22.67,22.67,0,1,1,24.91-24.83A22.75,22.75,0,0,1,545.94,917.21Zm143.92,199.38a22.66,22.66,0,1,1-8.28-31A22.62,22.62,0,0,1,689.86,1116.59ZM794.5,917.21A22.67,22.67,0,1,1,814.69,897,22.68,22.68,0,0,1,794.5,917.21Z"/><path class="cls-2" d="M689.86,1116.59a22.66,22.66,0,1,1-8.28-31A22.62,22.62,0,0,1,689.86,1116.59Z"/><path class="cls-3" d="M814.69,897a22.67,22.67,0,1,1-24.82-24.91A22.74,22.74,0,0,1,814.69,897Z"/><path class="cls-4" d="M570.85,892.38a22.67,22.67,0,1,1-20.28-20.28A22.68,22.68,0,0,1,570.85,892.38Z"/><path class="cls-5" d="M973.58,926.44,917.36,869.8h17.88l45,45.53,45-45.53h17.89l-56.24,56.64V967.9H973.58Z"/><path class="cls-5" d="M1117.83,961h-.26c-3.12,6.23-6.78,8-24.66,8H1065c-17.61,0-22.22-7.72-22.22-20.73v-4.6c0-15.72,11.11-17.62,31.44-17.62h18.7c15.17,0,20.59,1.63,24.66,8.27h.26v-13c0-12.46-7.85-14.09-25.74-14.09H1075c-14.63,0-17.47,3.52-17.47,9.22v2.43h-11.66v-3.38c0-12.6,8-17.75,28.86-17.75h18.42c21.69,0,36.32,3.25,36.32,23.84V967.9h-11.66Zm0-14.77c0-9.48-8.4-10.7-26.28-10.7h-17.89c-15,0-19.23,2.17-19.23,10.84v2.16c0,7.72,2.71,11,18.7,11h15.44c21.14,0,29.26-1.5,29.26-10.17Z"/><path class="cls-5" d="M1221.44,961h-.27c-3.12,6.23-6.78,8-24.66,8H1168.6c-17.62,0-22.22-7.72-22.22-20.73v-4.6c0-15.72,11.11-17.62,31.43-17.62h18.7c15.17,0,20.59,1.63,24.66,8.27h.27v-13c0-12.46-7.86-14.09-25.75-14.09h-17.07c-14.63,0-17.47,3.52-17.47,9.22v2.43h-11.66v-3.38c0-12.6,8-17.75,28.86-17.75h18.43c21.68,0,36.31,3.25,36.31,23.84V967.9h-11.65Zm0-14.77c0-9.48-8.4-10.7-26.28-10.7h-17.89c-15,0-19.24,2.17-19.24,10.84v2.16c0,7.72,2.7,11,18.7,11h15.44c21.14,0,29.27-1.5,29.27-10.17Z"/><path class="cls-5" d="M1253.65,898.8h10.84v8.13h.27c4.88-7.18,11.51-9.21,23.16-9.21h18.84c10.56,0,18.7,4.2,22.35,12.73,4.34-9.35,13.69-12.73,25.61-12.73h14.09c18.7,0,30.22,8.12,30.22,23.84V967.9h-11.66v-45c0-8-3.52-15.71-22.08-15.71H1357c-21,0-23.85,8.67-23.85,19.78V967.9h-11.66V926c0-13.41-4.2-18.83-22.75-18.83h-11.66c-14.9,0-21.81,6.23-21.81,17.34V967.9h-11.65Z"/><path class="cls-5" d="M1492.31,961H1492c-3.11,6.23-6.78,8-24.66,8h-27.91c-17.62,0-22.22-7.72-22.22-20.73v-4.6c0-15.72,11.11-17.62,31.43-17.62h18.7c15.17,0,20.59,1.63,24.66,8.27h.27v-13c0-12.46-7.86-14.09-25.75-14.09h-17.07c-14.63,0-17.47,3.52-17.47,9.22v2.43h-11.66v-3.38c0-12.6,8-17.75,28.86-17.75h18.43c21.68,0,36.31,3.25,36.31,23.84V967.9h-11.65Zm0-14.77c0-9.48-8.4-10.7-26.28-10.7h-17.89c-15,0-19.24,2.17-19.24,10.84v2.16c0,7.72,2.71,11,18.7,11H1463c21.14,0,29.27-1.5,29.27-10.17Z"/><path class="cls-5" d="M966.81,1043.16H917.22v-10.83h112.46v10.83H980.09v87.26H966.81Z"/><path class="cls-5" d="M1024.76,1088.15c0-25.06,17.34-27.91,33.87-27.91h18.7c20.86,0,35.91,5.28,35.91,29.94v7.72h-76.83v4.34c0,15.72,7.59,19.79,27.91,19.79h16c14.63,0,20.59-1.91,21.27-12.47h11.66v1.36c0,15.84-13.15,20.59-34.83,20.59h-21.14c-15.17,0-32.51-2.85-32.51-28.32Zm76.82-4.33c0-7-5.28-14.1-24.25-14.1h-17.07c-18.43,0-22.77,3-23.85,18.7h65.17Z"/><path class="cls-5" d="M1128.37,1088.15c0-25.06,17.61-27.91,34.69-27.91h19.51c21.67,0,30.21,8.81,30.21,23.44v1.9h-10.84V1084c0-11.51-7.59-14.23-19.24-14.23h-21.4c-11,0-21.28,1.63-21.28,18.83v14.5c0,15.45,9.49,19,23.57,19h19.65c10.84,0,19.92-3.26,19.92-14.5v-2.31H1214v2c0,17.49-8.67,24.26-30.35,24.26h-26.29c-10.43,0-29-2.85-29-27.91Z"/><path class="cls-5" d="M1231.84,1032.33h11.65v40.92h.27c4.34-10.71,13.42-13,27.91-13h16.67c21.81,0,28.72,11,28.72,23.44v46.74h-11.65v-43.9c0-10.16-2.84-16.8-25.47-16.8h-3c-27.24,0-33.47,5.15-33.47,21.41v39.29h-11.65Z"/></svg>