<?xml version="1.0" encoding="utf-8" ?>
<svg xmlns="http://www.w3.org/2000/svg" xmlns:xlink="http://www.w3.org/1999/xlink" width="1024" height="1024" viewBox="0 0 1088 687.962">
	<path fill="white" d="M0 0L1024 0L1024 1024L0 1024L0 0Z"/>
	<path d="M491.528 183.163C507.474 182.035 524.34 180.962 540.24 183.025C557.278 183.238 578.678 187.511 595.469 191.458C618.324 196.83 640.425 203.408 662.157 212.446C705.755 230.576 752.64 261.362 785.602 295.082C798.141 307.91 810.667 322.201 820.797 337.017C847.277 375.746 863.72 423.266 863.055 470.361C861.522 578.893 791.144 701.309 714.894 775.332C707.763 782.255 700.481 789.03 693.274 795.874C697.721 804.12 702.131 812.628 707.627 820.24C716.983 813.457 725.697 805.168 734.271 797.423Q746.251 786.613 757.772 775.315Q769.292 764.017 780.334 752.251Q791.375 740.484 801.919 728.269Q812.462 716.054 822.489 703.412Q832.838 690.234 842.863 676.807C847.706 670.189 855.759 657.172 861.444 652.314C858.285 642.334 852.748 644.521 847.309 639.306C847.001 636.717 854.564 634.866 856.939 633.317C861.14 630.577 859.969 627.183 862.276 623.51C862.841 622.611 863.295 622.218 864.352 622.059C866.232 623.849 867.19 627.424 868.653 629.666C871.523 634.063 875.3 635.338 880.152 636.39C880.606 635.861 880.983 635.691 880.945 634.934C880.742 630.844 867.89 611.92 864.962 607.204C878.355 600.995 891.266 593.974 904.434 587.327C916.272 581.352 928.29 575.791 940.103 569.746C951.519 563.904 962.906 557.539 974.593 552.294C977.79 584.044 979.233 616.021 980.698 647.889C981.234 659.564 982.124 671.209 982.588 682.894C972.991 677.346 963.01 672.477 953.47 666.863C945.196 683.011 934.091 698.237 923.514 712.949Q911.733 729.565 899.164 745.593Q886.595 761.622 873.269 777.026Q859.942 792.43 845.888 807.173Q831.834 821.917 817.086 835.966C809.467 843.103 801.822 850.267 793.909 857.076C787.891 862.256 767.328 877.934 764.012 883.136C794.066 908.847 846.991 938.424 886.898 941.366C903.896 942.619 922.654 942.02 939.77 941.915C946.079 941.876 952.549 941.484 958.836 941.866C960.486 941.966 962.492 942.061 963.663 943.368L963.53 944.273C963.353 944.369 963.186 944.486 962.999 944.562C959.925 945.818 923.706 944.932 918.044 944.94L761.169 944.905L94.0743 944.868C87.4103 944.843 59.0218 945.554 55.7527 943.942L55.4848 943.004C56.057 941.916 56.1322 941.74 57.4851 941.583C62.2989 941.024 67.9238 941.647 72.8053 941.696Q89.7612 941.897 106.718 941.792C113.217 941.763 119.976 942.062 126.421 941.191C134.932 940.042 143.506 937.447 151.696 934.896C189.035 923.263 222.651 903.747 253.443 879.839Q249.963 877.537 246.522 875.177Q243.082 872.817 239.682 870.4Q236.281 867.982 232.923 865.507Q229.564 863.032 226.247 860.501Q222.931 857.969 219.657 855.382Q216.384 852.795 213.155 850.153Q209.926 847.511 206.742 844.815Q203.558 842.119 200.42 839.369Q197.282 836.619 194.191 833.817Q191.1 831.015 188.057 828.161Q185.013 825.307 182.019 822.401Q179.024 819.496 176.079 816.541Q173.134 813.586 170.24 810.581Q167.345 807.576 164.501 804.523Q161.658 801.47 158.867 798.369Q156.075 795.268 153.336 792.12Q150.598 788.973 147.913 785.78Q145.228 782.586 142.597 779.348Q139.966 776.11 137.391 772.827Q134.815 769.545 132.295 766.22Q129.775 762.894 127.312 759.527Q124.849 756.159 122.443 752.751Q120.037 749.342 117.689 745.893Q115.341 742.444 113.052 738.956Q110.762 735.468 108.532 731.942Q106.302 728.416 104.132 724.853Q101.962 721.289 99.8524 717.69Q97.7427 714.09 95.6942 710.455Q93.6457 706.821 91.659 703.152Q89.6722 699.483 87.7477 695.781Q85.8232 692.079 83.9616 688.346Q82.1 684.612 80.3017 680.847C71.4098 661.939 64.9096 641.92 57.3914 622.45C48.6582 624.12 39.7144 625.534 31.1584 627.948Q52.4072 570.331 71.03 511.812L134.842 551.755C146.885 559.252 159.341 566.354 171.121 574.237C162.309 578.862 153.218 582.942 144.393 587.549C152.776 606.555 158.847 626.416 167.908 645.179C176.4 662.764 185.804 680.691 196.323 697.142C218.49 731.81 247.92 764.258 278.59 791.521C288.54 800.365 299.089 810.394 310.455 817.366Q319.863 803.948 327.126 789.259C304.462 767.667 282.915 745.398 263.614 720.682C213.742 656.82 176.016 573.056 170.577 491.488C165.853 420.64 188.524 361.866 234.997 308.807C245.365 296.969 256.863 286.561 268.861 276.417Q273.792 272.224 278.858 268.193Q283.923 264.162 289.116 260.298Q294.31 256.434 299.627 252.741Q304.943 249.048 310.377 245.53Q315.811 242.012 321.357 238.673Q326.902 235.333 332.553 232.176Q338.205 229.019 343.955 226.047Q349.706 223.076 355.551 220.293Q361.395 217.51 367.327 214.918Q373.259 212.327 379.273 209.93Q385.286 207.533 391.374 205.332Q397.462 203.132 403.618 201.131Q409.774 199.13 415.992 197.331Q422.21 195.531 428.484 193.934Q434.757 192.338 441.079 190.947Q447.401 189.555 453.765 188.37C466.295 186.041 478.799 184.01 491.528 183.163Z"/>
	<path fill="white" d="M491.528 183.163C507.474 182.035 524.34 180.962 540.24 183.025C557.278 183.238 578.678 187.511 595.469 191.458C618.324 196.83 640.425 203.408 662.157 212.446C705.755 230.576 752.64 261.362 785.602 295.082C798.141 307.91 810.667 322.201 820.797 337.017C847.277 375.746 863.72 423.266 863.055 470.361C861.522 578.893 791.144 701.309 714.894 775.332C707.763 782.255 700.481 789.03 693.274 795.874C688.857 790.404 683.69 775.264 681.185 768.241C678.363 762.735 676.343 756.804 674.346 750.959C670.874 743.273 669.452 733.903 667.669 725.672C666.09 719.672 665.102 713.515 663.629 707.484C660.963 697.504 662.308 674.207 662.477 662.692C664.5 660.456 666.183 658.278 667.437 655.52C665.62 647.809 667.238 634.11 667.451 625.984C668.126 600.289 668.932 572.226 662.098 547.26L661.907 546.187C653.876 519.003 633.853 494.69 611.319 478.02C605.686 473.853 599.528 470.211 593.572 466.519C593.619 464.264 593.798 463.026 592.167 461.265L591.235 461.373C590.125 462.689 590.008 463.74 589.772 465.375C585.749 464.531 578.696 460.057 574.284 458.403C563.116 454.216 551.555 451.572 539.95 448.935Q539.996 443.657 539.872 438.381L540.093 420.983L540.81 385.96C540.924 379.212 540.597 372.165 541.361 365.473C549.087 365.559 565.154 367.212 571.619 363.748C574.024 362.46 575.945 360.41 576.71 357.755C577.957 353.423 576.213 348.797 574.234 344.981C569.64 341.103 535.52 291.1 531.359 283.373C527.562 278.736 525.167 272.958 520.382 269.115C518.61 267.691 516.378 266.439 514.023 266.825C507.854 267.835 502.442 278.057 499.176 282.785C493.981 292.516 486.911 301.637 480.598 310.668C472.689 321.98 465.023 333.427 456.91 344.598C454.363 348.075 451.525 351.813 452.135 356.415C452.455 358.827 453.925 360.779 455.834 362.213C462.953 367.562 479.446 365.08 488.408 365.437L488.469 374.687C489.497 389.923 490.037 405.588 489.556 420.857L490.085 449.279C471.522 451.185 453.409 457.394 436.632 465.442C436.11 463.93 436.029 463.337 434.803 462.263C433.771 462.63 433.587 462.693 433.11 463.673C432.592 464.738 432.697 466.186 432.663 467.352C432.661 467.441 432.656 467.53 432.652 467.619C425.987 470.61 420.284 475.255 414.465 479.6C395.605 493.679 377.592 509.091 368.995 531.729C366.544 538.181 365.772 544.76 363.761 551.24C358.96 564.575 360.896 584.01 360.952 598.213L360.902 635.316C361.233 643.641 360.642 651.924 360.537 660.244C360.39 671.86 361.668 685.194 359.058 696.497C358.048 701.795 357.215 707.261 355.809 712.461C353.029 722.709 350.357 733.057 347.022 743.139C345.319 748.064 343.736 753.131 341.796 757.966C338.551 767.612 332.48 780.446 327.126 789.259C304.462 767.667 282.915 745.398 263.614 720.682C213.742 656.82 176.016 573.056 170.577 491.488C165.853 420.64 188.524 361.866 234.997 308.807C245.365 296.969 256.863 286.561 268.861 276.417Q273.792 272.224 278.858 268.193Q283.923 264.162 289.116 260.298Q294.31 256.434 299.627 252.741Q304.943 249.048 310.377 245.53Q315.811 242.012 321.357 238.673Q326.902 235.333 332.553 232.176Q338.205 229.019 343.955 226.047Q349.706 223.076 355.551 220.293Q361.395 217.51 367.327 214.918Q373.259 212.327 379.273 209.93Q385.286 207.533 391.374 205.332Q397.462 203.132 403.618 201.131Q409.774 199.13 415.992 197.331Q422.21 195.531 428.484 193.934Q434.757 192.338 441.079 190.947Q447.401 189.555 453.765 188.37C466.295 186.041 478.799 184.01 491.528 183.163Z"/>
	<defs>
		<linearGradient id="gradient_0" gradientUnits="userSpaceOnUse" x1="778.78705" y1="534.15076" x2="511.15805" y2="507.31528">
			<stop offset="0" stop-color="#262B58"/>
			<stop offset="1" stop-color="#4245A0"/>
		</linearGradient>
	</defs>
	<path fill="url(#gradient_0)" d="M531.359 283.373C552.313 285.759 572.465 289.247 592.741 295.224C647.482 311.36 699.932 344.622 735.523 389.517C771.348 434.708 785.535 486.467 778.891 543.558C771.618 606.055 740.587 663.964 704.217 714.281C695.111 726.879 685.754 740.336 674.346 750.959C670.874 743.273 669.452 733.903 667.669 725.672C666.09 719.672 665.102 713.515 663.629 707.484C660.963 697.504 662.308 674.207 662.477 662.692C664.5 660.456 666.183 658.278 667.437 655.52C665.62 647.809 667.238 634.11 667.451 625.984C668.126 600.289 668.932 572.226 662.098 547.26L661.907 546.187C653.876 519.003 633.853 494.69 611.319 478.02C605.686 473.853 599.528 470.211 593.572 466.519C593.619 464.264 593.798 463.026 592.167 461.265L591.235 461.373C590.125 462.689 590.008 463.74 589.772 465.375C585.749 464.531 578.696 460.057 574.284 458.403C563.116 454.216 551.555 451.572 539.95 448.935Q539.996 443.657 539.872 438.381L540.093 420.983L540.81 385.96C540.924 379.212 540.597 372.165 541.361 365.473C549.087 365.559 565.154 367.212 571.619 363.748C574.024 362.46 575.945 360.41 576.71 357.755C577.957 353.423 576.213 348.797 574.234 344.981C569.64 341.103 535.52 291.1 531.359 283.373Z"/>
	<defs>
		<linearGradient id="gradient_1" gradientUnits="userSpaceOnUse" x1="716.68457" y1="556.35541" x2="520.00916" y2="527.98535">
			<stop offset="0" stop-color="#292E61"/>
			<stop offset="1" stop-color="#4447A4"/>
		</linearGradient>
	</defs>
	<path fill="url(#gradient_1)" d="M541.361 365.473Q541.516 370.2 541.482 374.929C552.25 376.298 563.114 377.605 573.647 380.318C616.37 391.319 657.609 418.314 684.637 453.167Q685.827 454.679 686.979 456.221Q688.13 457.763 689.243 459.333Q690.356 460.903 691.428 462.5Q692.501 464.098 693.534 465.722Q694.566 467.346 695.557 468.996Q696.548 470.645 697.497 472.319Q698.447 473.993 699.354 475.69Q700.261 477.387 701.125 479.107Q701.989 480.826 702.809 482.567Q703.63 484.308 704.406 486.068Q705.183 487.829 705.915 489.609Q706.647 491.389 707.334 493.186Q708.021 494.984 708.663 496.798Q709.304 498.612 709.9 500.442Q710.496 502.272 711.046 504.116Q711.595 505.96 712.099 507.818Q712.602 509.675 713.058 511.545Q713.514 513.414 713.923 515.294Q714.333 517.175 714.694 519.065Q715.056 520.955 715.37 522.854Q715.684 524.752 715.951 526.658Q716.217 528.564 716.435 530.476Q716.654 532.388 716.824 534.304Q716.994 536.221 717.116 538.142Q717.238 540.062 717.312 541.985Q717.385 543.908 717.411 545.832Q717.436 547.757 717.413 549.681Q717.39 551.605 717.318 553.528Q717.247 555.451 717.127 557.372Q717.007 559.292 716.839 561.209Q716.671 563.126 716.455 565.039Q716.239 566.951 715.975 568.857C710.103 614.099 690.294 670.15 663.629 707.484C660.963 697.504 662.308 674.207 662.477 662.692C664.5 660.456 666.183 658.278 667.437 655.52C665.62 647.809 667.238 634.11 667.451 625.984C668.126 600.289 668.932 572.226 662.098 547.26L661.907 546.187C653.876 519.003 633.853 494.69 611.319 478.02C605.686 473.853 599.528 470.211 593.572 466.519C593.619 464.264 593.798 463.026 592.167 461.265L591.235 461.373C590.125 462.689 590.008 463.74 589.772 465.375C585.749 464.531 578.696 460.057 574.284 458.403C563.116 454.216 551.555 451.572 539.95 448.935Q539.996 443.657 539.872 438.381L540.093 420.983L540.81 385.96C540.924 379.212 540.597 372.165 541.361 365.473Z"/>
	<path fill="white" d="M540.093 420.983C546.462 420.995 553.639 423.007 559.797 424.654C589.829 432.687 619.52 448.438 641.563 470.589C668.566 497.724 687.565 533.235 687.416 572.249C687.326 595.921 681.396 620.786 673.042 642.824C671.482 646.939 669.863 651.838 667.437 655.52C665.62 647.809 667.238 634.11 667.451 625.984C668.126 600.289 668.932 572.226 662.098 547.26L661.907 546.187C653.876 519.003 633.853 494.69 611.319 478.02C605.686 473.853 599.528 470.211 593.572 466.519C593.619 464.264 593.798 463.026 592.167 461.265L591.235 461.373C590.125 462.689 590.008 463.74 589.772 465.375C585.749 464.531 578.696 460.057 574.284 458.403C563.116 454.216 551.555 451.572 539.95 448.935Q539.996 443.657 539.872 438.381L540.093 420.983Z"/>
	<path fill="white" d="M574.234 344.981C587.933 348.796 601.422 353.068 614.472 358.756C658.025 377.742 698.391 410.1 721.87 451.81C748.703 499.479 745.457 544.16 731.266 594.744Q729.208 602.023 726.887 609.222Q724.566 616.421 721.984 623.531Q719.403 630.641 716.564 637.652Q713.725 644.663 710.633 651.567Q707.54 658.47 704.199 665.256Q700.857 672.042 697.271 678.702Q693.684 685.361 689.857 691.886Q686.031 698.411 681.969 704.792C677.521 711.808 673.03 719.308 667.669 725.672C666.09 719.672 665.102 713.515 663.629 707.484C690.294 670.15 710.103 614.099 715.975 568.857Q716.239 566.951 716.455 565.039Q716.671 563.126 716.839 561.209Q717.007 559.292 717.127 557.372Q717.247 555.451 717.318 553.528Q717.39 551.605 717.413 549.681Q717.436 547.757 717.411 545.832Q717.385 543.908 717.312 541.985Q717.238 540.062 717.116 538.142Q716.994 536.221 716.824 534.304Q716.654 532.388 716.435 530.476Q716.217 528.564 715.951 526.658Q715.684 524.752 715.37 522.853Q715.056 520.955 714.694 519.065Q714.333 517.175 713.923 515.294Q713.514 513.414 713.058 511.544Q712.602 509.675 712.099 507.818Q711.595 505.96 711.046 504.116Q710.496 502.272 709.9 500.442Q709.304 498.612 708.663 496.798Q708.021 494.984 707.334 493.186Q706.647 491.389 705.915 489.609Q705.183 487.829 704.406 486.069Q703.63 484.308 702.809 482.567Q701.989 480.826 701.125 479.107Q700.261 477.387 699.354 475.69Q698.447 473.993 697.497 472.319Q696.548 470.645 695.557 468.996Q694.566 467.346 693.534 465.722Q692.501 464.098 691.428 462.5Q690.356 460.903 689.243 459.333Q688.13 457.763 686.979 456.221Q685.827 454.679 684.637 453.167C657.609 418.314 616.37 391.319 573.647 380.318C563.114 377.605 552.25 376.298 541.482 374.929Q541.516 370.2 541.361 365.473C549.087 365.559 565.154 367.212 571.619 363.748C574.024 362.46 575.945 360.41 576.71 357.755C577.957 353.423 576.213 348.797 574.234 344.981Z"/>
	<defs>
		<linearGradient id="gradient_2" gradientUnits="userSpaceOnUse" x1="442.40277" y1="517.35614" x2="257.37839" y2="474.37122">
			<stop offset="0" stop-color="#4C4EAD"/>
			<stop offset="1" stop-color="#6867DB"/>
		</linearGradient>
	</defs>
	<path fill="url(#gradient_2)" d="M347.022 743.139C302.461 690.903 260.416 614.455 252.1 545.612C247.273 505.651 256.119 462.008 274.143 426.229Q279.951 414.968 286.843 404.338Q293.736 393.707 301.647 383.81C335.106 341.12 385.173 309.595 437.05 294.551C457.517 288.615 478.064 285.36 499.176 282.785C493.981 292.516 486.911 301.637 480.598 310.668C472.689 321.98 465.023 333.427 456.91 344.598C454.363 348.075 451.525 351.813 452.135 356.415C452.455 358.827 453.925 360.779 455.834 362.213C462.953 367.562 479.446 365.08 488.408 365.437L488.469 374.687C489.497 389.923 490.037 405.588 489.556 420.857L490.085 449.279C471.522 451.185 453.409 457.394 436.632 465.442C436.11 463.93 436.029 463.337 434.803 462.263C433.771 462.63 433.587 462.693 433.11 463.673C432.592 464.738 432.697 466.186 432.663 467.352C432.661 467.441 432.656 467.53 432.652 467.619C425.987 470.61 420.284 475.255 414.465 479.6C395.605 493.679 377.592 509.091 368.995 531.729C366.544 538.181 365.772 544.76 363.761 551.24C358.96 564.575 360.896 584.01 360.952 598.213L360.902 635.316C361.233 643.641 360.642 651.924 360.537 660.244C360.39 671.86 361.668 685.194 359.058 696.497C358.048 701.795 357.215 707.261 355.809 712.461C353.029 722.709 350.357 733.057 347.022 743.139Z"/>
	<defs>
		<linearGradient id="gradient_3" gradientUnits="userSpaceOnUse" x1="455.49164" y1="543.23444" x2="318.8577" y2="506.78488">
			<stop offset="0" stop-color="#4A4EAC"/>
			<stop offset="1" stop-color="#6162CF"/>
		</linearGradient>
	</defs>
	<path fill="url(#gradient_3)" d="M359.058 696.497C353.7 687.699 349.39 677.827 344.924 668.549C330.84 639.283 318.6 610.875 313.792 578.442C308.725 544.261 313.607 508.402 329.938 477.689C334.525 469.062 340.241 460.853 346.07 453.021C369.7 421.268 406.645 396.996 444.018 384.629C458.586 379.808 473.314 376.886 488.469 374.687C489.497 389.923 490.037 405.588 489.556 420.857L490.085 449.279C471.522 451.185 453.409 457.394 436.632 465.442C436.11 463.93 436.029 463.337 434.803 462.263C433.771 462.63 433.587 462.693 433.11 463.673C432.592 464.738 432.697 466.186 432.663 467.352C432.661 467.441 432.656 467.53 432.652 467.619C425.987 470.61 420.284 475.255 414.465 479.6C395.605 493.679 377.592 509.091 368.995 531.729C366.544 538.181 365.772 544.76 363.761 551.24C358.96 564.575 360.896 584.01 360.952 598.213L360.902 635.316C361.233 643.641 360.642 651.924 360.537 660.244C360.39 671.86 361.668 685.194 359.058 696.497Z"/>
	<path fill="white" d="M360.338 652.442C350.96 628.629 342.853 609.606 340.052 583.78C336.26 548.83 346.652 516.472 368.56 489.341C397.722 453.227 442.999 425.917 489.556 420.857L490.085 449.279C471.522 451.185 453.409 457.394 436.632 465.442C436.11 463.93 436.029 463.337 434.803 462.263C433.771 462.63 433.587 462.693 433.11 463.673C432.592 464.738 432.697 466.186 432.663 467.352C432.661 467.441 432.656 467.53 432.652 467.619C425.987 470.61 420.284 475.255 414.465 479.6C395.605 493.679 377.592 509.091 368.995 531.729C366.544 538.181 365.772 544.76 363.761 551.24C358.96 564.575 360.896 584.01 360.952 598.213L360.902 635.316C360.297 640.877 360.63 646.82 360.338 652.442Z"/>
	<path fill="white" d="M355.809 712.461L355.193 712.272C351.04 708.368 347.962 701.538 345.071 696.638C333.755 677.466 323.066 658.225 313.703 638.006C289.576 585.907 278.203 530.265 298.7 474.9C318.32 421.905 366.153 381.246 416.498 358.363C422.529 355.622 452.661 343.001 456.91 344.598C454.363 348.075 451.525 351.813 452.135 356.415C452.455 358.827 453.925 360.779 455.834 362.213C462.953 367.562 479.446 365.08 488.408 365.437L488.469 374.687C473.314 376.886 458.586 379.808 444.018 384.629C406.645 396.996 369.7 421.268 346.07 453.021C340.241 460.853 334.525 469.062 329.938 477.689C313.607 508.402 308.725 544.261 313.792 578.442C318.6 610.875 330.84 639.283 344.924 668.549C349.39 677.827 353.7 687.699 359.058 696.497C358.048 701.795 357.215 707.261 355.809 712.461Z"/>
	<defs>
		<linearGradient id="gradient_4" gradientUnits="userSpaceOnUse" x1="505.72675" y1="489.72809" x2="170.24301" y2="471.22516">
			<stop offset="0" stop-color="#494DAC"/>
			<stop offset="1" stop-color="#706FEA"/>
		</linearGradient>
	</defs>
	<path fill="url(#gradient_4)" d="M491.528 183.163C507.474 182.035 524.34 180.962 540.24 183.025C540.062 183.07 539.886 183.118 539.708 183.161C534.294 184.467 525.316 180.984 520.931 184.87L520.447 185.957C521.233 186.64 521.918 186.936 522.886 187.303C522.99 189.769 519.46 189.78 521.806 192.062C521.713 193.379 521.464 194.416 521.112 195.69C519.468 201.638 524.609 207.281 524.884 213.191C525.054 216.865 523.196 220.381 523.154 224.023C523.122 226.859 524.967 231.146 524.352 233.727C523.868 235.757 521.343 237.495 521.524 239.752C524.083 241.967 547.955 240.457 554.113 243.644C547.551 243.259 540.986 242.376 534.415 241.928Q517.49 240.782 500.528 241.048C494.58 241.715 488.589 241.946 482.631 242.589Q466.223 244.423 450.061 247.798C430.584 251.854 412.514 257.905 394.109 265.344C344.057 285.575 306.458 312.115 272.697 354.351Q270.91 356.607 269.178 358.907Q267.446 361.206 265.771 363.548Q264.096 365.889 262.479 368.27Q260.862 370.651 259.303 373.072Q257.745 375.492 256.246 377.949Q254.747 380.407 253.308 382.9Q251.87 385.394 250.493 387.922Q249.116 390.449 247.801 393.01Q246.486 395.571 245.234 398.163Q243.982 400.755 242.794 403.377Q241.606 405.999 240.483 408.649Q239.359 411.3 238.3 413.977Q237.242 416.653 236.249 419.355Q235.256 422.057 234.33 424.783Q233.403 427.508 232.543 430.255Q231.684 433.003 230.892 435.77Q230.1 438.538 229.375 441.324Q228.651 444.11 227.995 446.912Q227.339 449.715 226.752 452.533Q226.164 455.351 225.646 458.183Q225.128 461.015 224.679 463.858Q224.23 466.701 223.851 469.555Q223.472 472.408 223.162 475.27Q222.853 478.132 222.614 481.001Q222.374 483.87 222.205 486.743Q222.036 489.617 221.937 492.494Q221.838 495.371 221.81 498.249Q221.781 501.127 221.823 504.006Q221.865 506.884 221.977 509.76Q222.089 512.637 222.272 515.51Q222.454 518.383 222.707 521.25Q222.959 524.118 223.282 526.978C229.034 579.069 252.956 633.754 280.332 677.945C286.929 688.594 294.574 698.765 301.838 708.969C313.84 725.827 327 743.477 341.796 757.966C338.551 767.612 332.48 780.446 327.126 789.259C304.462 767.667 282.915 745.398 263.614 720.682C213.742 656.82 176.016 573.056 170.577 491.488C165.853 420.64 188.524 361.866 234.997 308.807C245.365 296.969 256.863 286.561 268.861 276.417Q273.792 272.224 278.858 268.193Q283.923 264.162 289.116 260.298Q294.31 256.434 299.627 252.741Q304.943 249.048 310.377 245.53Q315.811 242.012 321.357 238.673Q326.902 235.333 332.553 232.176Q338.205 229.019 343.955 226.047Q349.706 223.076 355.551 220.293Q361.395 217.51 367.327 214.918Q373.259 212.327 379.273 209.93Q385.286 207.533 391.374 205.332Q397.462 203.132 403.618 201.131Q409.774 199.13 415.992 197.331Q422.21 195.531 428.484 193.934Q434.757 192.338 441.079 190.947Q447.401 189.555 453.765 188.37C466.295 186.041 478.799 184.01 491.528 183.163Z"/>
	<path fill="#4549A3" d="M491.528 183.163C507.474 182.035 524.34 180.962 540.24 183.025C540.062 183.07 539.886 183.118 539.708 183.161C534.294 184.467 525.316 180.984 520.931 184.87L520.447 185.957C521.233 186.64 521.918 186.936 522.886 187.303C522.99 189.769 519.46 189.78 521.806 192.062C521.713 193.379 521.464 194.416 521.112 195.69C519.468 201.638 524.609 207.281 524.884 213.191C525.054 216.865 523.196 220.381 523.154 224.023C523.122 226.859 524.967 231.146 524.352 233.727C523.868 235.757 521.343 237.495 521.524 239.752C524.083 241.967 547.955 240.457 554.113 243.644C547.551 243.259 540.986 242.376 534.415 241.928Q517.49 240.782 500.528 241.048L497.46 240.832L497.079 240.328L496.578 240.378L496.537 240.656L497.779 240.915L497.182 240.333C504.604 240.059 512.136 240.357 519.581 240.21C519.738 236.195 520.49 231.595 520.08 227.628C519.831 225.215 517.17 222.874 517.44 220.462C517.696 218.17 519.918 216.104 520.491 213.851C521.282 210.744 519.454 199.126 519.148 195.146C518.337 194.575 518.763 194.771 517.6 194.513C516.376 194.241 516.567 194.178 515.817 193.258C515.754 191.763 516.172 191.513 517.015 190.319C517.169 188.582 515.14 186.808 514.055 185.425L511.921 185.997L511.576 185.413C512.37 184.649 512.909 184.226 513.402 183.238C507.416 181.725 496.033 185.658 491.528 183.163Z"/>
	<defs>
		<linearGradient id="gradient_5" gradientUnits="userSpaceOnUse" x1="859.039" y1="511.6853" x2="492.37213" y2="476.92419">
			<stop offset="0" stop-color="#242A54"/>
			<stop offset="1" stop-color="#3F4297"/>
		</linearGradient>
	</defs>
	<path fill="url(#gradient_5)" d="M540.24 183.025C557.278 183.238 578.678 187.511 595.469 191.458C618.324 196.83 640.425 203.408 662.157 212.446C705.755 230.576 752.64 261.362 785.602 295.082C798.141 307.91 810.667 322.201 820.797 337.017C847.277 375.746 863.72 423.266 863.055 470.361C861.522 578.893 791.144 701.309 714.894 775.332C707.763 782.255 700.481 789.03 693.274 795.874C688.857 790.404 683.69 775.264 681.185 768.241C695.353 754.831 707.717 739.168 719.451 723.632C759.888 670.089 791.01 610.892 805.128 544.898Q805.719 542.185 806.243 539.459Q806.768 536.733 807.225 533.994Q807.683 531.256 808.074 528.508Q808.465 525.759 808.788 523.002Q809.112 520.244 809.369 517.48Q809.625 514.715 809.814 511.945Q810.003 509.176 810.124 506.402Q810.245 503.628 810.299 500.853Q810.352 498.077 810.338 495.301Q810.324 492.524 810.242 489.749Q810.16 486.974 810.011 484.202Q809.861 481.43 809.644 478.662Q809.427 475.894 809.143 473.132Q808.858 470.371 808.506 467.617Q808.155 464.863 807.736 462.118Q807.317 459.374 806.831 456.64Q806.346 453.907 805.794 451.186Q805.242 448.465 804.623 445.759Q804.005 443.052 803.321 440.361Q802.637 437.671 801.887 434.998Q801.138 432.324 800.323 429.67Q799.508 427.016 798.629 424.383Q797.75 421.749 796.807 419.138Q795.865 416.527 794.858 413.939Q793.852 411.352 792.783 408.79Q791.713 406.228 790.582 403.692Q789.451 401.157 788.258 398.65Q787.065 396.143 785.811 393.666Q784.558 391.189 783.244 388.743Q781.931 386.297 780.558 383.884Q779.185 381.471 777.753 379.092Q776.322 376.713 774.833 374.37C736.509 315.216 671.458 273.274 604.376 253.961Q587.891 249.208 570.981 246.309C565.64 245.381 560.084 244.971 554.808 243.802L554.113 243.644C547.955 240.457 524.083 241.967 521.524 239.752C521.343 237.495 523.868 235.757 524.352 233.727C524.967 231.146 523.122 226.859 523.154 224.023C523.196 220.381 525.054 216.865 524.884 213.191C524.609 207.281 519.468 201.638 521.112 195.69C521.464 194.416 521.713 193.379 521.806 192.062C519.46 189.78 522.99 189.769 522.886 187.303C521.918 186.936 521.233 186.64 520.447 185.957L520.931 184.87C525.316 180.984 534.294 184.467 539.708 183.161C539.886 183.118 540.062 183.07 540.24 183.025Z"/>
	<path fill="#FFF46B" d="M71.03 511.812L134.842 551.755C146.885 559.252 159.341 566.354 171.121 574.237C162.309 578.862 153.218 582.942 144.393 587.549C152.776 606.555 158.847 626.416 167.908 645.179C176.4 662.764 185.804 680.691 196.323 697.142C218.49 731.81 247.92 764.258 278.59 791.521C288.54 800.365 299.089 810.394 310.455 817.366C302.38 828.614 294.159 839.821 284.414 849.705C272.441 841.254 260.258 832.898 248.908 823.615Q243.829 819.491 238.878 815.214Q233.928 810.936 229.112 806.509Q224.295 802.081 219.617 797.508Q214.938 792.934 210.403 788.219Q205.867 783.505 201.478 778.653Q197.089 773.801 192.851 768.817Q188.613 763.832 184.53 758.72Q180.448 753.608 176.524 748.373Q172.6 743.138 168.838 737.785Q165.077 732.432 161.482 726.966Q157.886 721.5 154.461 715.926Q151.035 710.352 147.782 704.676Q144.529 699 141.452 693.226Q138.374 687.453 135.476 681.587Q132.577 675.722 129.86 669.771Q127.143 663.819 124.61 657.787C122.91 653.655 120.877 649.776 119.323 645.556C116.621 638.221 113.309 625.882 109.582 619.655C109.067 618.796 108.732 618.891 107.83 618.573C106.901 620.988 107.617 623.217 108.474 625.517C116.771 647.774 125.331 669.582 136.128 690.791C159.674 737.041 193.557 778.978 232.146 813.503C246.214 826.089 266.241 842.442 282.402 851.58C274.934 861.693 263.047 871.7 253.443 879.839Q249.963 877.537 246.522 875.177Q243.082 872.817 239.682 870.4Q236.281 867.982 232.923 865.507Q229.564 863.032 226.247 860.501Q222.931 857.969 219.657 855.382Q216.384 852.795 213.155 850.153Q209.926 847.511 206.742 844.815Q203.558 842.119 200.42 839.369Q197.282 836.619 194.191 833.817Q191.1 831.015 188.057 828.161Q185.013 825.307 182.019 822.401Q179.024 819.496 176.079 816.541Q173.134 813.586 170.24 810.581Q167.345 807.576 164.501 804.523Q161.658 801.47 158.867 798.369Q156.075 795.268 153.336 792.12Q150.598 788.973 147.913 785.78Q145.228 782.586 142.597 779.348Q139.966 776.11 137.391 772.827Q134.815 769.545 132.295 766.22Q129.775 762.894 127.312 759.527Q124.849 756.159 122.443 752.751Q120.037 749.342 117.689 745.893Q115.341 742.444 113.052 738.956Q110.762 735.468 108.532 731.942Q106.302 728.416 104.132 724.853Q101.962 721.289 99.8524 717.69Q97.7427 714.09 95.6942 710.455Q93.6457 706.821 91.659 703.152Q89.6722 699.483 87.7477 695.781Q85.8232 692.079 83.9616 688.346Q82.1 684.612 80.3017 680.847C71.4098 661.939 64.9096 641.92 57.3914 622.45C48.6582 624.12 39.7144 625.534 31.1584 627.948Q52.4072 570.331 71.03 511.812Z"/>
	<path fill="#5EE4A1" d="M432.652 467.619L432.956 941.516L327.814 941.446C330.553 930.153 334.02 919.056 336.896 907.799C341.529 889.669 345.525 871.096 348.919 852.694Q354.253 823.875 357.685 794.768Q361.116 765.661 362.631 736.392C363.751 715.401 363.85 694.285 364.029 673.267Q364.404 636.754 364.262 600.239C364.225 594.428 364.532 552.551 363.761 551.24C365.772 544.76 366.544 538.181 368.995 531.729C377.592 509.091 395.605 493.679 414.465 479.6C420.284 475.255 425.987 470.61 432.652 467.619Z"/>
	<path fill="#FF8B3B" d="M593.572 466.519C599.528 470.211 605.686 473.853 611.319 478.02C633.853 494.69 653.876 519.003 661.907 546.187C660.704 545.813 660.003 545.552 658.712 545.663C657.538 553.397 658.456 562.501 658.468 570.398Q658.441 599.576 658.896 628.749L659.415 707.871C659.531 718.76 659.224 729.758 659.829 740.629Q660.836 758.367 662.532 776.052Q664.228 793.737 666.612 811.343Q668.995 828.949 672.062 846.448Q675.129 863.948 678.875 881.315C683.312 901.647 688.946 921.524 693.902 941.702L593.848 941.616C593.352 925.359 593.832 908.929 593.793 892.652L593.902 772.436L593.572 466.519Z"/>
	<path fill="#FFF46B" d="M864.962 607.204C878.355 600.995 891.266 593.974 904.434 587.327C916.272 581.352 928.29 575.791 940.103 569.746C951.519 563.904 962.906 557.539 974.593 552.294C977.79 584.044 979.233 616.021 980.698 647.889C981.234 659.564 982.124 671.209 982.588 682.894C972.991 677.346 963.01 672.477 953.47 666.863C945.196 683.011 934.091 698.237 923.514 712.949Q911.733 729.565 899.164 745.593Q886.595 761.622 873.269 777.026Q859.942 792.43 845.888 807.173Q831.834 821.917 817.086 835.966C809.467 843.103 801.822 850.267 793.909 857.076C787.891 862.256 767.328 877.934 764.012 883.136C754.174 876.451 741.529 862.886 733.563 853.93C742.558 846.92 752.029 840.532 760.78 833.199Q768.592 826.648 776.141 819.794Q783.69 812.94 790.963 805.795Q798.237 798.65 805.224 791.225Q812.21 783.799 818.9 776.105Q825.589 768.41 831.971 760.458Q838.353 752.507 844.417 744.31Q850.481 736.114 856.218 727.685Q861.955 719.257 867.356 710.609C868.445 708.872 869.348 707.643 868.851 705.481L868.11 705.139C866.081 705.645 864.778 708.221 863.7 709.873C858.67 717.587 853.856 725.47 848.537 732.991Q842.544 741.577 836.191 749.9Q829.838 758.222 823.136 766.267Q816.434 774.312 809.396 782.064Q802.358 789.817 794.997 797.263Q787.635 804.708 779.963 811.834Q772.291 818.96 764.323 825.752Q756.355 832.545 748.105 838.992Q739.855 845.44 731.338 851.53C722.553 841.999 714.618 831.142 707.627 820.24C716.983 813.457 725.697 805.168 734.271 797.423Q746.251 786.613 757.772 775.315Q769.292 764.017 780.334 752.251Q791.375 740.484 801.919 728.269Q812.462 716.054 822.489 703.412Q832.838 690.234 842.863 676.807C847.706 670.189 855.759 657.172 861.444 652.314C858.285 642.334 852.748 644.521 847.309 639.306C847.001 636.717 854.564 634.866 856.939 633.317C861.14 630.577 859.969 627.183 862.276 623.51C862.841 622.611 863.295 622.218 864.352 622.059C866.232 623.849 867.19 627.424 868.653 629.666C871.523 634.063 875.3 635.338 880.152 636.39C880.606 635.861 880.983 635.691 880.945 634.934C880.742 630.844 867.89 611.92 864.962 607.204Z"/>
	<path d="M861.444 652.314C858.285 642.334 852.748 644.521 847.309 639.306C847.001 636.717 854.564 634.866 856.939 633.317C861.14 630.577 859.969 627.183 862.276 623.51C862.841 622.611 863.295 622.218 864.352 622.059C866.232 623.849 867.19 627.424 868.653 629.666C871.523 634.063 875.3 635.338 880.152 636.39C881.146 637.225 881.405 637.658 881.746 638.909C881.124 640.321 880.511 640.487 879.106 641.066C877.028 641.923 873.666 642.522 871.995 643.994C869.41 646.272 865.489 656.249 862.453 656.029C861.457 654.773 861.504 653.915 861.444 652.314Z"/>
	<path fill="white" d="M864.185 629.342C865.042 630.241 865.56 631.611 866.377 632.608C868.847 635.624 872.109 637.021 875.568 638.57C870.735 641.236 867.151 643.769 864.219 648.616C863.61 648.748 861.849 645.26 861.281 644.547C859.331 642.101 856.24 640.651 853.545 639.182C858.119 636.664 861.28 633.631 864.185 629.342Z"/>
	<path fill="#5EE4A1" d="M490.085 449.279Q497.019 695.355 500.668 941.501L436.377 941.557L436.276 601.226L436.151 505.317L436.231 478.744C436.26 474.499 435.875 469.603 436.632 465.442C453.409 457.394 471.522 451.185 490.085 449.279Z"/>
	<path fill="#FF8B3B" d="M539.872 438.381Q539.996 443.657 539.95 448.935C551.555 451.572 563.116 454.216 574.284 458.403C578.696 460.057 585.749 464.531 589.772 465.375C590.224 471.054 589.95 476.927 589.953 482.633L590.021 513.704L590.133 622.291L590.334 941.697C569.752 941.295 549.094 941.595 528.504 941.574L536.321 604.608L539.177 478.951C539.531 465.448 539.235 451.862 539.872 438.381Z"/>
	<path fill="#FF8B3B" d="M662.098 547.26C668.932 572.226 668.126 600.289 667.451 625.984C667.238 634.11 665.62 647.809 667.437 655.52C666.183 658.278 664.5 660.456 662.477 662.692C661.398 646.967 662.115 630.71 661.99 614.917C661.811 592.419 660.998 569.736 662.098 547.26Z"/>
	<path fill="white" d="M512.901 270.971C513.672 270.892 514.469 270.784 515.247 270.846C517.306 271.012 519.284 272.034 520.54 273.668C523.205 277.133 525.418 281.155 527.836 284.814Q533.356 293.054 539.141 301.111L559.531 330.589C563.26 335.911 567.683 341.059 570.915 346.69C572.475 349.408 574.234 353.053 573.696 356.291C571.781 367.817 545.068 358.357 538.609 363.264C537.196 367.314 537.815 386.422 537.699 392.489L536.286 456.01L524.954 941.718L517.625 941.77Q510.865 941.778 504.106 941.663Q500.466 699.67 493.472 457.75C493.218 447.772 492.454 367.216 490.992 363.74C489.404 359.967 465.452 363.613 459.809 361.321C458.006 360.589 456.558 359.283 455.901 357.419C455.201 355.431 455.16 353.463 456.204 351.613C456.346 351.361 456.5 351.115 456.646 350.864C460.012 345.086 464.261 339.838 468.133 334.392C472.978 327.579 477.597 320.589 482.379 313.728C491.206 301.062 499.436 287.655 508.631 275.294C509.885 273.608 511.235 272.25 512.901 270.971Z"/>
	<path fill="#5EE4A1" d="M360.123 707.861C361.099 713.885 359.349 735.397 358.901 742.523Q358.159 755.155 357.055 767.761Q355.95 780.367 354.485 792.936Q353.02 805.505 351.195 818.027Q349.37 830.549 347.186 843.013Q345.003 855.477 342.463 867.874Q339.922 880.27 337.028 892.589Q334.133 904.908 330.887 917.138Q327.64 929.369 324.044 941.501L142.061 941.467L142.053 941.426C142.811 940.82 168.525 932.51 172.894 930.815C192.201 923.327 210.624 913.127 227.969 901.867C297.089 856.995 342.951 788.25 360.123 707.861Z"/>
	<path fill="#FF8B3B" d="M662.657 719.148C665.317 725.695 667.137 737.766 669.22 745.225C673.907 762.008 680.943 778.628 688.798 794.157Q690.241 796.994 691.746 799.8Q693.251 802.605 694.817 805.377Q696.383 808.148 698.008 810.886Q699.634 813.623 701.319 816.324Q703.004 819.025 704.747 821.688Q706.49 824.352 708.291 826.977Q710.092 829.602 711.95 832.187Q713.808 834.772 715.721 837.316Q717.635 839.86 719.604 842.362Q721.572 844.864 723.595 847.322Q725.617 849.781 727.693 852.194Q729.769 854.608 731.897 856.976Q734.024 859.344 736.203 861.665Q738.382 863.985 740.611 866.258Q742.84 868.531 745.118 870.755Q747.396 872.979 749.721 875.153Q752.047 877.326 754.42 879.449Q756.792 881.571 759.211 883.642Q761.629 885.712 764.092 887.729Q766.555 889.746 769.061 891.709Q771.567 893.672 774.115 895.58Q776.664 897.488 779.253 899.34Q781.842 901.192 784.471 902.987Q787.1 904.782 789.768 906.52Q792.435 908.257 795.14 909.936Q797.845 911.615 800.585 913.235Q803.326 914.854 806.101 916.414Q808.877 917.973 811.685 919.472Q814.494 920.97 817.334 922.408Q820.175 923.845 823.046 925.22Q825.918 926.594 828.818 927.906Q831.719 929.218 834.647 930.467C844.886 934.848 855.462 937.838 866.01 941.312C859.907 941.984 853.352 941.569 847.195 941.572L811.701 941.574L697.16 941.574Q690.971 919.706 685.831 897.568Q680.69 875.43 676.61 853.072Q672.529 830.714 669.518 808.187Q666.506 785.661 664.571 763.016C663.426 748.412 662.099 733.809 662.657 719.148Z"/>
	<path d="M899.839 518.956C900.578 519.129 901.867 519.23 902.417 519.754C904.327 521.574 906.853 531.335 909.876 535.161C913.467 539.704 923.02 540.901 925.679 545.062C921.057 547.8 911.813 550.623 909.029 555.495C906.366 560.155 904.858 565.192 902.388 569.885C901.314 570.576 901.285 570.557 900.007 570.441L899.256 569.385C898.677 566.397 898.085 563.408 896.853 560.606C893.9 553.886 888.019 548.253 880.699 546.657C877.577 545.976 874.387 545.771 871.394 544.601L871.427 543.43C873.876 541.135 884.569 540.862 888.644 538.143C895.599 533.502 898.114 526.761 899.839 518.956Z"/>
	<path fill="white" d="M901.311 526.42C902.215 527.592 902.58 529.367 903.324 530.71C907.335 537.951 911.631 541.294 919.077 544.758C912.762 547.492 908.039 551.087 904.461 557.023C903.445 558.707 902.709 560.731 901.503 562.266C901.386 562.416 901.251 562.551 901.124 562.693C896.616 551.972 893.021 548.799 882.554 543.966C884.523 543.396 886.502 542.76 888.393 541.963C895.377 539.019 898.616 533.056 901.311 526.42Z"/>
	<path d="M87.5215 421.712C91.9168 424.441 91.3751 432.117 96.5139 435.082C99.4394 436.771 104.503 437.921 106.781 440.284C107.466 440.994 107.241 440.65 107.254 441.809C105.985 443.127 104.48 443.416 102.827 444.047C94.3261 447.29 92.6038 453.198 89.1981 460.764C85.3911 458.765 83.8598 451.075 80.6667 447.866C77.7116 444.897 71.1424 444.571 69.0246 441.037L69.3129 440.033C71.2821 438.56 73.6084 438.229 75.8567 437.358C83.3847 434.442 84.553 428.305 87.5215 421.712Z"/>
	<path fill="white" d="M88.5979 429.393C91.7818 435.262 95.065 437.872 100.822 441.075C95.5558 444.644 91.9097 448.009 88.5126 453.477C87.1373 452.485 85.9418 450.163 84.9723 448.733C82.8725 445.636 80.0986 444.095 77.4663 441.572C79.147 438.751 82.4433 436.777 84.7392 434.438C86.1958 432.954 87.4032 431.094 88.5979 429.393Z"/>
	<path d="M122.023 459.824C123.365 460.54 123.786 460.969 124.448 462.327C128.29 470.211 128.315 471.989 136.611 475.241C138.369 475.93 140.04 476.456 141.496 477.696C141.193 479.198 132.443 482.458 130.722 483.939C126.769 487.341 126.864 493.455 122.822 496.855C119.498 493.265 118.759 487.601 115.097 484.197C111.918 481.242 106.478 480.972 103.223 477.901C104.062 475.132 113.288 473.507 115.847 471.25C118.847 468.603 120.422 463.444 122.023 459.824Z"/>
	<path fill="white" d="M122.586 466.442C125.84 471.71 128.809 474.574 133.898 478.009C128.585 481.432 126.437 484.52 123.54 490.001L122.846 490.119C119.194 484.073 116.369 481.105 110.168 477.667C116.566 475.16 119.134 472.237 122.586 466.442Z"/>
	<path d="M242.543 137.727C242.736 137.764 242.931 137.79 243.122 137.839C243.931 138.046 244.28 138.251 244.811 138.903C246.775 141.313 248.43 144.412 250.132 147.053C255.037 154.664 259.668 162.447 264.582 170.049L286.081 202.935C288.557 206.799 291.912 211.094 293.819 215.2C294.492 216.649 294.328 216.795 293.812 218.233C293.375 218.153 293.063 218.117 292.638 217.933C291.327 217.366 290.085 215.268 289.29 214.082C278.125 197.436 267.583 180.208 256.798 163.301C253.022 157.382 244.717 145.919 242.364 140.334C241.856 139.129 242.102 138.898 242.543 137.727Z"/>
	<path d="M774.247 131.258C774.821 131.369 775.423 131.616 775.981 131.799L776.42 132.702C775.555 135.753 729.497 198.84 723.942 206.614C722.879 206.447 722.755 206.411 721.951 205.702C722.016 202.033 768.599 138.788 774.247 131.258Z"/>
	<path d="M142.93 218.437C143.864 218.873 204.756 274.551 206.455 277.037C207.235 278.18 206.86 278.762 206.582 280.025C205.062 279.499 203.928 278.628 202.707 277.59C187.052 264.273 172.373 249.399 157.391 235.321C153.301 231.477 145.066 225.323 142.169 221.155C141.985 219.66 142.076 219.7 142.93 218.437Z"/>
	<path d="M878.868 222.848C879.333 222.9 879.857 223.128 880.305 223.272L880.759 224.277C880.305 225.26 879.794 225.865 878.993 226.566C874.777 230.25 870.016 233.524 865.573 236.947C859.558 241.581 853.688 246.412 847.703 251.089C837.825 258.809 827.887 267.633 817.235 274.242L816.317 274.247L815.562 273.295C815.8 272.208 816.381 271.634 817.184 270.91C824.827 264.014 833.888 257.937 842.017 251.6C854.278 242.042 866.29 231.976 878.868 222.848Z"/>
	<path d="M947.661 355.525C949.137 355.532 949.671 355.338 950.887 356.229L950.837 357.055C946.869 360.011 885.575 377.771 876.623 380.159L875.249 380.351C874.187 379.773 873.891 379.896 873.447 378.717C874.404 377.645 875.489 377.266 876.812 376.793C880.471 375.483 884.446 374.961 888.167 373.818L947.661 355.525Z"/>
	<path d="M973.765 482.723C975.2 482.754 975.886 483.101 976.832 484.072L976.551 484.765C975.313 485.61 973.964 485.851 972.497 486.022C969.559 486.366 966.569 486.271 963.621 486.539L939.498 488.761C925.735 489.964 911.985 491.577 898.211 492.592C896.59 492.432 896.02 492.576 894.764 491.485L895.038 490.674C899.144 488.416 964.42 483.577 973.765 482.723Z"/>
	<path d="M82.9744 337.367C87.204 337.699 154.5 361.689 157.106 363.938C157.709 364.458 157.498 365.398 157.537 366.146C152.973 365.855 84.9772 341.131 83.3752 339.67C82.7075 339.062 82.9818 338.207 82.9744 337.367Z"/>
	<path d="M520.951 80.2749C522.197 80.7435 522.625 80.7882 523.427 81.8235C524.012 92.1194 522.102 107.897 521.416 118.506C520.652 130.344 520.819 143.131 518.812 154.802C518.023 154.713 517.602 154.552 516.887 154.242C516.601 153.7 516.457 153.513 516.356 152.829C515.716 148.522 516.974 139.553 517.251 134.71L519.377 100.287C519.794 93.6964 519.828 86.7807 520.951 80.2749Z"/>
	<path d="M375.305 96.7995L376.893 97.5808C380.898 103.816 386.826 122.652 389.669 130.325C393.027 139.388 399.016 153.129 401.063 162.177C401.435 163.822 401.257 164.279 400.404 165.708C399.174 165.11 398.87 164.554 398.326 163.3C396.38 158.81 394.929 153.908 393.264 149.289L384.281 124.786C381.351 116.752 377.112 107.796 374.978 99.6634C374.617 98.2852 374.761 98.0648 375.305 96.7995Z"/>
	<path d="M648.803 98.6168L650.506 99.5027C650.638 99.85 650.862 100.175 650.904 100.545C651.187 103.059 628.745 155.901 626.079 162.786C624.887 162.37 624.781 162.305 624.015 161.303C623.809 157.19 645.739 105.822 648.803 98.6168Z"/>
</svg>
