<?xml version="1.0" encoding="utf-8" ?>
<svg xmlns="http://www.w3.org/2000/svg" xmlns:xlink="http://www.w3.org/1999/xlink" width="250" height="500" viewBox="0 0 1000 2000">
	<path fill="#42448D" d="M0 0L1024 0L1024 1414.82L1024 1432.01L1024 1433.89L1024 1675.86L1024 1734.55L1024 1740.97L1024 2046.25C1023.46 2046.59 1023.37 2046.67 1022.72 2046.97C1020.51 2048.02 1018.13 2047.92 1015.74 2047.96C973.713 2048.69 511.64 2049.31 504.996 2046.88C500.716 2048.63 496.31 2048.22 491.997 2046.87C486.585 2049.1 400.393 2048.88 394.901 2046.83C391.542 2047.72 390.301 2047.69 386.931 2046.84L383.113 2046.57C382.098 2047.03 380.992 2047.49 379.888 2047.7C370.61 2049.44 358.315 2048.03 348.804 2048.04L273.578 2048.05C185.551 2048.06 97.3594 2049.19 9.34855 2047.98C5.97271 2047.93 2.97798 2048.14 0 2046.25L0 2042.72L0 1725.24L0 1524.74L0 1520.59L0 1251.71L0 1049.66L0 993.661L0 988.048L0 0Z"/>
	<path fill="#FEFEFE" d="M0 0L1024 0L1024 1414.82L1022.97 1414.82C1014.53 1396.81 1004.88 1379.19 995.796 1361.49L948.547 1269.38L810.714 1001.02L706.26 797.751Q692.935 771.951 679.968 745.969C672.833 731.33 666.293 716.167 657.954 702.159C652.935 693.728 647.007 687.935 638.105 683.73C632.756 682.509 627.224 681.9 621.991 683.919C601.773 691.722 582.213 704.304 563.392 715.09Q503.135 750.112 443.622 786.387L156.307 958.293L61.9164 1014.58C43.0089 1025.92 24.2894 1038.08 4.8696 1048.5C3.15531 1049.42 1.98609 1049.98 0 1049.66L0 993.661L0 988.048L0 0Z"/>
	<path fill="#6556FE" d="M516.114 678.194Q497.202 642.42 477.472 607.091C470.078 593.83 461.493 580.555 455.132 566.808C453.058 562.327 450.519 556.372 450.627 551.404L451.766 551.137C462.746 561.167 471.554 586.05 478.89 599.721C486.237 613.413 494.16 626.784 501.584 640.432C508.705 653.521 515.365 666.993 522.899 679.837Q430.06 736.549 336.116 791.413L113.982 925.025C76.6866 947.751 36.1386 969.799 0 993.661L0 988.048Q174.706 881.394 350.72 776.915L455.139 714.923C475.467 702.901 496.608 691.497 516.114 678.194Z"/>
	<path fill="#60DD9F" d="M189.114 625.515Q191.458 625.474 193.8 625.547Q196.143 625.621 198.479 625.809Q200.816 625.997 203.14 626.299Q205.465 626.601 207.771 627.016Q210.078 627.431 212.362 627.959Q214.646 628.487 216.901 629.125Q219.156 629.764 221.378 630.512Q223.599 631.26 225.781 632.116Q227.963 632.972 230.101 633.934Q232.238 634.895 234.326 635.96Q236.414 637.025 238.448 638.191Q240.481 639.357 242.455 640.621Q244.429 641.884 246.339 643.243Q248.249 644.602 250.09 646.053Q251.931 647.503 253.699 649.042Q255.467 650.581 257.158 652.205Q258.848 653.828 260.457 655.533Q262.066 657.237 263.59 659.018Q265.114 660.799 266.549 662.652Q267.984 664.505 269.327 666.427Q270.67 668.348 271.917 670.332Q273.164 672.317 274.312 674.36Q275.461 676.404 276.508 678.5Q277.555 680.597 278.499 682.743Q279.442 684.889 280.28 687.078Q281.117 689.267 281.847 691.495Q282.576 693.722 283.196 695.983Q283.815 698.243 284.323 700.531Q284.832 702.82 285.227 705.13Q285.623 707.44 285.906 709.767Q286.188 712.094 286.356 714.432Q286.524 716.77 286.578 719.113Q286.632 721.456 286.571 723.799Q286.51 726.143 286.334 728.48Q286.159 730.817 285.869 733.143Q285.58 735.469 285.177 737.778Q284.774 740.087 284.258 742.374Q283.743 744.661 283.116 746.919Q282.49 749.178 281.753 751.403Q281.017 753.628 280.173 755.815Q279.329 758.002 278.378 760.144Q277.428 762.287 276.374 764.381Q275.321 766.474 274.166 768.514Q273.011 770.554 271.757 772.535Q270.504 774.515 269.156 776.432Q267.807 778.349 266.366 780.198Q264.925 782.047 263.396 783.823Q261.866 785.599 260.252 787.299Q258.637 788.998 256.942 790.616Q255.246 792.234 253.473 793.768Q251.701 795.301 249.855 796.746Q248.009 798.191 246.095 799.544Q244.181 800.897 242.203 802.155Q240.225 803.412 238.188 804.572Q236.151 805.731 234.06 806.79Q231.968 807.848 229.828 808.803Q227.687 809.758 225.502 810.607Q223.318 811.456 221.094 812.197Q218.87 812.939 216.613 813.57Q214.356 814.202 212.07 814.722Q209.785 815.243 207.477 815.651Q205.169 816.059 202.843 816.354Q200.518 816.649 198.181 816.829Q195.844 817.01 193.501 817.076Q191.142 817.143 188.783 817.093Q186.423 817.043 184.069 816.878Q181.715 816.712 179.372 816.431Q177.029 816.149 174.702 815.753Q172.376 815.356 170.072 814.846Q167.768 814.335 165.492 813.712Q163.216 813.089 160.973 812.354Q158.73 811.62 156.527 810.776Q154.323 809.931 152.163 808.98Q150.004 808.028 147.894 806.971Q145.783 805.915 143.728 804.755Q141.673 803.596 139.677 802.337Q137.681 801.078 135.749 799.722Q133.818 798.366 131.955 796.916Q130.093 795.467 128.304 793.928Q126.515 792.388 124.804 790.763Q123.094 789.137 121.465 787.43Q119.836 785.722 118.293 783.936Q116.751 782.15 115.298 780.29Q113.845 778.431 112.485 776.502Q111.126 774.573 109.863 772.579Q108.6 770.586 107.437 768.532Q106.274 766.479 105.213 764.371Q104.152 762.263 103.196 760.105Q102.241 757.947 101.392 755.745Q100.544 753.543 99.8053 751.302Q99.0665 749.06 98.4389 746.785Q97.8113 744.51 97.2965 742.207Q96.7817 739.904 96.3809 737.579Q95.9801 735.253 95.6943 732.91Q95.4085 730.568 95.2384 728.214Q95.0682 725.86 95.0142 723.501Q94.9602 721.142 95.0223 718.783Q95.0845 716.423 95.2628 714.07Q95.4411 711.717 95.735 709.375Q96.0289 707.034 96.4377 704.71Q96.8465 702.385 97.3693 700.084Q97.8921 697.783 98.5275 695.51Q99.163 693.237 99.9095 690.998Q100.656 688.76 101.512 686.561Q102.368 684.361 103.331 682.207Q104.294 680.052 105.362 677.948Q106.43 675.844 107.601 673.794Q108.771 671.745 110.041 669.756Q111.311 667.767 112.677 665.842Q114.043 663.918 115.502 662.063Q116.962 660.209 118.51 658.428Q120.059 656.648 121.694 654.946Q123.328 653.243 125.045 651.624Q126.761 650.004 128.555 648.471Q130.35 646.938 132.217 645.495Q134.084 644.052 136.021 642.703Q137.957 641.354 139.957 640.101Q141.957 638.849 144.017 637.697Q146.076 636.545 148.19 635.495Q150.304 634.446 152.467 633.502Q154.629 632.557 156.836 631.721Q159.043 630.884 161.288 630.157Q163.533 629.431 165.812 628.815Q168.09 628.2 170.396 627.697Q172.701 627.195 175.029 626.806Q177.357 626.418 179.701 626.145Q182.045 625.872 184.4 625.714Q186.754 625.556 189.114 625.515Z"/>
	<path fill="#FD8737" d="M858.408 557.586Q859.988 557.506 861.569 557.504Q863.151 557.501 864.731 557.576Q866.311 557.651 867.885 557.803Q869.459 557.955 871.024 558.184Q872.589 558.413 874.141 558.718Q875.693 559.023 877.228 559.404Q878.763 559.785 880.278 560.24Q881.792 560.696 883.283 561.225Q884.774 561.754 886.236 562.355Q887.699 562.956 889.131 563.628Q890.563 564.301 891.96 565.042Q893.357 565.783 894.716 566.592Q896.075 567.401 897.393 568.276Q898.711 569.15 899.985 570.088Q901.258 571.026 902.484 572.025Q903.71 573.024 904.886 574.082Q906.062 575.14 907.185 576.254Q908.307 577.368 909.374 578.536Q910.441 579.704 911.449 580.922Q912.457 582.141 913.405 583.407Q914.352 584.673 915.237 585.985Q916.121 587.296 916.94 588.649Q917.76 590.002 918.512 591.393Q919.264 592.785 919.947 594.211Q920.63 595.638 921.242 597.096Q921.854 598.554 922.395 600.041Q922.935 601.527 923.402 603.039Q923.869 604.55 924.261 606.082Q924.654 607.614 924.971 609.164Q925.288 610.713 925.529 612.276Q925.769 613.84 925.933 615.413Q926.097 616.986 926.184 618.565Q926.271 620.144 926.28 621.726Q926.29 623.307 926.222 624.888Q926.154 626.468 926.009 628.043Q925.863 629.618 925.641 631.184Q925.419 632.75 925.121 634.303Q924.822 635.856 924.448 637.393Q924.074 638.93 923.625 640.446Q923.176 641.963 922.654 643.456Q922.131 644.949 921.536 646.414Q920.941 647.88 920.275 649.314Q919.609 650.749 918.874 652.149Q918.139 653.549 917.336 654.912Q916.533 656.275 915.664 657.596Q914.795 658.918 913.863 660.196Q912.931 661.474 911.937 662.704Q910.943 663.934 909.89 665.115Q908.838 666.295 907.728 667.423Q906.619 668.55 905.456 669.622Q904.293 670.694 903.079 671.707Q901.865 672.721 900.602 673.674Q899.34 674.627 898.033 675.517Q896.725 676.407 895.376 677.232Q894.026 678.057 892.638 678.815Q891.25 679.574 889.827 680.263Q888.403 680.952 886.947 681.571Q885.492 682.189 884.008 682.736Q882.523 683.283 881.014 683.756Q879.505 684.23 877.975 684.629Q876.444 685.028 874.896 685.352Q873.348 685.676 871.786 685.923Q870.224 686.171 868.651 686.341Q867.079 686.512 865.5 686.606Q863.912 686.7 862.322 686.716Q860.732 686.732 859.142 686.67Q857.553 686.608 855.969 686.467Q854.385 686.327 852.809 686.109Q851.234 685.89 849.671 685.595Q848.108 685.299 846.562 684.928Q845.016 684.556 843.49 684.108Q841.964 683.66 840.461 683.138Q838.959 682.616 837.484 682.021Q836.009 681.425 834.566 680.758Q833.122 680.09 831.713 679.353Q830.304 678.615 828.933 677.81Q827.562 677.004 826.232 676.131Q824.902 675.259 823.617 674.322Q822.332 673.385 821.094 672.386Q819.856 671.387 818.669 670.329Q817.482 669.27 816.349 668.154Q815.216 667.039 814.138 665.869Q813.061 664.698 812.043 663.477Q811.025 662.255 810.068 660.985Q809.111 659.714 808.218 658.398Q807.324 657.083 806.497 655.724Q805.669 654.366 804.91 652.969Q804.15 651.571 803.46 650.139Q802.77 648.706 802.152 647.24Q801.533 645.775 800.987 644.281Q800.442 642.787 799.97 641.268Q799.498 639.75 799.102 638.209Q798.706 636.669 798.386 635.111Q798.066 633.553 797.823 631.981Q797.58 630.41 797.415 628.828Q797.249 627.246 797.162 625.658Q797.075 624.07 797.066 622.479Q797.057 620.889 797.126 619.3Q797.195 617.711 797.342 616.128Q797.49 614.544 797.715 612.97Q797.94 611.395 798.242 609.834Q798.544 608.272 798.923 606.728Q799.302 605.183 799.756 603.659Q800.21 602.134 800.739 600.634Q801.268 599.134 801.87 597.662Q802.471 596.19 803.145 594.749Q803.819 593.309 804.562 591.903Q805.306 590.497 806.118 589.129Q806.93 587.762 807.808 586.436Q808.686 585.11 809.629 583.828Q810.571 582.547 811.575 581.314Q812.58 580.081 813.643 578.898Q814.707 577.716 815.828 576.588Q816.949 575.459 818.123 574.387Q819.298 573.315 820.524 572.302Q821.751 571.289 823.025 570.338Q824.3 569.386 825.619 568.499Q826.939 567.611 828.301 566.79Q829.663 565.968 831.063 565.215Q832.464 564.461 833.9 563.777Q835.336 563.094 836.804 562.482Q838.272 561.869 839.768 561.33Q841.264 560.791 842.785 560.326Q844.306 559.861 845.848 559.471Q847.39 559.082 848.95 558.769Q850.509 558.456 852.082 558.219Q853.655 557.983 855.237 557.825Q856.82 557.666 858.408 557.586Z"/>
	<path fill="#60DD9F" d="M0 1520.59C5.16196 1521.51 22.382 1509.04 27.1892 1505.65C28.8993 1504.45 30.2805 1502.92 31.4837 1501.22C36.1166 1516.38 141.489 1719.21 147.962 1723.32C154.197 1726.9 230.154 1727.63 239.217 1725.05C240.056 1724.82 240.58 1723.5 241.048 1722.77L349.675 1938.31L376.885 1992.75C382.907 2004.7 389.752 2016.76 394.333 2029.33C395.605 2032.82 395.378 2036.2 395.114 2039.85C393.31 2043.13 390.57 2045.72 386.931 2046.84L383.113 2046.57C382.098 2047.03 380.992 2047.49 379.888 2047.7C370.61 2049.44 358.315 2048.03 348.804 2048.04L273.578 2048.05C185.551 2048.06 97.3594 2049.19 9.34855 2047.98C5.97271 2047.93 2.97798 2048.14 0 2046.25L0 2042.72L0 1725.24L0 1524.74L0 1520.59Z"/>
	<path fill="#FEFEFE" d="M0 1524.74C6.51139 1525.79 19.6216 1515.71 25.0711 1511.79C26.8856 1510.49 28.2149 1509.28 29.4355 1507.36C35.5816 1526.69 138.398 1720.07 143.296 1723.36C141.329 1724.73 139.544 1725.39 137.16 1725.61C107.054 1728.51 75.936 1725.99 45.7162 1726.14C34.6993 1726.19 13.0072 1728.4 3.3062 1726.64C2.10385 1726.42 1.03505 1725.87 0 1725.24L0 1524.74Z"/>
	<path fill="#B7E6D3" d="M0 2042.72C3.41825 2045.5 6.72905 2046.34 11.0951 2046.63C33.3226 2048.08 56.2632 2046.94 78.5871 2046.92L206.225 2046.88L319.023 2046.97C340.208 2047.04 362.001 2048.19 383.113 2046.57C382.098 2047.03 380.992 2047.49 379.888 2047.7C370.61 2049.44 358.315 2048.03 348.804 2048.04L273.578 2048.05C185.551 2048.06 97.3594 2049.19 9.34855 2047.98C5.97271 2047.93 2.97798 2048.14 0 2046.25L0 2042.72Z"/>
	<path fill="#FEFEFE" d="M1024 1740.97L1024 2046.25C1023.46 2046.59 1023.37 2046.67 1022.72 2046.97C1020.51 2048.02 1018.13 2047.92 1015.74 2047.96C973.713 2048.69 511.64 2049.31 504.996 2046.88C510.649 2044.84 523.668 2037.21 526.84 2032.36C527.802 2032.49 528.416 2032.61 529.365 2032.32C535.457 2030.45 612.073 1984.85 623.136 1977.3C624.495 1976.37 625.312 1975.45 626.14 1974.03C626.719 1974.14 626.787 1974.19 627.465 1974.1C631.712 1973.52 687.061 1940.13 692.988 1936.06C694.305 1935.16 695.117 1934.24 695.925 1932.86C696.346 1932.88 697.088 1932.96 697.55 1932.89C703.171 1931.97 725.987 1916.58 732.193 1912.88L945.106 1788.08C953.887 1782.97 1021.17 1745.29 1024 1740.97Z"/>
	<path fill="#FEFEFE" d="M0 1251.71C23.2297 1292.26 42.3813 1335.91 63.5256 1377.61L192.159 1629.01Q206.07 1655.82 219.654 1682.79C225.72 1694.87 232.08 1712.78 241.048 1722.77C240.58 1723.5 240.056 1724.82 239.217 1725.05C230.154 1727.63 154.197 1726.9 147.962 1723.32C141.489 1719.21 36.1166 1516.38 31.4837 1501.22C30.2805 1502.92 28.8993 1504.45 27.1892 1505.65C22.382 1509.04 5.16196 1521.51 0 1520.59L0 1251.71Z"/>
	<path fill="#FEFEFE" d="M1023.11 1675.93L1024 1675.86L1024 1734.55L1024 1740.97C1021.17 1745.29 953.887 1782.97 945.106 1788.08L732.193 1912.88C725.987 1916.58 703.171 1931.97 697.55 1932.89C697.088 1932.96 696.346 1932.88 695.925 1932.86C695.117 1934.24 694.305 1935.16 692.988 1936.06C687.061 1940.13 631.712 1973.52 627.465 1974.1C626.787 1974.19 626.719 1974.14 626.14 1974.03C625.312 1975.45 624.495 1976.37 623.136 1977.3C612.073 1984.85 535.457 2030.45 529.365 2032.32C528.416 2032.61 527.802 2032.49 526.84 2032.36C523.668 2037.21 510.649 2044.84 504.996 2046.88C500.716 2048.63 496.31 2048.22 491.997 2046.87C486.585 2049.1 400.393 2048.88 394.901 2046.83C407.392 2043.23 431.86 2025.24 444.116 2018.17L528.113 1969.37C541.747 1961.54 560.057 1953.38 572.019 1943.51C574.642 1941.35 577.061 1939.86 579.085 1937.03C580.248 1937.26 581.477 1937.29 582.661 1937.38C594.398 1931.76 605.401 1923.78 616.654 1917.15C653.509 1895.46 689.433 1872.18 726.188 1850.35C734.207 1845.58 742.792 1841.81 750.851 1837.1L953.09 1718.59L992.336 1695.46C1002.53 1689.57 1014.79 1684.35 1023.11 1675.93Z"/>
	<path fill="#6556FE" d="M692.143 1928.81C697.432 1928.32 739.025 1901.86 746.465 1897.34C812.047 1857.51 878.806 1819.8 945.054 1781.11C963.423 1770.38 981.994 1760.01 1000.31 1749.19C1008.1 1744.58 1016.94 1740.17 1024 1734.55L1024 1740.97C1021.17 1745.29 953.887 1782.97 945.106 1788.08L732.193 1912.88C725.987 1916.58 703.171 1931.97 697.55 1932.89C697.088 1932.96 696.346 1932.88 695.925 1932.86C695.117 1934.24 694.305 1935.16 692.988 1936.06C687.061 1940.13 631.712 1973.52 627.465 1974.1C626.787 1974.19 626.719 1974.14 626.14 1974.03C625.312 1975.45 624.495 1976.37 623.136 1977.3C612.073 1984.85 535.457 2030.45 529.365 2032.32C528.416 2032.61 527.802 2032.49 526.84 2032.36C523.668 2037.21 510.649 2044.84 504.996 2046.88C500.716 2048.63 496.31 2048.22 491.997 2046.87C496.603 2046.28 518.024 2032.55 522.127 2028.77C525.955 2028.56 621.142 1972.82 628.058 1966.7C632.742 1966.25 686.825 1933.99 692.143 1928.81Z"/>
	<path fill="#080717" d="M638.105 683.73C647.007 687.935 652.935 693.728 657.954 702.159C666.293 716.167 672.833 731.33 679.968 745.969Q692.935 771.951 706.26 797.751L810.714 1001.02L948.547 1269.38L995.796 1361.49C1004.88 1379.19 1014.53 1396.81 1022.97 1414.82L1024 1414.82L1024 1432.01L1020.94 1430.79C1017.92 1428.68 991.694 1372.73 987.184 1363.99L752.8 907.422L681.203 767.579C670.204 745.859 660.829 722.785 648.432 701.855C643.893 694.193 639.004 690.067 632.103 684.625L638.105 683.73Z"/>
	<path fill="#464244" d="M1022.97 1414.82L1024 1414.82L1024 1432.01L1020.94 1430.79L1022.44 1430.42C1023.94 1425.9 1023.05 1419.58 1022.97 1414.82Z"/>
	<path fill="#1D165E" d="M1023.03 1668.81C1023.07 1671.16 1023.23 1673.58 1023.11 1675.93C1014.79 1684.35 1002.53 1689.57 992.336 1695.46L953.09 1718.59L750.851 1837.1C742.792 1841.81 734.207 1845.58 726.188 1850.35C689.433 1872.18 653.509 1895.46 616.654 1917.15C605.401 1923.78 594.398 1931.76 582.661 1937.38C581.477 1937.29 580.248 1937.26 579.085 1937.03C577.061 1939.86 574.642 1941.35 572.019 1943.51C560.057 1953.38 541.747 1961.54 528.113 1969.37L444.116 2018.17C431.86 2025.24 407.392 2043.23 394.901 2046.83C391.542 2047.72 390.301 2047.69 386.931 2046.84C390.57 2045.72 393.31 2043.13 395.114 2039.85C395.484 2038.93 395.862 2037.4 396.411 2036.63C398.108 2034.23 411.561 2027.92 415.077 2025.89L514.396 1968.3C530.873 1958.86 555.92 1947.01 570.013 1934.92C578.597 1933.04 646.291 1890.65 658.7 1883.28L840.686 1776.16L943.801 1716.3C959.198 1707.56 974.108 1698.39 989.36 1689.45C1000.64 1682.84 1012.62 1676.76 1023.03 1668.81Z"/>
	<path fill="#ADACCD" d="M1024 1433.89L1024 1675.86L1023.11 1675.93C1023.23 1673.58 1023.07 1671.16 1023.03 1668.81L1022.94 1511.58C1022.91 1497.64 1020.7 1444 1024 1433.89Z"/>
	<path fill="#FEFEFE" d="M605.725 1009.41C649.991 1057.31 675.615 1122.79 678.128 1187.69C680.769 1255.9 657.055 1327.21 610.332 1377.61C563.247 1428.39 495.612 1460.81 426.101 1463.32C359.341 1465.72 292.846 1437.97 244.356 1392.79Q241.976 1390.54 239.651 1388.24Q237.327 1385.93 235.059 1383.57Q232.792 1381.21 230.583 1378.8Q228.375 1376.38 226.226 1373.91Q224.078 1371.44 221.99 1368.92Q219.903 1366.4 217.878 1363.83Q215.853 1361.25 213.892 1358.63Q211.931 1356.01 210.035 1353.34Q208.139 1350.68 206.309 1347.96Q204.479 1345.25 202.716 1342.49Q200.953 1339.73 199.259 1336.93Q197.564 1334.13 195.939 1331.29Q194.313 1328.45 192.758 1325.57Q191.203 1322.69 189.719 1319.77Q188.235 1316.85 186.823 1313.9Q185.411 1310.94 184.073 1307.96Q182.734 1304.97 181.468 1301.95Q180.203 1298.93 179.013 1295.88Q177.822 1292.83 176.706 1289.76Q175.591 1286.68 174.551 1283.58Q173.512 1280.47 172.549 1277.34Q171.586 1274.21 170.7 1271.06Q169.814 1267.91 169.005 1264.74Q168.197 1261.57 167.467 1258.38Q166.736 1255.19 166.085 1251.98Q165.433 1248.77 164.86 1245.55Q164.288 1242.33 163.794 1239.09Q163.301 1235.85 162.887 1232.61Q162.473 1229.36 162.139 1226.1Q161.805 1222.85 161.551 1219.58Q161.297 1216.32 161.123 1213.05Q160.949 1209.78 160.856 1206.51C158.521 1134.64 184.596 1061.18 233.971 1008.57C278.992 960.592 344.162 928.306 410.251 926.352C485.025 924.14 545.191 951.391 598.835 1002.02C601.112 1004.49 603.338 1007.05 605.725 1009.41Z"/>
	<path fill="#FD8737" d="M605.725 1009.41C649.991 1057.31 675.615 1122.79 678.128 1187.69C680.769 1255.9 657.055 1327.21 610.332 1377.61C563.247 1428.39 495.612 1460.81 426.101 1463.32C359.341 1465.72 292.846 1437.97 244.356 1392.79Q241.976 1390.54 239.651 1388.24Q237.327 1385.93 235.059 1383.57Q232.792 1381.21 230.583 1378.8Q228.375 1376.38 226.226 1373.91Q224.078 1371.44 221.99 1368.92Q219.903 1366.4 217.878 1363.83Q215.853 1361.25 213.892 1358.63Q211.931 1356.01 210.035 1353.34Q208.139 1350.68 206.309 1347.96Q204.479 1345.25 202.716 1342.49Q200.953 1339.73 199.259 1336.93Q197.564 1334.13 195.939 1331.29Q194.313 1328.45 192.758 1325.57Q191.203 1322.69 189.719 1319.77Q188.235 1316.85 186.823 1313.9Q185.411 1310.94 184.073 1307.96Q182.734 1304.97 181.468 1301.95Q180.203 1298.93 179.013 1295.88Q177.822 1292.83 176.706 1289.76Q175.591 1286.68 174.551 1283.58Q173.512 1280.47 172.549 1277.34Q171.586 1274.21 170.7 1271.06Q169.814 1267.91 169.005 1264.74Q168.197 1261.57 167.467 1258.38Q166.736 1255.19 166.085 1251.98Q165.433 1248.77 164.86 1245.55Q164.288 1242.33 163.794 1239.09Q163.301 1235.85 162.887 1232.61Q162.473 1229.36 162.139 1226.1Q161.805 1222.85 161.551 1219.58Q161.297 1216.32 161.123 1213.05Q160.949 1209.78 160.856 1206.51C158.521 1134.64 184.596 1061.18 233.971 1008.57C278.992 960.592 344.162 928.306 410.251 926.352C485.025 924.14 545.191 951.391 598.835 1002.02C594.174 1010.31 588.526 1016.56 581.732 1023.17C567.423 1013.21 554.99 1000.63 540.519 990.955C494.624 960.282 434.469 949.132 380.396 958.95Q377.666 959.47 374.949 960.056Q372.232 960.642 369.53 961.293Q366.828 961.945 364.142 962.662Q361.457 963.379 358.79 964.161Q356.122 964.943 353.475 965.79Q350.828 966.636 348.201 967.547Q345.575 968.458 342.972 969.432Q340.369 970.406 337.79 971.442Q335.211 972.479 332.658 973.579Q330.106 974.678 327.58 975.839Q325.055 977 322.558 978.221Q320.062 979.443 317.595 980.725Q315.129 982.007 312.695 983.349Q310.261 984.69 307.86 986.09Q305.459 987.491 303.092 988.949Q300.726 990.407 298.396 991.922Q296.065 993.437 293.773 995.008Q291.48 996.579 289.226 998.206Q286.972 999.832 284.758 1001.51Q282.544 1003.19 280.372 1004.93Q278.199 1006.66 276.07 1008.45Q273.94 1010.23 271.854 1012.07Q269.769 1013.91 267.728 1015.79Q265.688 1017.68 263.693 1019.62Q261.699 1021.55 259.753 1023.54Q257.806 1025.52 255.909 1027.55Q254.011 1029.58 252.163 1031.66Q250.315 1033.74 248.518 1035.86Q246.721 1037.98 244.976 1040.14Q243.231 1042.3 241.539 1044.51Q239.847 1046.71 238.209 1048.96Q236.571 1051.21 234.988 1053.49Q233.21 1056.04 231.496 1058.63Q229.782 1061.23 228.134 1063.86Q226.486 1066.5 224.904 1069.18Q223.323 1071.85 221.808 1074.57Q220.294 1077.28 218.849 1080.04Q217.403 1082.79 216.027 1085.58Q214.65 1088.36 213.344 1091.19Q212.038 1094.01 210.804 1096.86Q209.569 1099.71 208.406 1102.6Q207.242 1105.48 206.152 1108.39Q205.061 1111.3 204.044 1114.24Q203.027 1117.18 202.084 1120.14Q201.14 1123.1 200.272 1126.09Q199.403 1129.07 198.609 1132.08Q197.815 1135.08 197.097 1138.11Q196.379 1141.13 195.736 1144.18Q195.094 1147.22 194.528 1150.28Q193.962 1153.33 193.473 1156.4Q192.984 1159.47 192.572 1162.55Q192.16 1165.64 191.825 1168.73Q191.49 1171.82 191.233 1174.92Q190.976 1178.01 190.796 1181.12Q190.617 1184.22 190.515 1187.33Q190.413 1190.44 190.39 1193.54Q190.366 1196.65 190.42 1199.76Q190.474 1202.87 190.605 1205.98Q190.737 1209.08 190.947 1212.18Q191.156 1215.29 191.444 1218.38Q191.731 1221.48 192.095 1224.57Q192.46 1227.65 192.902 1230.73Q193.344 1233.81 193.863 1236.87Q194.382 1239.94 194.977 1242.99Q195.512 1245.88 196.119 1248.75Q196.726 1251.63 197.405 1254.48Q198.083 1257.34 198.832 1260.18Q199.582 1263.02 200.401 1265.84Q201.221 1268.67 202.111 1271.46Q203 1274.26 203.96 1277.04Q204.919 1279.82 205.947 1282.57Q206.975 1285.32 208.071 1288.05Q209.167 1290.77 210.33 1293.47Q211.494 1296.17 212.724 1298.83Q213.955 1301.5 215.251 1304.14Q216.548 1306.77 217.909 1309.38Q219.271 1311.98 220.697 1314.55Q222.123 1317.12 223.612 1319.65Q225.102 1322.18 226.654 1324.67Q228.206 1327.17 229.819 1329.62Q231.433 1332.08 233.107 1334.49Q234.782 1336.9 236.515 1339.28Q238.249 1341.65 240.041 1343.97Q241.834 1346.3 243.683 1348.58Q245.533 1350.87 247.439 1353.1Q249.345 1355.34 251.306 1357.52Q253.267 1359.71 255.281 1361.85Q257.296 1363.99 259.363 1366.07Q261.431 1368.16 263.549 1370.2Q265.668 1372.23 267.837 1374.21Q270.005 1376.19 272.223 1378.12Q274.44 1380.05 276.705 1381.92Q278.969 1383.79 281.28 1385.6Q283.59 1387.42 285.945 1389.17Q288.3 1390.93 290.698 1392.63Q293.096 1394.32 295.535 1395.96C342.918 1428.17 402.375 1443.21 459.092 1432.34C521.107 1420.45 574.296 1383.37 609.422 1331.25C644.396 1279.36 656.489 1212.65 644.506 1151.45C637.997 1118.21 625.822 1085.43 606.916 1057.18C600.55 1047.67 591.102 1039.91 586.504 1029.32C593.699 1027.89 601.522 1015.21 605.725 1009.41Z"/>
	<path fill="#FD8737" d="M467.307 1087.72C467.477 1087.87 467.658 1088 467.818 1088.16C472.495 1092.7 475.858 1179.35 475.351 1189.08C474.051 1190.19 472.789 1190.56 471.153 1190.97C461.797 1193.27 376.044 1193.91 370.478 1190.56C368.304 1191.22 367.742 1191.49 365.579 1190.93C359.82 1183.12 369.217 1102.53 371.399 1087.14C375.8 1090.14 381.482 1090.56 386.643 1091.25C403.403 1093.51 454.736 1097.26 467.307 1087.72Z"/>
	<path fill="#FD8737" d="M473.148 1199.53C474.005 1200.2 474.532 1201.08 475.159 1201.96C476.757 1219.91 473.585 1283.76 467.785 1299.56C461.954 1303.11 444.694 1297.83 437.346 1297.51C419.632 1296.74 402.374 1299.83 384.77 1300.56C380.051 1300.76 374.361 1301.63 370.636 1298.21C365.557 1289.39 363.981 1212.67 364.872 1198.67C365.707 1199.21 366.556 1199.69 367.485 1200.05C375.687 1203.21 465.136 1203.17 473.148 1199.53Z"/>
	<path fill="#FD8737" d="M256.886 1038.4C266.367 1043.97 274.577 1051.62 283.831 1057.54C287.525 1059.91 293.478 1063.73 297.972 1062.74C295.15 1073.57 290.196 1084.3 286.499 1094.91C281.086 1110.44 276.721 1127.09 273.41 1143.21C271.433 1152.83 271.555 1183.38 267.699 1189.73C267.614 1189.87 267.518 1190 267.427 1190.14C264.741 1191.95 261.769 1192.51 258.57 1192.65C253.21 1192.9 244.591 1193.19 240.498 1189.55C239.573 1190.28 238.612 1190.91 237.496 1191.33C231.058 1193.72 207.327 1193.63 201.205 1190.47C199.959 1189.83 199.709 1189.36 199.389 1187.99C197.774 1181.05 200.957 1168.9 202.086 1161.74C207.123 1129.8 216.213 1098.18 234.044 1070.86C241.28 1059.78 249.764 1049.6 256.886 1038.4Z"/>
	<path fill="#FD8737" d="M572.18 1199.57C573.403 1200.31 574.448 1200.62 575.848 1200.86C586.938 1202.8 631.042 1203.68 639.376 1197.87C640.867 1221.96 635.472 1248.69 628.078 1271.53C624.139 1283.71 607.369 1328.27 595.497 1334.34Q594.948 1335.62 594.262 1336.83C591.462 1341.67 586.085 1350.19 580.556 1351.63C579.723 1351.55 578.926 1351.46 578.113 1351.24C574.611 1350.25 542.722 1327.44 540.943 1324.4C554.059 1306.47 563.084 1263.98 566.469 1241.28C567.833 1232.13 567.918 1205.78 572.18 1199.57Z"/>
	<path fill="#FD8737" d="M578.275 1037.31C582.516 1039.02 585.869 1043.59 588.699 1047.06C615.863 1080.4 630.765 1124.73 637.203 1166.72C638.296 1173.85 640.427 1181.91 639.675 1189.12C637.894 1191.13 636.677 1191.81 633.942 1192.14C626.973 1192.97 609.826 1194.1 604.484 1189.62C604.362 1189.68 604.242 1189.75 604.119 1189.81C603.914 1189.91 603.703 1189.99 603.5 1190.1C602.181 1190.76 600.949 1191.38 599.489 1191.68C591.968 1193.24 576.795 1194.05 570.164 1189.82C569.025 1175.04 568.761 1160.18 566.28 1145.53C561.536 1117.52 550.861 1091.35 542.014 1064.5C542.837 1064.59 543.363 1064.66 544.178 1064.46C554.207 1061.98 573.559 1046.14 578.275 1037.31Z"/>
	<path fill="#FD8737" d="M257.647 1199.19C257.806 1199.26 257.964 1199.33 258.125 1199.39C261.799 1200.81 265.089 1200.4 268.625 1198.89C268.684 1229.17 273.61 1262.39 283.434 1291.04C287.078 1301.67 292.109 1312.06 296.639 1322.35C296.401 1323.77 296.472 1324.17 295.458 1325.2C291.488 1329.23 263.033 1350.59 258.321 1350.6C258.023 1350.53 257.719 1350.47 257.425 1350.38C253.715 1349.27 250.605 1343.42 248.77 1340.35C248.065 1340.1 247.666 1339.84 247.179 1339.27C241.521 1332.61 236.954 1324.55 232.558 1316.99C212.145 1281.91 197.375 1240.25 199.546 1199.18C200.301 1199.55 200.982 1199.86 201.792 1200.09C209.533 1202.3 251.263 1202.94 257.647 1199.19Z"/>
	<path fill="#FD8737" d="M306.481 1068.71C313.959 1074.31 335.658 1081.12 345.083 1083.51C350.006 1084.75 357.972 1087.07 362.521 1084.36C361.024 1108.74 357.478 1132.89 356.456 1157.35C356.241 1162.48 356.973 1186.68 353.936 1189.96C351.933 1192.12 349.157 1192.49 346.361 1192.56C342.046 1192.66 337.775 1192.57 334.493 1189.49C333.232 1190.34 331.924 1190.97 330.455 1191.38C321.028 1194.02 285.016 1193.67 277.326 1189.17C278.992 1179.04 279.538 1168.55 280.995 1158.34C285.407 1127.44 293.143 1097.05 306.481 1068.71Z"/>
	<path fill="#FD8737" d="M531.807 1069.37C533.102 1070.16 533.938 1071.04 534.778 1072.31C546.21 1089.58 565.016 1169.14 561.104 1188.96C558.75 1191.41 556.516 1191.95 553.171 1192.36C545.938 1193.26 514.768 1194.09 509.476 1189.92C503.146 1192.62 492.954 1193.84 486.434 1191.4C484.395 1189.41 484.271 1189.08 483.97 1186.25C482.856 1175.76 483.969 1164.77 483.381 1154.17C482.13 1131.61 479.613 1109.1 477.918 1086.56C479.636 1087.42 481.782 1087.26 483.654 1087.07C492.904 1086.18 526.411 1075.81 531.807 1069.37Z"/>
	<path fill="#FD8737" d="M279.287 1199.15C280.596 1199.9 281.861 1200.3 283.342 1200.54C294.494 1202.33 347.136 1203.64 354.919 1198.04C356.683 1231.35 353.096 1268.52 361.98 1300.88C360.698 1302.33 358.642 1303.45 356.894 1304.25C353.727 1305.7 351.533 1305.03 348.483 1303.9C347.723 1304.56 346.931 1305.16 346.065 1305.68C340.883 1308.76 310.781 1320.44 305.059 1318.94C304.935 1318.88 304.802 1318.83 304.686 1318.76C299.112 1315.1 293.87 1294.6 291.965 1288.37C287.204 1272.78 272.765 1211.45 279.287 1199.15Z"/>
	<path fill="#FD8737" d="M416.877 963.976C419.742 964.737 422.758 965.697 425.295 967.258C451.919 983.635 461.041 1050.1 467.273 1079.07C462.903 1082.88 453.089 1083.74 447.368 1084.39C440.604 1085.15 430.013 1086.27 424.486 1081.86C421.276 1084.5 418.65 1084.64 414.675 1084.78C404.923 1085.13 380.442 1084.9 372.948 1077.94Q373.217 1075.11 373.605 1072.3C378.814 1036.11 385.349 987.39 416.877 963.976Z"/>
	<path fill="#FD8737" d="M545.375 1199.19C546.008 1199.56 546.534 1199.86 547.257 1200.03C552.101 1201.15 557.179 1200.24 561.446 1197.83Q561.432 1199.29 561.388 1200.74C560.339 1236.17 552.777 1275.28 538.927 1307.81C537.239 1311.78 535.418 1317.92 532.37 1320.78C525.779 1320.98 508.914 1313.93 503.515 1309.69C502.59 1309.98 501.963 1310.17 500.986 1310.12C495 1309.86 481.934 1304.54 477.809 1300.49Q481.731 1273.62 482.839 1246.49C483.48 1230.59 483.194 1214.63 484.914 1198.79C485.925 1199.48 486.992 1200.16 488.17 1200.52C496.374 1203.03 538.187 1202.83 545.375 1199.19Z"/>
	<path fill="#FD8737" d="M400.171 1306.02C406.146 1307.59 461.43 1309.99 467.213 1308.61C465.982 1336.46 453.654 1384.78 440.614 1409.43C438.697 1413.06 436.505 1417.19 432.471 1418.43C431.978 1419.6 431.418 1420.72 430.719 1421.78C428.906 1424.52 425.046 1428.02 421.687 1428.4C418.977 1428.7 416.542 1427.44 414.536 1425.74C391.835 1406.52 374.876 1338.86 371.974 1308.99C372.189 1309.05 372.406 1309.1 372.62 1309.17C373.955 1309.55 375.262 1309.89 376.646 1310.06C382.742 1310.79 395.333 1309.82 400.171 1306.02Z"/>
	<path fill="#FD8737" d="M357.154 1311.29C358.782 1312.04 362.516 1313.5 363.33 1315.1C367.015 1322.34 368.607 1341.24 370.568 1350.22C374.616 1368.74 380.558 1388.36 388.696 1405.54C391.796 1412.08 396.431 1420.62 403.528 1423.17C401.472 1423.45 399.155 1423.84 397.107 1423.4C388.39 1421.51 376.307 1414.28 371.502 1406.74C369.642 1406.92 368.537 1406.41 366.986 1405.43C348.667 1393.79 314.873 1347.69 309.931 1326.28C311.076 1326.64 312.27 1326.87 313.477 1326.76C319.574 1326.23 353.921 1315.14 357.154 1311.29Z"/>
	<path fill="#FD8737" d="M441.482 966.937C450.943 970.702 459.269 976.11 467.288 982.322C489.281 999.361 504.945 1020.74 519.317 1044.25C521.891 1048.46 526.877 1055.1 527.216 1060C527.364 1062.14 526.77 1062.44 525.453 1063.99C522.49 1065.03 520.646 1065.5 517.466 1065.02C515.696 1067.58 513.366 1068.7 510.597 1069.98C502.093 1073.89 485.497 1080.25 476.365 1076.85C472.615 1069.7 467.632 1033.43 464.101 1020.94C458.723 1001.92 447.82 985.496 441.482 966.937Z"/>
	<path fill="#FD8737" d="M394.876 968.942C395.938 969.247 395.938 969.589 396.572 970.449C394.824 976.588 389.573 983.207 386.519 988.96C382.695 996.165 379.784 1004.16 377.288 1011.91C372.708 1026.13 369.346 1041.25 367.044 1056.02C366.202 1061.42 366.07 1071.76 363.137 1076.18C357.164 1079.38 344.985 1074.28 338.689 1072.4C334.489 1071.14 327.597 1069.25 325.446 1065.26C324.708 1065.39 324.463 1065.47 323.77 1065.51C318.579 1065.86 313.84 1062.83 310.117 1059.57C315.355 1055.31 319.123 1044.87 322.898 1039.02C344.781 1005.1 360.707 990.018 394.876 968.942Z"/>
	<path fill="#FD8737" d="M476.046 1312.21C485.09 1314.78 521.918 1330.02 528.486 1327.82C525.032 1344.16 500.263 1375.71 489.041 1388.76C485.655 1392.7 478.115 1401.92 472.814 1402.33C472.452 1402.87 472.088 1403.39 471.695 1403.91C466.12 1411.28 451.396 1422.58 442.014 1423.83L441.357 1422.69C464.121 1393.14 471.648 1348.57 476.046 1312.21Z"/>
	<path fill="#FD8737" d="M467.479 969.735C474.141 969.875 482.046 973.038 488.336 975.18C509.988 982.556 530.228 992.784 547.989 1007.32C554.035 1012.26 567.46 1027.89 574.539 1028.72C573.453 1030.77 572.044 1032.48 570.5 1034.2C567.847 1037.17 564.676 1040.34 560.475 1040.58C558.836 1043.8 556.139 1046.27 553.392 1048.55C549.432 1051.85 544.099 1055.9 538.703 1055.44C533.146 1053.8 525.784 1037.78 522.512 1032.23Q519.052 1026.4 515.194 1020.82Q511.337 1015.25 507.1 1009.96Q502.864 1004.66 498.269 999.677Q493.674 994.692 488.743 990.039C481.666 983.231 474.13 976.986 467.479 969.735Z"/>
	<path fill="#FD8737" d="M371.307 968.928C372.231 969.244 372.654 969.843 373.346 970.528C372.344 973.428 352.807 987.886 349.112 991.381Q344.545 995.645 340.289 1000.22Q336.033 1004.79 332.109 1009.66Q328.185 1014.52 324.613 1019.65Q321.041 1024.77 317.839 1030.14C314.679 1035.41 306.507 1051.94 302.079 1054.89C301.095 1055.55 300.317 1055.56 299.212 1055.38C293.68 1054.49 284.697 1048.07 281.54 1043.43C280.35 1043.43 279.244 1043.4 278.094 1043.03C272.251 1041.16 267.22 1035.06 264.446 1029.85C265.046 1029.78 265.613 1029.64 266.18 1029.42C272.304 1027.09 282.579 1015.17 288.259 1010.51C294.965 1005.01 302.091 999.679 309.392 994.995C328.821 982.529 351.008 978.798 371.307 968.928Z"/>
	<path fill="#FD8737" d="M299.944 1332.42C307.278 1337.05 319.457 1363.44 326.03 1372.3C338.695 1389.38 351.514 1404.69 368.236 1417.96L367.51 1419.2C360.148 1420.52 348.488 1413.68 342.536 1409.56C340.193 1410.05 339.792 1410.16 337.524 1409.32C318.273 1402.22 273.032 1374.63 264.796 1356.8C271.214 1356.01 295.595 1337.41 299.944 1332.42Z"/>
	<path fill="#FD8737" d="M536.426 1334.31C545.31 1338.17 569.085 1357.5 574.75 1357.51C574.664 1357.67 574.581 1357.84 574.491 1358.01C574.341 1358.28 574.177 1358.55 574.028 1358.83C566.804 1372.27 540.571 1388.6 527.011 1397.1C519.544 1401.79 504.219 1412.34 495.084 1410.26C494.616 1410.96 494.219 1411.53 493.575 1412.09C488.825 1416.2 475.532 1421.52 469.247 1420.76C468.849 1418.75 470.984 1417.29 472.511 1416.05C494.196 1398.51 527.959 1361.44 536.426 1334.31Z"/>
	<path fill="#FEFEFE" d="M514.178 1580.58C511.017 1581 506.341 1579.85 503.192 1579.1C511.208 1578.11 528.002 1579.05 532.838 1578C538.258 1579.85 549.241 1583.12 554.84 1582.26L555.546 1582.66C565.31 1588.2 576.767 1591.01 586.842 1596.36Q588.419 1597.22 589.974 1598.11Q591.529 1599.01 593.061 1599.94Q594.594 1600.88 596.103 1601.85Q597.612 1602.82 599.096 1603.83Q600.581 1604.84 602.04 1605.88Q603.499 1606.93 604.932 1608.01Q606.364 1609.09 607.77 1610.2Q609.176 1611.32 610.554 1612.47Q611.931 1613.62 613.28 1614.8Q614.629 1615.99 615.948 1617.2Q617.268 1618.42 618.556 1619.67Q619.845 1620.92 621.103 1622.2Q622.36 1623.48 623.586 1624.79Q624.811 1626.1 626.004 1627.44Q627.197 1628.78 628.356 1630.15Q629.516 1631.52 630.641 1632.92Q631.766 1634.32 632.856 1635.75Q633.946 1637.17 635.001 1638.62Q636.055 1640.08 637.074 1641.55Q638.092 1643.03 639.074 1644.53Q640.056 1646.04 641 1647.56Q641.944 1649.09 642.85 1650.64Q643.757 1652.19 644.624 1653.76Q645.492 1655.33 646.321 1656.92Q647.149 1658.51 647.939 1660.12Q648.728 1661.74 649.477 1663.37Q650.226 1665 650.934 1666.65Q651.643 1668.3 652.31 1669.96Q652.978 1671.63 653.604 1673.31Q654.23 1674.99 654.815 1676.69Q655.399 1678.38 655.942 1680.1Q656.484 1681.81 656.984 1683.53C667.537 1719.82 666.73 1759.81 648.156 1793.48C642.368 1803.98 634.935 1815.32 626.757 1824.06C613.379 1838.34 585.837 1857.32 566.748 1862.76C560.829 1864.45 539.7 1872.27 535.017 1869.67L535.526 1869.18C536.639 1868.09 537.61 1867.24 538.163 1865.74C537.627 1866.06 537.086 1866.34 536.518 1866.6C515.457 1876.16 473.16 1869.53 452.334 1861.46Q450.663 1860.8 449.009 1860.11Q447.355 1859.41 445.718 1858.68Q444.081 1857.94 442.463 1857.17Q440.845 1856.39 439.246 1855.58Q437.647 1854.76 436.068 1853.91Q434.49 1853.05 432.933 1852.16Q431.376 1851.27 429.841 1850.34Q428.306 1849.41 426.794 1848.44Q425.283 1847.48 423.795 1846.47Q422.307 1845.47 420.845 1844.43Q419.382 1843.39 417.946 1842.31Q416.509 1841.24 415.099 1840.13Q413.689 1839.02 412.306 1837.87Q410.924 1836.73 409.57 1835.55Q408.216 1834.37 406.891 1833.16Q405.566 1831.95 404.271 1830.71Q402.976 1829.47 401.712 1828.19Q400.448 1826.92 399.215 1825.62Q397.982 1824.31 396.782 1822.98Q395.582 1821.64 394.414 1820.28Q393.247 1818.92 392.113 1817.53Q390.979 1816.14 389.88 1814.72Q388.78 1813.3 387.716 1811.85Q386.651 1810.41 385.623 1808.94Q384.594 1807.47 383.601 1805.97Q382.609 1804.48 381.653 1802.96Q380.697 1801.44 379.779 1799.9Q378.86 1798.36 377.98 1796.79Q377.1 1795.23 376.258 1793.64Q375.416 1792.06 374.613 1790.46Q373.81 1788.85 373.047 1787.23Q372.283 1785.6 371.56 1783.96Q370.846 1782.32 370.173 1780.67Q369.499 1779.02 368.867 1777.35Q368.235 1775.68 367.644 1774Q367.053 1772.32 366.504 1770.62Q365.955 1768.92 365.448 1767.21Q364.941 1765.5 364.477 1763.78Q364.013 1762.05 363.591 1760.32Q363.169 1758.59 362.791 1756.84Q362.412 1755.1 362.077 1753.35Q361.741 1751.6 361.45 1749.83Q361.158 1748.07 360.909 1746.31Q360.661 1744.54 360.457 1742.77Q360.252 1741 360.092 1739.22Q359.931 1737.44 359.814 1735.66Q359.698 1733.88 359.625 1732.1Q359.553 1730.32 359.525 1728.53Q359.496 1726.75 359.512 1724.96Q359.528 1723.18 359.588 1721.4Q359.648 1719.61 359.752 1717.83Q359.856 1716.05 360.004 1714.27Q360.152 1712.5 360.344 1710.72Q360.536 1708.95 360.771 1707.18Q361.007 1705.41 361.287 1703.65Q361.566 1701.89 361.889 1700.13Q362.212 1698.38 362.578 1696.63Q362.945 1694.88 363.354 1693.15Q363.763 1691.41 364.216 1689.69Q364.668 1687.96 365.163 1686.24Q365.657 1684.53 366.194 1682.83Q366.731 1681.13 367.31 1679.44Q367.889 1677.75 368.51 1676.08Q369.13 1674.41 369.792 1672.75Q370.655 1670.58 371.587 1668.44Q372.519 1666.29 373.52 1664.18Q374.521 1662.07 375.59 1659.99Q376.659 1657.91 377.794 1655.87Q378.93 1653.83 380.131 1651.83Q381.331 1649.82 382.596 1647.86Q383.861 1645.89 385.189 1643.97Q386.517 1642.05 387.906 1640.17Q389.296 1638.29 390.745 1636.46Q392.194 1634.62 393.702 1632.84Q395.21 1631.05 396.775 1629.32Q398.339 1627.58 399.959 1625.9Q401.579 1624.21 403.253 1622.58Q404.927 1620.95 406.652 1619.38Q408.377 1617.8 410.153 1616.28Q411.928 1614.76 413.752 1613.3Q415.576 1611.84 417.445 1610.44Q419.315 1609.04 421.23 1607.7Q423.144 1606.36 425.1 1605.08Q427.057 1603.8 429.054 1602.59Q431.051 1601.38 433.086 1600.23Q435.121 1599.08 437.192 1598Q439.263 1596.91 441.368 1595.9Q443.473 1594.89 445.609 1593.94Q447.746 1592.99 449.912 1592.12Q452.078 1591.24 454.271 1590.43Q456.465 1589.63 458.683 1588.89Q460.901 1588.16 463.142 1587.5Q465.383 1586.83 467.644 1586.25Q469.905 1585.66 472.184 1585.14Q474.463 1584.62 476.757 1584.18Q479.052 1583.74 481.359 1583.37C490.043 1581.95 506.743 1584.09 513.644 1580.85C513.826 1580.77 514 1580.67 514.178 1580.58Z"/>
	<path fill="#1D165E" d="M514.178 1580.58C511.017 1581 506.341 1579.85 503.192 1579.1C511.208 1578.11 528.002 1579.05 532.838 1578C538.258 1579.85 549.241 1583.12 554.84 1582.26L555.546 1582.66C565.31 1588.2 576.767 1591.01 586.842 1596.36Q588.419 1597.22 589.974 1598.11Q591.529 1599.01 593.061 1599.94Q594.594 1600.88 596.103 1601.85Q597.612 1602.82 599.096 1603.83Q600.581 1604.84 602.04 1605.88Q603.499 1606.93 604.932 1608.01Q606.364 1609.09 607.77 1610.2Q609.176 1611.32 610.554 1612.47Q611.931 1613.62 613.28 1614.8Q614.629 1615.99 615.948 1617.2Q617.268 1618.42 618.556 1619.67Q619.845 1620.92 621.103 1622.2Q622.36 1623.48 623.586 1624.79Q624.811 1626.1 626.004 1627.44Q627.197 1628.78 628.356 1630.15Q629.516 1631.52 630.641 1632.92Q631.766 1634.32 632.856 1635.75Q633.946 1637.17 635.001 1638.62Q636.055 1640.08 637.074 1641.55Q638.092 1643.03 639.074 1644.53Q640.056 1646.04 641 1647.56Q641.944 1649.09 642.85 1650.64Q643.757 1652.19 644.624 1653.76Q645.492 1655.33 646.321 1656.92Q647.149 1658.51 647.939 1660.12Q648.728 1661.74 649.477 1663.37Q650.226 1665 650.934 1666.65Q651.643 1668.3 652.31 1669.96Q652.978 1671.63 653.604 1673.31Q654.23 1674.99 654.815 1676.69Q655.399 1678.38 655.942 1680.1Q656.484 1681.81 656.984 1683.53C667.537 1719.82 666.73 1759.81 648.156 1793.48C642.368 1803.98 634.935 1815.32 626.757 1824.06C613.379 1838.34 585.837 1857.32 566.748 1862.76C560.829 1864.45 539.7 1872.27 535.017 1869.67L535.526 1869.18C536.639 1868.09 537.61 1867.24 538.163 1865.74C539.041 1866.04 539.588 1866.23 540.527 1866.19C545.278 1865.99 551.157 1863.19 555.524 1861.43C574.907 1853.6 591.295 1844.18 606.247 1829.24Q607.513 1827.99 608.747 1826.71Q609.981 1825.44 611.184 1824.13Q612.386 1822.82 613.555 1821.48Q614.725 1820.14 615.861 1818.78Q616.997 1817.41 618.099 1816.02Q619.201 1814.62 620.269 1813.2Q621.336 1811.78 622.368 1810.34Q623.4 1808.89 624.395 1807.42Q625.391 1805.95 626.35 1804.45Q627.309 1802.95 628.231 1801.43Q629.152 1799.91 630.036 1798.37Q630.92 1796.83 631.766 1795.27Q632.611 1793.71 633.418 1792.12Q634.224 1790.54 634.991 1788.94Q635.758 1787.33 636.486 1785.71Q637.213 1784.09 637.9 1782.45Q638.587 1780.81 639.233 1779.16Q639.88 1777.5 640.485 1775.83Q641.09 1774.16 641.653 1772.48Q642.217 1770.79 642.739 1769.09Q643.26 1767.39 643.74 1765.68Q644.22 1763.97 644.657 1762.25Q645.094 1760.53 645.488 1758.79Q645.883 1757.06 646.234 1755.32Q646.586 1753.58 646.894 1751.83Q647.202 1750.08 647.467 1748.32Q647.732 1746.56 647.953 1744.8Q648.175 1743.04 648.353 1741.27Q648.53 1739.5 648.664 1737.73Q648.798 1735.96 648.888 1734.18Q648.978 1732.41 649.025 1730.63Q649.071 1728.86 649.073 1727.08C648.897 1674.37 622.467 1627.42 576.681 1600.92C571.204 1597.75 548.196 1588.23 546.246 1586.17C546.107 1586.02 545.981 1585.86 545.848 1585.71C545.031 1586.07 544.356 1586.36 543.452 1586.41C539.256 1586.68 530.311 1584.45 527.039 1581.88C522.24 1583.24 518.598 1582.91 514.178 1580.58Z"/>
	<path fill="#FD8737" d="M493.301 1587.14C498.22 1589.6 514.349 1588.65 520.617 1589.34C530.981 1590.49 541.974 1592.41 551.735 1596.19C587.259 1609.93 616.064 1634.81 631.516 1670.05C643.105 1696.48 649.854 1736.37 638.953 1764.08C627.879 1764.88 593.898 1721.76 577.907 1717.43C574.773 1718.05 572.119 1719.26 569.375 1720.88C560.526 1726.1 552.508 1733.23 543.813 1738.82C526.336 1750.07 507.86 1759.98 491.226 1772.48C484.956 1777.19 479.378 1781.82 474.739 1788.19C471.364 1805.16 478.915 1827.03 483.899 1843.52C485.497 1848.81 488.477 1856.27 487.975 1861.83C487.594 1862.09 487.42 1862.21 486.984 1862.44C481.641 1865.15 470.684 1861.13 465.211 1859.41C428.284 1847.81 398.021 1824.05 380.044 1789.54C363.812 1758.37 359.733 1720.88 370.46 1687.3Q371.075 1685.31 371.749 1683.34Q372.423 1681.38 373.154 1679.43Q373.886 1677.48 374.675 1675.55Q375.463 1673.63 376.309 1671.73Q377.154 1669.83 378.055 1667.95Q378.956 1666.08 379.912 1664.23Q380.868 1662.38 381.879 1660.56Q382.889 1658.74 383.952 1656.95Q385.016 1655.17 386.132 1653.41Q387.247 1651.65 388.415 1649.93Q389.582 1648.21 390.799 1646.52Q392.017 1644.83 393.284 1643.18Q394.551 1641.53 395.866 1639.92Q397.181 1638.31 398.543 1636.74Q399.905 1635.16 401.313 1633.63Q402.721 1632.1 404.173 1630.61Q405.626 1629.12 407.122 1627.67Q408.618 1626.23 410.156 1624.83Q411.694 1623.43 413.273 1622.07Q414.851 1620.72 416.469 1619.41Q418.087 1618.1 419.743 1616.84Q421.399 1615.58 423.092 1614.37Q424.784 1613.16 426.511 1612Q428.239 1610.84 430 1609.73Q431.761 1608.62 433.554 1607.57Q435.346 1606.51 437.17 1605.51Q438.993 1604.51 440.845 1603.56Q442.697 1602.61 444.576 1601.72Q446.456 1600.83 448.36 1599.99Q450.265 1599.15 452.194 1598.37Q454.123 1597.59 456.074 1596.87Q458.025 1596.15 459.996 1595.48C469.116 1592.4 486.147 1591.07 492.753 1587.47C492.939 1587.36 493.119 1587.25 493.301 1587.14Z"/>
	<path fill="#FEFEFE" d="M483.365 1642.55Q484.731 1642.37 486.105 1642.26Q487.479 1642.14 488.856 1642.09Q490.234 1642.05 491.612 1642.07Q492.99 1642.09 494.366 1642.18Q495.741 1642.27 497.111 1642.42Q498.48 1642.58 499.841 1642.8Q501.201 1643.02 502.549 1643.31Q503.896 1643.6 505.228 1643.96Q506.56 1644.31 507.873 1644.73Q509.186 1645.15 510.477 1645.63Q511.768 1646.12 513.034 1646.66Q514.299 1647.21 515.537 1647.82Q516.774 1648.42 517.98 1649.09Q519.187 1649.76 520.359 1650.48Q521.531 1651.21 522.666 1651.99Q523.801 1652.77 524.897 1653.61Q525.992 1654.44 527.045 1655.33Q528.099 1656.22 529.107 1657.16Q530.115 1658.1 531.077 1659.09Q532.038 1660.08 532.95 1661.11Q533.861 1662.15 534.721 1663.22Q535.581 1664.3 536.387 1665.42Q537.193 1666.54 537.944 1667.69Q538.694 1668.85 539.387 1670.04Q540.08 1671.23 540.714 1672.45Q541.348 1673.68 541.921 1674.93Q542.494 1676.19 543.005 1677.47Q543.516 1678.75 543.964 1680.05Q544.411 1681.35 544.794 1682.68Q545.178 1684 545.496 1685.34Q545.814 1686.68 546.066 1688.04Q546.318 1689.39 546.503 1690.76Q546.688 1692.13 546.806 1693.5Q546.925 1694.87 546.976 1696.25Q547.026 1697.63 547.01 1699.01Q546.993 1700.38 546.909 1701.76Q546.824 1703.14 546.673 1704.51Q546.521 1705.88 546.303 1707.24Q546.084 1708.6 545.8 1709.95Q545.515 1711.3 545.164 1712.63Q544.814 1713.96 544.398 1715.28Q543.983 1716.59 543.504 1717.88Q543.024 1719.18 542.482 1720.44Q541.94 1721.71 541.337 1722.95Q540.733 1724.19 540.07 1725.4Q539.406 1726.61 538.685 1727.78Q537.963 1728.96 537.184 1730.09Q536.406 1731.23 535.573 1732.33Q534.739 1733.43 533.853 1734.48Q532.967 1735.54 532.031 1736.55Q531.094 1737.56 530.109 1738.53Q529.124 1739.49 528.092 1740.41Q527.061 1741.32 525.987 1742.18Q524.912 1743.05 523.796 1743.86Q522.68 1744.67 521.526 1745.42Q520.372 1746.18 519.183 1746.87Q517.993 1747.57 516.771 1748.21Q515.549 1748.84 514.297 1749.42Q513.045 1750 511.766 1750.51Q510.487 1751.03 509.185 1751.48Q507.882 1751.93 506.559 1752.32Q505.236 1752.7 503.896 1753.03Q502.555 1753.35 501.201 1753.6Q499.846 1753.86 498.481 1754.05Q497.11 1754.24 495.732 1754.36Q494.354 1754.48 492.971 1754.54Q491.588 1754.59 490.204 1754.58Q488.821 1754.57 487.439 1754.49Q486.058 1754.4 484.682 1754.25Q483.306 1754.1 481.94 1753.89Q480.573 1753.67 479.219 1753.39Q477.864 1753.1 476.526 1752.75Q475.187 1752.4 473.867 1751.99Q472.547 1751.57 471.249 1751.09Q469.951 1750.61 468.678 1750.07Q467.405 1749.53 466.161 1748.92Q464.916 1748.32 463.703 1747.65Q462.489 1746.99 461.31 1746.26Q460.131 1745.54 458.989 1744.76Q457.847 1743.98 456.745 1743.14Q455.642 1742.3 454.582 1741.41Q453.522 1740.52 452.508 1739.58Q451.493 1738.64 450.525 1737.65Q449.558 1736.66 448.64 1735.63Q447.723 1734.59 446.857 1733.51Q445.992 1732.43 445.18 1731.31Q444.369 1730.19 443.614 1729.03Q442.859 1727.87 442.161 1726.68Q441.464 1725.48 440.826 1724.25Q440.188 1723.03 439.612 1721.77Q439.035 1720.51 438.521 1719.22Q438.007 1717.94 437.556 1716.63Q437.106 1715.32 436.721 1713.99Q436.335 1712.66 436.016 1711.32Q435.696 1709.97 435.443 1708.61Q435.19 1707.25 435.004 1705.88Q434.818 1704.51 434.7 1703.13Q434.582 1701.75 434.531 1700.37Q434.481 1698.99 434.499 1697.6Q434.516 1696.22 434.602 1694.84Q434.688 1693.46 434.841 1692.08Q434.995 1690.71 435.216 1689.34Q435.437 1687.97 435.725 1686.62Q436.012 1685.27 436.366 1683.93Q436.72 1682.59 437.14 1681.27Q437.559 1679.95 438.043 1678.66Q438.527 1677.36 439.073 1676.09Q439.62 1674.82 440.229 1673.58Q440.838 1672.33 441.507 1671.12Q442.176 1669.91 442.903 1668.73Q443.631 1667.56 444.416 1666.42Q445.201 1665.28 446.04 1664.18Q446.88 1663.08 447.773 1662.02Q448.666 1660.96 449.61 1659.95Q450.554 1658.94 451.546 1657.98Q452.538 1657.01 453.577 1656.1Q454.615 1655.18 455.698 1654.32Q456.78 1653.46 457.903 1652.65Q459.027 1651.84 460.188 1651.09Q461.35 1650.34 462.547 1649.64Q463.745 1648.95 464.975 1648.32Q466.205 1647.68 467.464 1647.11Q468.724 1646.54 470.01 1646.03Q471.296 1645.52 472.606 1645.07Q473.916 1644.62 475.246 1644.24Q476.576 1643.86 477.924 1643.55Q479.271 1643.23 480.632 1642.98Q481.993 1642.73 483.365 1642.55Z"/>
	<path fill="#FD8737" d="M483.194 1648.44Q484.421 1648.25 485.656 1648.12Q486.89 1648 488.13 1647.93Q489.369 1647.86 490.611 1647.86Q491.852 1647.85 493.092 1647.9Q494.332 1647.96 495.568 1648.07Q496.804 1648.19 498.033 1648.36Q499.262 1648.54 500.481 1648.78Q501.699 1649.01 502.905 1649.31Q504.111 1649.6 505.301 1649.96Q506.49 1650.31 507.661 1650.72Q508.832 1651.13 509.982 1651.6Q511.131 1652.07 512.256 1652.6Q513.381 1653.12 514.479 1653.7Q515.577 1654.28 516.645 1654.91Q517.713 1655.54 518.749 1656.23Q519.785 1656.91 520.786 1657.65Q521.787 1658.38 522.751 1659.16Q523.715 1659.95 524.639 1660.77Q525.564 1661.6 526.446 1662.48Q527.329 1663.35 528.168 1664.26Q529.006 1665.18 529.799 1666.13Q530.592 1667.09 531.337 1668.08Q532.082 1669.07 532.778 1670.1Q533.473 1671.13 534.117 1672.19Q534.762 1673.25 535.353 1674.34Q535.944 1675.44 536.482 1676.56Q537.019 1677.67 537.5 1678.82Q537.982 1679.96 538.407 1681.13Q538.832 1682.3 539.199 1683.48Q539.567 1684.67 539.875 1685.87Q540.184 1687.07 540.433 1688.29Q540.683 1689.5 540.872 1690.73Q541.062 1691.96 541.191 1693.19Q541.32 1694.43 541.388 1695.67Q541.457 1696.9 541.464 1698.15Q541.472 1699.39 541.419 1700.63Q541.365 1701.87 541.251 1703.1Q541.137 1704.34 540.963 1705.57Q540.788 1706.8 540.554 1708.02Q540.319 1709.24 540.025 1710.44Q539.731 1711.65 539.378 1712.84Q539.026 1714.03 538.615 1715.2Q538.204 1716.37 537.736 1717.52Q537.269 1718.67 536.745 1719.79Q536.222 1720.92 535.644 1722.02Q535.066 1723.12 534.434 1724.19Q533.803 1725.25 533.12 1726.29Q532.437 1727.33 531.704 1728.33Q530.971 1729.33 530.19 1730.3Q529.409 1731.26 528.582 1732.19Q527.754 1733.11 526.882 1733.99Q526.01 1734.88 525.096 1735.72Q524.182 1736.56 523.228 1737.35Q522.274 1738.15 521.282 1738.89Q520.29 1739.64 519.262 1740.33Q518.235 1741.03 517.174 1741.68Q516.114 1742.32 515.023 1742.91Q513.933 1743.51 512.814 1744.04Q511.696 1744.58 510.552 1745.07Q509.409 1745.55 508.243 1745.97Q507.077 1746.4 505.892 1746.77Q504.707 1747.14 503.505 1747.45Q502.303 1747.76 501.087 1748.01Q499.872 1748.26 498.645 1748.45Q497.417 1748.64 496.181 1748.77Q494.945 1748.9 493.704 1748.97Q492.463 1749.04 491.22 1749.05Q489.978 1749.06 488.736 1749.01Q487.494 1748.95 486.256 1748.84Q485.019 1748.73 483.788 1748.55Q482.557 1748.38 481.337 1748.15Q480.116 1747.91 478.909 1747.62Q477.701 1747.32 476.509 1746.97Q475.317 1746.62 474.144 1746.21Q472.971 1745.8 471.82 1745.33Q470.669 1744.86 469.542 1744.34Q468.415 1743.81 467.315 1743.23Q466.215 1742.66 465.144 1742.02Q464.074 1741.39 463.036 1740.71Q461.998 1740.02 460.995 1739.29Q459.992 1738.56 459.026 1737.77Q458.061 1736.99 457.134 1736.16Q456.208 1735.33 455.324 1734.46Q454.439 1733.59 453.599 1732.67Q452.758 1731.76 451.964 1730.8Q451.169 1729.85 450.422 1728.85Q449.676 1727.86 448.979 1726.83Q448.282 1725.8 447.636 1724.74Q446.99 1723.68 446.398 1722.58Q445.805 1721.49 445.267 1720.37Q444.728 1719.25 444.246 1718.11Q443.763 1716.96 443.337 1715.79Q442.911 1714.63 442.543 1713.44Q442.175 1712.25 441.866 1711.05Q441.556 1709.84 441.307 1708.63Q441.057 1707.41 440.867 1706.18Q440.677 1704.95 440.548 1703.72Q440.418 1702.48 440.35 1701.24Q440.281 1700 440.274 1698.75Q440.267 1697.51 440.32 1696.27Q440.374 1695.03 440.488 1693.79Q440.603 1692.55 440.778 1691.32Q440.953 1690.09 441.188 1688.87Q441.423 1687.65 441.718 1686.44Q442.013 1685.24 442.367 1684.04Q442.721 1682.85 443.133 1681.68Q443.545 1680.51 444.014 1679.36Q444.483 1678.21 445.008 1677.08Q445.533 1675.95 446.113 1674.85Q446.693 1673.75 447.326 1672.68Q447.959 1671.61 448.643 1670.58Q449.328 1669.54 450.063 1668.54Q450.798 1667.53 451.581 1666.57Q452.364 1665.6 453.194 1664.68Q454.023 1663.75 454.897 1662.87Q455.771 1661.99 456.688 1661.15Q457.604 1660.31 458.561 1659.51Q459.517 1658.72 460.512 1657.97Q461.506 1657.23 462.536 1656.53Q463.565 1655.84 464.628 1655.19Q465.691 1654.55 466.784 1653.95Q467.877 1653.36 468.998 1652.83Q470.119 1652.29 471.264 1651.81Q472.41 1651.33 473.578 1650.9Q474.747 1650.48 475.934 1650.11Q477.122 1649.74 478.326 1649.43Q479.53 1649.13 480.748 1648.88Q481.965 1648.63 483.194 1648.44Z"/>
	<path fill="#FD8737" d="M576.62 1721.42C581.59 1723.59 586.513 1730.19 590.645 1733.87C594.588 1737.38 633.332 1770.92 635.867 1771.27C635.678 1771.99 635.485 1772.69 635.26 1773.4C625.06 1805.59 600.569 1832.3 570.631 1847.57C564.081 1850.91 541.22 1861.66 534.502 1859.48C531.319 1862.41 525.564 1862.98 521.392 1863.68C514.044 1864.92 501.918 1866.43 495.577 1861.91C495.144 1861.27 494.875 1860.7 494.641 1859.96C491.467 1849.95 478.362 1802.58 479.461 1795.55C482.863 1773.75 568.154 1737.52 576.62 1721.42Z"/>
	<path fill="#FEFEFE" d="M893.158 1674.73C891.672 1675.48 890.181 1676.1 888.562 1676.49C855.729 1684.56 818.123 1675.7 789.861 1658.09Q788.407 1657.19 786.976 1656.26Q785.544 1655.33 784.137 1654.36Q782.729 1653.39 781.345 1652.39Q779.962 1651.39 778.604 1650.35Q777.246 1649.31 775.913 1648.24Q774.581 1647.17 773.276 1646.07Q771.971 1644.97 770.693 1643.83Q769.416 1642.7 768.167 1641.53Q766.917 1640.37 765.697 1639.17Q764.478 1637.97 763.288 1636.75Q762.098 1635.52 760.938 1634.27Q759.779 1633.01 758.651 1631.73Q757.523 1630.45 756.428 1629.14Q755.332 1627.82 754.269 1626.49Q753.206 1625.15 752.177 1623.79Q751.147 1622.42 750.152 1621.03Q749.156 1619.64 748.195 1618.23Q747.234 1616.82 746.309 1615.38Q745.383 1613.95 744.493 1612.49Q743.604 1611.03 742.75 1609.55Q741.897 1608.07 741.08 1606.57Q740.264 1605.07 739.485 1603.55Q738.706 1602.03 737.964 1600.49Q737.223 1598.95 736.52 1597.39Q735.817 1595.83 735.153 1594.26Q734.489 1592.69 733.863 1591.1Q733.238 1589.51 732.653 1587.9Q732.067 1586.3 731.522 1584.68Q730.976 1583.06 730.47 1581.43Q729.965 1579.79 729.5 1578.15Q729.035 1576.51 728.611 1574.85Q728.187 1573.2 727.804 1571.53Q727.417 1569.86 727.072 1568.18Q726.726 1566.5 726.422 1564.81Q726.118 1563.12 725.856 1561.43Q725.594 1559.74 725.373 1558.04Q725.153 1556.33 724.975 1554.63Q724.797 1552.92 724.661 1551.21Q724.525 1549.51 724.431 1547.79Q724.337 1546.08 724.286 1544.37Q724.234 1542.65 724.225 1540.94Q724.216 1539.22 724.249 1537.51Q724.282 1535.79 724.358 1534.08Q724.433 1532.37 724.551 1530.66Q724.669 1528.95 724.829 1527.24Q724.989 1525.53 725.191 1523.83Q725.393 1522.13 725.637 1520.43Q725.881 1518.73 726.167 1517.04Q726.453 1515.35 726.781 1513.67Q727.109 1511.98 727.478 1510.31Q727.847 1508.63 728.257 1506.97Q728.667 1505.3 729.119 1503.65Q729.57 1502 730.062 1500.35Q730.554 1498.71 731.086 1497.08Q731.619 1495.45 732.191 1493.83Q732.764 1492.22 733.376 1490.62Q733.988 1489.01 734.64 1487.43Q735.291 1485.84 735.982 1484.27Q736.673 1482.7 737.402 1481.15Q738.131 1479.6 738.898 1478.07Q739.665 1476.53 740.47 1475.02Q741.275 1473.5 742.117 1472.01Q742.959 1470.52 743.838 1469.04Q744.716 1467.57 745.631 1466.12Q746.925 1464.08 748.288 1462.09Q749.652 1460.1 751.084 1458.15Q752.516 1456.21 754.015 1454.31Q755.514 1452.42 757.077 1450.58Q758.641 1448.74 760.267 1446.95Q761.893 1445.17 763.581 1443.44Q765.268 1441.71 767.014 1440.05Q768.761 1438.38 770.564 1436.77Q772.367 1435.17 774.225 1433.62Q776.083 1432.08 777.993 1430.6Q779.903 1429.13 781.863 1427.72Q783.824 1426.3 785.832 1424.96Q787.84 1423.62 789.893 1422.35Q791.947 1421.08 794.043 1419.88Q796.139 1418.68 798.276 1417.56Q800.412 1416.43 802.587 1415.38Q804.761 1414.33 806.971 1413.36Q809.18 1412.38 811.422 1411.49Q813.664 1410.59 815.936 1409.77Q818.208 1408.95 820.507 1408.21Q822.805 1407.47 825.128 1406.81Q827.452 1406.15 829.796 1405.58Q832.141 1405 834.504 1404.5Q836.867 1404 839.246 1403.59Q841.625 1403.18 844.017 1402.85Q846.409 1402.51 848.811 1402.27Q851.213 1402.02 853.623 1401.85Q856.032 1401.69 858.445 1401.61Q860.859 1401.53 863.274 1401.53Q865.688 1401.53 868.102 1401.62Q870.515 1401.71 872.924 1401.88Q875.333 1402.05 877.734 1402.3C885.439 1403.1 902.851 1409.39 908.595 1407.89C908.785 1407.84 908.97 1407.77 909.157 1407.72L906.861 1406.95C913.809 1404.67 933.475 1415.35 941.842 1417.15L942.515 1417.74C948.39 1422.83 955.667 1426.02 961.626 1431.23C989.743 1455.81 1008.39 1491.49 1011.39 1528.83C1014.68 1569.82 1001.85 1607.75 975.323 1638.77C968.962 1646.2 946.16 1663.9 935.981 1664.54C935.264 1664.58 935.426 1664.58 934.842 1664.54C928.187 1672.48 905.22 1677.71 894.871 1678.48C893.7 1678.57 893.157 1678.36 892.139 1677.84C892.08 1676.29 892.378 1676.02 893.158 1674.73Z"/>
	<path fill="#1D165E" d="M909.157 1407.72L906.861 1406.95C913.809 1404.67 933.475 1415.35 941.842 1417.15L942.515 1417.74C948.39 1422.83 955.667 1426.02 961.626 1431.23C989.743 1455.81 1008.39 1491.49 1011.39 1528.83C1014.68 1569.82 1001.85 1607.75 975.323 1638.77C968.962 1646.2 946.16 1663.9 935.981 1664.54C935.264 1664.58 935.426 1664.58 934.842 1664.54C928.187 1672.48 905.22 1677.71 894.871 1678.48C893.7 1678.57 893.157 1678.36 892.139 1677.84C892.08 1676.29 892.378 1676.02 893.158 1674.73C902.318 1676.15 921.512 1666.88 928.903 1661.74C934.129 1660.22 939.901 1655.85 944.371 1652.76C972.701 1633.18 993.035 1600.31 999.052 1566.59L999.147 1565.87C999.206 1565.66 999.268 1565.44 999.324 1565.23C1001.65 1556.33 1001.84 1545.89 1001.53 1536.74C1000.29 1500.18 986.27 1467.13 960.409 1441.11C954.596 1435.27 940.619 1427.72 937.136 1421.37C937.057 1421.22 936.989 1421.07 936.916 1420.93C936.45 1421.03 936.241 1421.11 935.787 1421.1C933.209 1421.06 911.219 1410.11 909.157 1407.72Z"/>
	<path fill="#60DD9F" d="M847.557 1408.54Q850.797 1408.16 854.051 1407.94Q857.306 1407.72 860.567 1407.67Q863.828 1407.61 867.088 1407.71Q870.348 1407.81 873.6 1408.07Q876.851 1408.33 880.085 1408.76Q883.32 1409.18 886.529 1409.76Q889.739 1410.34 892.917 1411.08Q896.094 1411.81 899.231 1412.71Q902.369 1413.6 905.458 1414.64Q908.548 1415.69 911.582 1416.89Q914.617 1418.08 917.589 1419.43Q920.561 1420.77 923.463 1422.26Q926.365 1423.75 929.191 1425.38Q932.016 1427.01 934.759 1428.77Q937.501 1430.54 940.153 1432.44Q942.805 1434.34 945.36 1436.36Q947.915 1438.39 950.368 1440.54Q952.82 1442.69 955.164 1444.96Q957.508 1447.23 959.738 1449.61Q961.968 1451.99 964.077 1454.48Q966.187 1456.96 968.172 1459.55Q970.157 1462.14 972.013 1464.82Q973.868 1467.51 975.589 1470.28Q977.31 1473.05 978.893 1475.9Q980.476 1478.75 981.917 1481.68Q983.358 1484.6 984.653 1487.6Q985.948 1490.59 987.094 1493.64Q988.241 1496.7 989.236 1499.8Q990.231 1502.91 991.072 1506.06Q991.913 1509.21 992.598 1512.4Q993.283 1515.59 993.81 1518.81Q994.338 1522.03 994.706 1525.27Q995.075 1528.51 995.283 1531.77Q995.492 1535.02 995.541 1538.28Q995.589 1541.54 995.477 1544.81Q995.365 1548.07 995.093 1551.32Q994.821 1554.57 994.389 1557.8Q993.958 1561.03 993.368 1564.24Q992.778 1567.45 992.031 1570.62Q991.284 1573.8 990.381 1576.93Q989.479 1580.07 988.424 1583.16Q987.368 1586.24 986.163 1589.27Q984.957 1592.3 983.604 1595.27Q982.25 1598.24 980.752 1601.14Q979.255 1604.04 977.617 1606.86Q975.978 1609.68 974.203 1612.41Q972.428 1615.15 970.521 1617.8Q968.613 1620.44 966.578 1622.99Q964.543 1625.54 962.385 1627.99Q960.227 1630.43 957.951 1632.77Q955.675 1635.11 953.287 1637.33Q950.9 1639.55 948.405 1641.65Q945.911 1643.76 943.316 1645.73Q940.722 1647.71 938.033 1649.56Q935.344 1651.4 932.568 1653.12Q929.792 1654.83 926.935 1656.4Q924.078 1657.98 921.147 1659.41Q918.216 1660.84 915.218 1662.13Q912.22 1663.41 909.163 1664.55Q906.105 1665.69 902.996 1666.67Q899.886 1667.66 896.732 1668.49Q893.577 1669.32 890.386 1669.99Q887.195 1670.67 883.974 1671.18Q880.753 1671.7 877.511 1672.06Q874.282 1672.42 871.039 1672.62Q867.796 1672.81 864.547 1672.85Q861.299 1672.89 858.052 1672.77Q854.805 1672.65 851.568 1672.37Q848.331 1672.09 845.112 1671.66Q841.893 1671.22 838.698 1670.63Q835.504 1670.03 832.343 1669.28Q829.182 1668.53 826.061 1667.63Q822.94 1666.73 819.868 1665.67Q816.795 1664.62 813.778 1663.41Q810.76 1662.21 807.805 1660.86Q804.851 1659.5 801.966 1658.01Q799.081 1656.52 796.272 1654.88Q793.464 1653.25 790.739 1651.48Q788.014 1649.71 785.379 1647.81Q782.743 1645.91 780.204 1643.88Q777.666 1641.86 775.229 1639.71Q772.792 1637.56 770.464 1635.29Q768.135 1633.03 765.921 1630.65Q763.706 1628.27 761.61 1625.79Q759.515 1623.31 757.543 1620.73Q755.572 1618.14 753.729 1615.47Q751.886 1612.79 750.177 1610.03Q748.467 1607.27 746.895 1604.42Q745.323 1601.58 743.892 1598.66Q742.461 1595.75 741.174 1592.76Q739.888 1589.78 738.749 1586.74Q737.61 1583.69 736.622 1580.6Q735.633 1577.5 734.798 1574.36Q733.962 1571.22 733.281 1568.05Q732.6 1564.87 732.076 1561.66Q731.551 1558.46 731.184 1555.23Q730.817 1552 730.609 1548.76Q730.4 1545.52 730.351 1542.27Q730.302 1539.02 730.411 1535.77Q730.521 1532.53 730.79 1529.29Q731.058 1526.05 731.485 1522.83Q731.912 1519.61 732.496 1516.41Q733.08 1513.22 733.82 1510.05Q734.56 1506.89 735.454 1503.77Q736.348 1500.64 737.394 1497.57Q738.439 1494.49 739.635 1491.47Q740.83 1488.45 742.171 1485.49Q743.513 1482.53 744.998 1479.64Q746.483 1476.75 748.108 1473.94Q749.732 1471.12 751.493 1468.39Q753.254 1465.66 755.146 1463.02Q757.038 1460.38 759.057 1457.84Q761.076 1455.29 763.218 1452.85Q765.359 1450.4 767.618 1448.07Q769.876 1445.73 772.246 1443.51Q774.616 1441.29 777.093 1439.19Q779.569 1437.08 782.145 1435.1Q784.721 1433.12 787.391 1431.27Q790.061 1429.42 792.818 1427.7Q795.576 1425.99 798.414 1424.4Q801.252 1422.82 804.165 1421.38Q807.077 1419.94 810.056 1418.65Q813.036 1417.35 816.075 1416.2Q819.114 1415.06 822.206 1414.06Q825.298 1413.06 828.435 1412.21Q831.572 1411.37 834.746 1410.68Q837.921 1409.99 841.125 1409.45Q844.33 1408.92 847.557 1408.54Z"/>
	<path fill="#FEFEFE" d="M841.098 1433.26C877.584 1438.16 866.138 1463.54 880.215 1477.2C882.33 1478.25 883.808 1478.65 886.16 1478.17C893.532 1476.68 906.116 1467.72 910.051 1461.38C912.463 1472.58 926.364 1500.17 933.295 1509.59C935.7 1512.85 939.488 1512.18 941.166 1516.04C940.487 1517.85 939.455 1520.11 939.946 1522.06C941.652 1528.84 949.877 1545.62 956.018 1548.97C955.902 1549.14 955.782 1549.31 955.67 1549.48C955.244 1550.15 954.84 1550.81 954.345 1551.43C948.238 1559.09 878.101 1599.26 868.839 1600.31C868.181 1601.58 867.221 1602.8 866.149 1603.74C858.354 1610.64 827.777 1629.1 817.589 1628.71C811.771 1625.53 774.491 1552.49 771.248 1541.96C772.169 1542.17 772.994 1542.25 773.932 1542.03C781.769 1540.14 827.205 1513.1 831.026 1507.42C828.727 1493.77 825.878 1479.64 825.365 1465.79C824.592 1444.9 828.774 1446.82 840.626 1433.79L841.098 1433.26Z"/>
	<path fill="#60DD9F" d="M854.667 1501.43C869.829 1505.03 884.172 1563.89 899.543 1575.43C898.321 1577.45 896.63 1579.01 894.744 1580.41C886.199 1586.72 830.61 1620.41 823.199 1619.23L820.846 1622.05L819.359 1621.8C810.638 1607.77 783.314 1558.09 779.571 1544.17C780.233 1544.11 780.893 1544.04 781.547 1543.92C790.802 1542.23 850.389 1507.7 854.667 1501.43Z"/>
	<path fill="#60DD9F" d="M842.373 1439.16C873.544 1445.01 865.149 1477.16 879.669 1485.67C881.088 1486.5 883.538 1486.47 885.108 1486.05C891.558 1484.29 903.069 1475.95 906.506 1470.3C908.566 1476.37 913.328 1481.24 915.24 1487.38C916.485 1491.37 913.251 1492.8 911.568 1496.04C913.993 1499.69 917.61 1498.55 920.912 1501.3C924.844 1504.58 927.191 1510.88 930.32 1515.03C928.644 1518.07 925.346 1520.08 923.295 1523.06L924.066 1524.89C927.488 1525.47 930.28 1523.39 933.812 1523.21C939.764 1530.2 940.38 1541.24 947.363 1547.85C943.921 1552.37 939.652 1554.15 934.516 1556.33C933.596 1557.88 932.031 1559.16 930.58 1560.22C924.668 1564.54 912.11 1573.07 904.712 1571.79C897.373 1565.46 864.774 1502.77 860.864 1490.84C860.342 1491.69 859.788 1492.48 859.123 1493.22C854.909 1497.93 843.347 1504.74 837.075 1504.97C832.739 1494.08 831.968 1477.41 831.504 1465.65C830.871 1449.62 832.379 1449.92 842.373 1439.16Z"/>
	<path fill="#FD8737" d="M715.015 1181.33C720.269 1183.26 726.723 1186.98 730.352 1191.3C733.732 1195.33 735.573 1200.36 734.953 1205.64C734.393 1210.41 732.021 1214.92 728.152 1217.82C724.924 1220.25 720.249 1222.19 716.177 1221.68L716.144 1222.15C712.509 1272.13 695.274 1323.12 670.047 1366.14C665.496 1373.9 659.609 1384.74 652.82 1390.6C653.974 1394.35 655.172 1398.15 655.655 1402.06C656.396 1408.06 655.267 1413.35 651.407 1418.08C645.217 1425.66 633.35 1420.01 625.284 1424.36C613.642 1430.64 604.546 1441.97 593.774 1449.83C571.952 1465.76 513.001 1495.61 485.614 1497.77C483.197 1497.96 482.383 1497.91 480.563 1496.38L482.495 1493.54C483.426 1493.8 484.066 1493.99 485.043 1493.93C491.75 1493.54 500.543 1490.61 507.012 1488.75C549.043 1476.66 594.951 1452.55 624.354 1419.78C623.725 1419.52 624.05 1419.7 623.3 1419.04C619.544 1415.76 617.529 1411.68 617.287 1406.66C617.017 1401.06 619.081 1394.41 622.941 1390.27C634.627 1377.74 639.915 1388.83 650.476 1388.08C650.624 1388.07 650.771 1388.05 650.918 1388.04C651.788 1387.58 652.398 1387.25 653.11 1386.56C657.772 1382.03 661.622 1374.8 665.166 1369.32C691.538 1328.54 710.377 1273.53 713.379 1224.67C709.839 1222.75 706.244 1220.64 703.178 1218.01C699.116 1214.53 696.115 1209.71 695.768 1204.29C694.587 1185.78 707.992 1190.13 714.733 1181.72C714.833 1181.59 714.921 1181.46 715.015 1181.33Z"/>
	<path fill="#60DD9F" d="M462.861 891.319C463.979 891.096 465.048 890.973 466.188 890.914C476.067 890.403 488.079 894.103 497.554 896.677C546.768 910.051 587.952 935.042 625.564 969.219C630.28 968.06 635.035 966.546 639.933 967.254C644.266 967.879 648.365 969.62 650.964 973.278C656.301 980.794 654.021 989.89 652.446 998.156C661.714 1013.53 672.131 1028.32 680.89 1043.99C692.085 1064 700.521 1086.73 706.813 1108.76C709.964 1119.79 721.547 1172.48 716.628 1181.34C715.002 1179.36 714.85 1177.61 714.625 1175.17L714.544 1174.23C711.337 1166.55 711.937 1144.98 709.853 1134.97C698.542 1080.62 680.391 1044.93 648.43 999.915C645.663 1002.37 642.938 1004.94 639.297 1005.95C634.875 1007.19 630.002 1006.76 626.043 1004.36C621.459 1001.59 618.564 996.769 617.394 991.627C615.478 983.207 618.017 978.188 622.389 971.282C597.493 944.261 555.442 920.423 520.759 907.806C511.556 904.458 501.923 901.672 492.43 899.306C486.727 897.885 468.612 895.555 464.932 893.316C464.245 892.898 463.462 891.899 462.861 891.319Z"/>
	<path fill="#60DD9F" d="M398.517 886.917C403.779 880.735 408.112 873.974 416.886 873.168C422.175 872.683 427.306 873.797 431.401 877.315C435.711 881.018 438.202 886.617 438.511 892.246Q438.54 892.754 438.544 893.262Q438.548 893.771 438.528 894.279Q438.507 894.787 438.462 895.294Q438.417 895.801 438.348 896.305Q438.278 896.808 438.184 897.308Q438.09 897.808 437.972 898.303Q437.854 898.797 437.712 899.286Q437.57 899.774 437.405 900.255Q437.239 900.736 437.051 901.209Q436.862 901.681 436.651 902.144Q436.44 902.606 436.207 903.058Q435.973 903.51 435.718 903.95Q435.463 904.39 435.187 904.818Q434.911 905.245 434.615 905.658Q434.318 906.071 434.002 906.47Q433.686 906.868 433.351 907.251C430.285 910.684 426.085 912.458 421.52 912.63C415.895 912.841 409.699 910.682 405.59 906.811C401.264 902.735 399.436 897.021 397.799 891.473C355.411 889.329 283.211 920.107 248.261 943.725C237.748 950.829 225.496 965.762 214.026 969.692L212.845 969.095C247.999 932.756 299.046 907.908 348.025 895.966C364.548 891.938 381.745 889.801 398.517 886.917Z"/>
	<path fill="#FD8737" d="M212.845 969.095L214.026 969.692C216.643 975.65 219.865 982.415 220.514 988.922C221.011 993.902 220.181 999.195 216.878 1003.13C213.602 1007.03 208.7 1008.7 203.751 1009.05C196.473 1009.57 192.268 1007.55 186.885 1002.86C179.779 1014.72 171.406 1025.79 164.342 1037.66C153.386 1056.08 145.186 1076.78 138.816 1097.23C136.75 1103.87 134.793 1110.64 133.307 1117.43C131.638 1125.06 127.661 1158.6 123.938 1162.18C122.935 1156.92 125.182 1149.64 125.863 1144.29C130.606 1107 141.543 1072.82 160.051 1039.99C166.616 1028.35 178.128 1015.67 182.323 1003.59L182.53 1002.98C184.418 997.572 181.187 991.915 180.92 986.362C180.725 982.317 181.629 978.397 184.484 975.389C191.601 967.891 203.467 969.289 212.845 969.095Z"/>
	<path fill="#60DD9F" d="M118.681 1186.25C121.883 1186.48 125.325 1186.59 128.452 1187.34C133.357 1188.51 138.446 1192.75 140.953 1197.07Q141.234 1197.56 141.49 1198.05Q141.746 1198.55 141.977 1199.06Q142.208 1199.57 142.412 1200.1Q142.617 1200.62 142.795 1201.15Q142.973 1201.68 143.124 1202.22Q143.275 1202.76 143.399 1203.31Q143.523 1203.86 143.619 1204.41Q143.715 1204.96 143.783 1205.52Q143.851 1206.08 143.891 1206.63Q143.931 1207.19 143.942 1207.75Q143.954 1208.32 143.937 1208.88Q143.921 1209.44 143.876 1210Q143.831 1210.55 143.758 1211.11Q143.685 1211.67 143.585 1212.22Q143.484 1212.77 143.355 1213.32Q143.227 1213.86 143.071 1214.4C141.757 1218.9 138.892 1223.21 134.65 1225.42C131.517 1227.06 128.849 1227.73 125.409 1226.68L124.79 1230.81L124.076 1231.09L120.565 1227.94C115.287 1227.01 110.594 1225.64 107.102 1221.29C103.728 1217.08 102.594 1211.22 103.263 1205.95C104.573 1195.64 111.198 1192.12 118.681 1186.25Z"/>
	<path fill="#60DD9F" d="M424.051 1482.76L418.908 1481.84L418.582 1481.01C420.781 1480.28 422.926 1479.92 425.093 1480.98C427.68 1482.25 430.163 1483.91 432.6 1485.45C434.876 1484.32 433.447 1482.89 436.266 1483.19C440.273 1486.34 442.839 1489.51 443.43 1494.73C444.001 1499.79 442.559 1506.05 439.31 1510.04C438.573 1510.95 437.623 1511.55 436.59 1512.06C435.009 1510.94 435.233 1510.7 434.901 1508.87C433.744 1511.36 432.113 1514.13 430.06 1516.01C426.276 1519.46 421.268 1520.83 416.216 1520.49C411.259 1520.16 406.292 1517.81 403.073 1514C400.132 1510.52 398.915 1506.02 399.344 1501.51C400.247 1492.03 406.366 1487.19 413.228 1481.6C413.451 1481.75 413.669 1481.91 413.899 1482.04C417.036 1483.91 420.68 1483.48 424.051 1482.76Z"/>
	<path fill="#1D165E" d="M424.051 1482.76L418.908 1481.84L418.582 1481.01C420.781 1480.28 422.926 1479.92 425.093 1480.98C427.68 1482.25 430.163 1483.91 432.6 1485.45C434.876 1484.32 433.447 1482.89 436.266 1483.19C440.273 1486.34 442.839 1489.51 443.43 1494.73C444.001 1499.79 442.559 1506.05 439.31 1510.04C438.573 1510.95 437.623 1511.55 436.59 1512.06C435.009 1510.94 435.233 1510.7 434.901 1508.87C436.65 1506.54 437.732 1503.26 437.78 1500.34C437.918 1491.83 429.414 1488.47 424.475 1483.22C424.332 1483.07 424.192 1482.92 424.051 1482.76Z"/>
	<path fill="#FD8737" d="M197.595 1383.25C199.786 1383.41 202.034 1383.56 204.191 1383.98C209.482 1385.03 214.355 1388.85 217.186 1393.36Q217.452 1393.79 217.696 1394.23Q217.94 1394.67 218.162 1395.12Q218.384 1395.58 218.584 1396.04Q218.783 1396.5 218.96 1396.98Q219.136 1397.45 219.29 1397.93Q219.443 1398.41 219.572 1398.9Q219.701 1399.38 219.807 1399.88Q219.912 1400.37 219.993 1400.87Q220.074 1401.37 220.13 1401.87Q220.186 1402.37 220.218 1402.87Q220.249 1403.38 220.256 1403.88Q220.263 1404.38 220.245 1404.89Q220.227 1405.39 220.184 1405.9Q220.142 1406.4 220.074 1406.9Q220.007 1407.4 219.915 1407.89Q219.823 1408.39 219.707 1408.88C218.729 1413.07 216.176 1416.9 212.479 1419.15C209.361 1421.05 207.106 1421.78 203.504 1420.96C201.345 1422.73 198.345 1423.08 195.641 1422.84C192.169 1422.54 189.241 1420.79 187.075 1418.09C179.328 1408.45 183.336 1401.16 184.553 1390.44L184.638 1389.66C188.883 1387.99 194.327 1386.51 197.595 1383.25Z"/>
</svg>
