<?xml version="1.0" encoding="utf-8" ?>
<svg xmlns="http://www.w3.org/2000/svg" xmlns:xlink="http://www.w3.org/1999/xlink" width="1024" height="1024" viewBox="0 0 1088 687.962">
	<path fill="#FEFEFE" d="M0 0L1024 0L1024 1024L0 1024L0 0Z"/>
	<path d="M688.136 126.558C710.052 92.893 743.416 71.1737 782.462 62.893Q784.351 62.5071 786.249 62.1674Q788.146 61.8277 790.052 61.5344Q791.957 61.2412 793.869 60.9946Q795.781 60.748 797.699 60.5482Q799.616 60.3483 801.538 60.1954Q803.46 60.0425 805.385 59.9365Q807.31 59.8306 809.237 59.7717Q811.164 59.7128 813.092 59.701Q815.02 59.6892 816.947 59.7245Q818.875 59.7597 820.801 59.8421Q822.727 59.9244 824.651 60.0538Q826.574 60.1832 828.494 60.3595Q830.414 60.5358 832.329 60.759Q834.244 60.9822 836.153 61.252Q838.062 61.5219 839.964 61.8383Q841.865 62.1547 843.759 62.5175Q845.652 62.8803 847.536 63.2892Q849.42 63.6981 851.294 64.1529Q853.167 64.6077 855.029 65.1081Q856.891 65.6086 858.74 66.1543Q860.589 66.7001 862.424 67.2908Q864.259 67.8816 866.079 68.517Q867.9 69.1524 869.704 69.8321Q871.508 70.5117 873.295 71.2353Q875.082 71.9588 876.851 72.7258Q878.619 73.4928 880.369 74.3027Q882.118 75.1127 883.848 75.9651Q885.577 76.8175 887.285 77.712Q888.993 78.6064 890.678 79.5422Q892.364 80.4781 894.026 81.4548Q895.688 82.4316 897.326 83.4487Q898.963 84.4657 900.576 85.5225Q902.218 86.5982 903.833 87.714Q905.448 88.8297 907.036 89.985Q908.623 91.1402 910.181 92.3342Q911.739 93.5281 913.268 94.7601Q914.796 95.9921 916.294 97.2614Q917.791 98.5307 919.257 99.8364Q920.723 101.142 922.156 102.484Q923.589 103.825 924.989 105.202Q926.389 106.578 927.754 107.988Q929.12 109.399 930.45 110.842Q931.78 112.286 933.074 113.762Q934.369 115.238 935.626 116.745Q936.884 118.253 938.104 119.791Q939.324 121.329 940.506 122.896Q941.688 124.464 942.83 126.06Q943.973 127.656 945.076 129.28Q946.18 130.904 947.242 132.554Q948.305 134.205 949.327 135.881Q950.349 137.557 951.329 139.258Q952.309 140.959 953.247 142.683Q954.186 144.407 955.081 146.154Q955.976 147.901 956.828 149.67Q957.68 151.439 958.488 153.228Q959.297 155.017 960.06 156.825Q960.824 158.633 961.543 160.46Q962.262 162.287 962.936 164.13Q963.61 165.974 964.238 167.834Q964.867 169.694 965.449 171.569Q966.031 173.443 966.567 175.332Q967.103 177.221 967.592 179.122Q968.082 181.023 968.524 182.935Q968.966 184.848 969.361 186.771C973.714 207.502 973.409 241.797 966.187 261.826L965.791 262.683C963.22 268.369 962.055 274.721 959.549 280.473C951.375 299.232 934.588 324.515 917.516 335.952C915.229 339.099 911.227 341.627 908.093 343.949C889.504 357.719 866.852 368.091 843.98 371.659Q839.539 372.393 835.056 372.809L834.933 450.111C834.965 461.367 836.224 482.277 834.077 492.732Q833.88 493.668 833.614 494.588Q833.348 495.507 833.015 496.404Q832.681 497.301 832.282 498.17Q831.882 499.04 831.419 499.877Q830.957 500.715 830.433 501.516Q829.909 502.316 829.327 503.076Q828.745 503.836 828.108 504.55Q827.471 505.264 826.783 505.929C823.28 509.286 819.064 511.183 814.645 513.017C822.114 515.501 828.871 518.754 832.473 526.269C833.627 528.677 834.451 531.347 834.545 534.02L832.311 534.026C820.317 534.58 808.08 534.061 796.063 534.024L727.111 533.841C715.323 533.822 703.202 533.254 691.456 534.107C691.27 536.989 690.941 539.788 690.488 542.641C690.194 547.27 689.088 551.906 688.079 556.428C686.235 564.061 684.293 571.697 681.735 579.129L725.373 579.177C738.322 579.029 753.084 576.875 763.209 586.761C764.93 588.441 766.617 590.357 767.812 592.444L765.266 592.886C760.088 586.586 754.699 582.542 746.279 581.722C738.47 580.96 730.263 581.445 722.41 581.475L680.437 581.688C678.501 586.926 676.66 592.577 673.773 597.37C672.433 600.573 670.672 603.543 668.958 606.556C663.931 615.163 658.324 623.57 651.958 631.253C647.299 636.672 642.376 641.581 637.016 646.314C627.851 655.176 616.188 664.66 604.638 670.312C601.468 672.165 598.296 673.965 595.025 675.636C591.577 677.345 584.538 681.829 580.832 681.473C580.173 686.291 580.46 691.333 580.472 696.191L580.426 723.978C580.385 731.518 579.508 740.195 581.304 747.526Q581.566 748.569 581.898 749.591Q582.23 750.614 582.63 751.611Q583.03 752.609 583.497 753.578Q583.963 754.546 584.494 755.481Q585.025 756.416 585.618 757.312Q586.21 758.209 586.862 759.064Q587.514 759.919 588.222 760.728Q588.93 761.537 589.691 762.296C595.561 768.205 602.913 770.644 611.092 770.943L611.013 773.303C601.854 772.732 594.293 770.396 587.82 763.633C578.79 754.199 577.927 743.78 578.222 731.367C577.921 715.253 578.13 699.098 578.035 682.977C572.578 684.703 567.131 686.286 561.583 687.692C544.918 691.855 528.745 693.235 511.634 692.745C505.073 692.965 498.559 692.78 492.002 692.53Q486.065 692.128 480.166 691.343Q474.268 690.558 468.432 689.394Q462.596 688.229 456.848 686.689Q451.1 685.15 445.464 683.242Q445.437 704.192 445.626 725.14C445.67 732.487 446.41 740.627 445.232 747.857C444.506 752.316 442.86 756.016 440.719 759.934C441.772 768.874 441.459 778.419 441.443 787.441C441.415 803.289 441.079 819.135 441.42 834.982L588.642 835.05L634.908 835.075C642.353 835.078 649.89 834.789 657.323 835.078C658.974 835.142 660.493 835.256 662.002 835.952L662.099 836.829C660.512 837.717 658.136 837.596 656.325 837.641C638.364 838.084 620.23 837.561 602.252 837.555C548.71 837.537 495.067 836.836 441.537 837.605C440.981 858.307 441.346 879.164 441.518 899.877L376.482 899.966C362.893 899.962 349.186 899.628 335.61 900.238C328.957 908.899 322.242 917.164 314.253 924.649C313.702 926.01 313.561 926.102 312.231 926.823C312.166 926.858 312.092 926.875 312.023 926.902C288.469 946.644 265.326 959.302 234.648 964.211C193.367 970.817 152.934 960.032 119.375 935.422C109.888 928.465 102.38 920.391 94.8466 911.456C70.9703 883.135 63.2603 861.665 57.6708 825.34C55.7341 825.434 53.8618 825.386 51.9275 825.258C52.2994 796.219 51.715 767.147 51.7342 738.1Q52.1449 663.816 51.6601 589.533L142.987 589.592L172.716 589.686C178.599 589.694 184.634 589.974 190.486 589.401C190.444 573.064 189.385 553.626 190.627 537.663C191.809 532.776 193.611 528.814 196.338 524.612C200.925 518.889 205.532 515.948 212.091 512.867Q209.944 512.455 207.927 511.612C200.324 508.404 195.168 501.865 192.086 494.433C192.566 493.594 193.12 493.101 193.81 492.434C196.888 500.091 201.228 506.087 209.131 509.459C219.457 513.864 231.445 511.344 242.343 511.992C255.56 511.328 269.005 511.799 282.245 511.783C289.942 511.774 298.647 510.976 306.247 511.91C314.273 511.215 322.689 511.677 330.762 511.644C330.811 507.562 330.953 503.517 331.239 499.445C331.526 495.209 331.552 490.234 332.854 486.18C333.869 472.692 338.384 458.328 342.699 445.562C343.699 445.726 344.388 445.888 345.27 446.394L345.791 445.974C345.666 444.704 345.856 444.499 344.969 443.509C343.996 443.653 342.99 443.912 342.046 443.534C341.897 443.474 341.768 443.376 341.63 443.296L343.229 442.966C344.664 441.727 345.259 439.651 345.978 437.935C346.642 436.305 347.365 434.832 348.283 433.33C350.104 428.488 352.782 423.701 355.52 419.323C360.355 409.971 367.791 400.88 374.786 393.019C391.452 374.223 408.056 362.335 430.228 350.491C433.265 348.892 436.534 347.2 439.809 346.18C440.709 345.788 441.832 345.37 442.569 344.715C444.64 342.877 443.936 337.565 443.955 334.981L446.101 338.673C446.176 340.113 446.339 341.273 446.723 342.662C452.792 341.486 458.465 338.715 464.484 337.284C476.905 334.331 489.537 333.092 502.199 331.723C528.65 329.972 556.619 334.929 581.365 344.274C582.099 292.384 581.751 240.318 581.317 188.426L662.298 188.478L663.025 185.983C666.412 165.752 676.481 143.392 688.136 126.558Z"/>
	<path fill="#5EE4A1" d="M255.389 589.707C255.832 589.915 256.293 590.161 256.782 590.245C258.039 590.461 258.928 589.975 259.94 589.327C263.643 590.879 337.262 590.347 346.13 590.053C350.598 599.191 355.033 608.419 360.523 617C373.49 637.267 392.868 655.424 413.339 667.922C418 670.767 422.908 673.29 427.835 675.637C430.933 677.112 436.022 678.558 438.524 680.631C437.651 683.606 437.979 745.951 438.426 753.664C438.494 754.84 438.663 755.583 439.215 756.609C435.776 763.135 430.351 767.69 423.309 769.925C416.19 772.184 408.338 771.585 400.963 771.599C387.36 771.625 372.077 770.639 358.654 772.04L359.412 774.063L396.038 774.042C402.9 774.051 409.987 774.408 416.824 773.821C427.795 772.879 433.885 768.065 440.719 759.934C441.772 768.874 441.459 778.419 441.443 787.441C441.415 803.289 441.079 819.135 441.42 834.982L588.642 835.05L634.908 835.075C642.353 835.078 649.89 834.789 657.323 835.078C658.974 835.142 660.493 835.256 662.002 835.952L662.099 836.829C660.512 837.717 658.136 837.596 656.325 837.641C638.364 838.084 620.23 837.561 602.252 837.555C548.71 837.537 495.067 836.836 441.537 837.605C440.981 858.307 441.346 879.164 441.518 899.877L376.482 899.966C362.893 899.962 349.186 899.628 335.61 900.238C328.957 908.899 322.242 917.164 314.253 924.649C313.702 926.01 313.561 926.102 312.231 926.823C312.166 926.858 312.092 926.875 312.023 926.902C288.469 946.644 265.326 959.302 234.648 964.211C193.367 970.817 152.934 960.032 119.375 935.422C109.888 928.465 102.38 920.391 94.8466 911.456C70.9703 883.135 63.2603 861.665 57.6708 825.34C55.7341 825.434 53.8618 825.386 51.9275 825.258C52.2994 796.219 51.715 767.147 51.7342 738.1Q52.1449 663.816 51.6601 589.533L142.987 589.592L172.716 589.686C178.599 589.694 184.634 589.974 190.486 589.401L193.018 589.441C208.086 590.674 223.886 589.756 239.013 589.649C244.32 589.611 250.175 588.974 255.389 589.707Z"/>
	<path d="M175.885 759.898C169.99 752.378 163.353 744.123 163.223 734.065C163.149 728.259 164.863 722.335 169.037 718.152C173.409 713.772 177.861 713.583 183.177 711.358C186.105 710.133 188.922 707.963 191.677 706.355C199.174 701.978 207.283 699.519 215.996 699.483C230.526 699.424 244.246 704.632 254.509 714.992C261.093 721.638 266.44 730.12 268.911 739.193C272.202 751.281 270.902 765.947 270.917 778.458L270.934 821.344C280.761 821.809 290.067 825.855 297.453 832.281C313.97 846.653 313.975 862.654 313.995 882.879C314.009 896.454 313.214 910.531 314.203 924.034L314.253 924.649C313.702 926.01 313.561 926.102 312.231 926.823C312.166 926.858 312.092 926.875 312.023 926.902C287.811 926.042 263.436 926.5 239.206 926.496L113.604 926.462C113.225 919.338 113.434 912.084 113.372 904.945C113.274 893.646 113.058 882.339 113.09 871.039C113.13 856.707 116.015 843.404 126.609 833.022C141.405 818.524 159.541 820.847 178.559 820.984C178.799 808.102 179.454 794.703 178.466 781.859C177.881 774.264 175.613 767.723 175.885 759.898Z"/>
	<path fill="#FFF46B" d="M149.89 823.642C155.755 822.99 161.888 823.288 167.792 823.296L197.474 823.369C199.219 826.635 201.104 829.45 204.123 831.708Q204.476 831.976 204.842 832.225Q205.207 832.475 205.586 832.705Q205.964 832.936 206.353 833.146Q206.743 833.357 207.143 833.548Q207.542 833.738 207.951 833.908Q208.361 834.078 208.778 834.226Q209.195 834.375 209.619 834.502Q210.043 834.629 210.474 834.734Q210.904 834.839 211.339 834.922Q211.774 835.005 212.213 835.065Q212.651 835.126 213.092 835.164Q213.534 835.202 213.976 835.217Q214.419 835.232 214.862 835.225Q215.304 835.218 215.746 835.188Q216.188 835.157 216.628 835.105Q217.068 835.052 217.504 834.977C224.407 833.728 228.681 828.927 232.483 823.487C241.79 823.35 251.113 823.354 260.421 823.369C275.054 823.392 287.374 825.261 298.094 836.155Q299.188 837.278 300.205 838.471Q301.223 839.664 302.159 840.922Q303.095 842.18 303.946 843.497Q304.797 844.814 305.558 846.184Q306.32 847.555 306.99 848.972Q307.659 850.39 308.233 851.849Q308.807 853.308 309.283 854.802Q309.76 856.296 310.136 857.818C312.455 867.232 311.554 877.847 311.57 887.506L311.517 924.475C304.264 924.56 297.004 924.498 289.75 924.508L115.571 924.415L115.543 884.698C115.542 875.724 114.892 866.199 116.571 857.364Q116.99 855.093 117.641 852.877Q118.292 850.661 119.169 848.524Q120.046 846.388 121.14 844.353Q122.233 842.318 123.531 840.408C129.737 831.422 139.223 825.646 149.89 823.642Z"/>
	<path fill="#FEFEFE" d="M211.8 702.156C213.107 702.03 214.396 701.96 215.71 701.954C229.821 701.897 243.054 706.794 253.099 716.84C270.736 734.479 268.535 756.69 268.597 779.588L268.662 821.201C257.112 820.828 245.533 820.991 233.978 820.999L233.874 800.256C243.651 790.985 249.475 782.37 253.737 769.568C254.139 767.485 254.498 765.392 254.878 763.305C233.588 754.404 221.191 736.999 209.111 718.217C194.662 730.781 186.939 741.899 177.497 758.315C173.04 752.422 168.171 746.315 166.323 739.008C164.938 733.527 165.57 727.272 168.701 722.479C172.621 716.477 179.018 714.751 185.601 713.418C190.72 707.38 204.224 703.267 211.8 702.156Z"/>
	<path fill="#FEFEFE" d="M208.393 722.367C210.304 723.121 219.415 737.696 221.738 740.657C230.142 751.373 240.454 758.624 252.321 764.984C251.73 767.899 251.046 770.706 250.016 773.502C244.898 787.395 234.801 798.559 221.375 804.745C218.414 805.748 215.526 806.324 212.385 806.032C202.969 805.154 194.717 798.301 188.842 791.343C182.786 784.171 177.045 774.095 178.195 764.329C179.545 752.869 199.704 729.28 208.393 722.367Z"/>
	<path fill="#FEFEFE" d="M230.777 802.442C230.843 802.494 230.927 802.53 230.974 802.6C232.202 804.426 231.777 815.691 231.423 818.24C230.83 822.507 228.18 826.514 224.76 829.066C221.202 831.72 216.669 833.043 212.25 832.373C207.584 831.667 204.692 829.257 201.901 825.625C197.72 818.6 198.431 811.383 198.495 803.544C201.825 805.366 205.068 807.01 208.797 807.857C217.253 809.777 223.768 806.749 230.777 802.442Z"/>
	<path fill="#FEFEFE" d="M181.069 784.85C181.655 785.349 181.44 785.103 181.893 785.751C186.094 791.773 190.583 796.886 196.111 801.728C196.253 808.214 196.251 814.621 196.88 821.087L181.106 821.091L181.069 784.85Z"/>
	<path fill="#5EE4A1" d="M51.6601 589.533L142.987 589.592L172.716 589.686C178.599 589.694 184.634 589.974 190.486 589.401L190.475 632.048C190.477 639.011 191.157 646.84 190.163 653.702C190.135 653.542 190.105 653.382 190.079 653.222C189.686 650.826 189.686 648.466 189.669 646.048L189.492 646.065C189.007 648.245 189.972 650.555 188.945 652.538C185.417 653.79 181.656 654.17 178.047 655.168C170.546 657.242 163.111 659.837 155.838 662.6C117.727 677.082 89.1118 704.977 71.6726 741.577C64.5287 756.57 58.9137 774.283 58.0226 791.038Q56.8913 802.267 56.9571 813.552C56.964 817.073 57.9814 821.293 57.3416 824.668Q54.6404 825.017 51.9275 825.258C52.2994 796.219 51.715 767.147 51.7342 738.1Q52.1449 663.816 51.6601 589.533Z"/>
	<path d="M441.42 834.982L588.642 835.05L634.908 835.075C642.353 835.078 649.89 834.789 657.323 835.078C658.974 835.142 660.493 835.256 662.002 835.952L662.099 836.829C660.512 837.717 658.136 837.596 656.325 837.641C638.364 838.084 620.23 837.561 602.252 837.555C548.71 837.537 495.067 836.836 441.537 837.605Q401.019 837.878 360.5 837.61L360.966 835.188C387.735 834.539 414.638 834.921 441.42 834.982Z"/>
	<path d="M190.486 589.401L193.018 589.441L192.936 633.029C192.927 639.214 193.807 647.025 192.619 653.043C191.756 653.466 191.116 653.604 190.163 653.702C191.157 646.84 190.477 639.011 190.475 632.048L190.486 589.401Z"/>
	<path fill="#5EE4A1" d="M688.136 126.558C710.052 92.893 743.416 71.1737 782.462 62.893Q784.351 62.5071 786.249 62.1674Q788.146 61.8277 790.052 61.5344Q791.957 61.2412 793.869 60.9946Q795.781 60.748 797.699 60.5482Q799.616 60.3483 801.538 60.1954Q803.46 60.0425 805.385 59.9365Q807.31 59.8306 809.237 59.7717Q811.164 59.7128 813.092 59.701Q815.02 59.6892 816.947 59.7245Q818.875 59.7597 820.801 59.8421Q822.727 59.9244 824.651 60.0538Q826.574 60.1832 828.494 60.3595Q830.414 60.5358 832.329 60.759Q834.244 60.9822 836.153 61.252Q838.062 61.5219 839.964 61.8383Q841.865 62.1547 843.759 62.5175Q845.652 62.8803 847.536 63.2892Q849.42 63.6981 851.294 64.1529Q853.167 64.6077 855.029 65.1081Q856.891 65.6086 858.74 66.1543Q860.589 66.7001 862.424 67.2908Q864.259 67.8816 866.079 68.517Q867.9 69.1524 869.704 69.8321Q871.508 70.5117 873.295 71.2353Q875.082 71.9588 876.851 72.7258Q878.619 73.4928 880.369 74.3027Q882.118 75.1127 883.848 75.9651Q885.577 76.8175 887.285 77.712Q888.993 78.6064 890.678 79.5422Q892.364 80.4781 894.026 81.4548Q895.688 82.4316 897.326 83.4487Q898.963 84.4657 900.576 85.5225Q902.218 86.5982 903.833 87.714Q905.448 88.8297 907.036 89.985Q908.623 91.1402 910.181 92.3342Q911.739 93.5281 913.268 94.7601Q914.796 95.9921 916.294 97.2614Q917.791 98.5307 919.257 99.8364Q920.723 101.142 922.156 102.484Q923.589 103.825 924.989 105.202Q926.389 106.578 927.754 107.988Q929.12 109.399 930.45 110.842Q931.78 112.286 933.074 113.762Q934.369 115.238 935.626 116.745Q936.884 118.253 938.104 119.791Q939.324 121.329 940.506 122.896Q941.688 124.464 942.83 126.06Q943.973 127.656 945.076 129.28Q946.18 130.904 947.242 132.554Q948.305 134.205 949.327 135.881Q950.349 137.557 951.329 139.258Q952.309 140.959 953.247 142.683Q954.186 144.407 955.081 146.154Q955.976 147.901 956.828 149.67Q957.68 151.439 958.488 153.228Q959.297 155.017 960.06 156.825Q960.824 158.633 961.543 160.46Q962.262 162.287 962.936 164.13Q963.61 165.974 964.238 167.834Q964.867 169.694 965.449 171.569Q966.031 173.443 966.567 175.332Q967.103 177.221 967.592 179.122Q968.082 181.023 968.524 182.935Q968.966 184.848 969.361 186.771C973.714 207.502 973.409 241.797 966.187 261.826L965.791 262.683C963.22 268.369 962.055 274.721 959.549 280.473C951.375 299.232 934.588 324.515 917.516 335.952C915.229 339.099 911.227 341.627 908.093 343.949C889.504 357.719 866.852 368.091 843.98 371.659Q839.539 372.393 835.056 372.809L832.527 373.027C811.996 374.831 791.789 372.772 771.867 367.724L769.385 366.972C748.557 359.416 730.035 349.769 713.312 335.089C712.796 335.036 712.342 334.823 711.857 334.643L711.432 333.598C701.573 324.493 692.849 313.479 685.48 302.282C665.137 271.372 654.737 224.805 662.298 188.478L663.025 185.983C666.412 165.752 676.481 143.392 688.136 126.558Z"/>
	<path d="M754.993 233.445Q755.731 203.793 756.978 174.159C757.234 167.703 756.665 157.84 758.211 151.85C760.409 143.332 766.439 134.926 772.729 128.933C784.649 117.579 799.806 111.609 816.296 112.079Q817.856 112.135 819.41 112.268Q820.965 112.402 822.512 112.612Q824.058 112.823 825.592 113.109Q827.126 113.396 828.644 113.759Q830.162 114.121 831.66 114.559Q833.158 114.996 834.632 115.508Q836.107 116.019 837.554 116.603Q839.001 117.187 840.418 117.841Q841.834 118.496 843.217 119.221Q844.599 119.945 845.944 120.737Q847.288 121.529 848.592 122.387Q849.896 123.245 851.155 124.166Q852.415 125.088 853.627 126.071Q854.839 127.053 856.001 128.095Q857.163 129.137 858.272 130.235Q859.381 131.333 860.434 132.485C879.396 152.835 878.547 171.073 878.528 196.854L878.492 234.633C891.766 237.694 902.946 244.746 910.231 256.492Q911.427 258.422 912.441 260.454Q913.456 262.485 914.28 264.601Q915.104 266.717 915.731 268.9Q916.358 271.082 916.783 273.313C918.14 280.269 919.292 328.486 917.971 334.017C917.788 334.785 917.61 334.946 916.968 335.327C910.178 334.29 902.337 334.976 895.442 334.975L852.602 334.987C806.189 335 759.719 334.493 713.312 335.089C712.796 335.036 712.342 334.823 711.857 334.643L711.432 333.598Q711.57 317.332 711.452 301.065C711.398 281.637 710.298 262.395 725.271 247.549C733.682 239.209 743.518 235.452 754.993 233.445Z"/>
	<path fill="#5EE4A1" d="M752.79 236.623C757.852 236.086 763.341 236.5 768.453 236.529L798.283 236.712C798.709 237.815 799.128 238.921 799.596 240.007Q799.92 240.754 800.316 241.466Q800.712 242.177 801.177 242.846Q801.642 243.515 802.171 244.134Q802.699 244.753 803.287 245.317Q803.875 245.881 804.516 246.383Q805.157 246.886 805.844 247.322Q806.532 247.759 807.259 248.125Q807.987 248.491 808.747 248.783Q809.481 249.057 810.24 249.253Q810.999 249.45 811.774 249.567Q812.548 249.685 813.331 249.721Q814.114 249.758 814.897 249.714Q815.679 249.67 816.453 249.545Q817.226 249.42 817.983 249.216Q818.74 249.012 819.472 248.732Q820.203 248.451 820.902 248.096C825.547 245.742 827.966 241.777 829.503 237.004L859.612 236.943C876.954 236.919 888.733 236.673 901.79 249.875C916.405 264.651 915.581 282.64 915.511 301.938L915.375 332.624L890.25 332.583L713.816 332.541L713.825 297.797C713.83 289.581 713.399 281.039 714.908 272.934C716.07 266.689 718.344 260.598 721.971 255.357C729.341 244.708 740.268 238.875 752.79 236.623Z"/>
	<path fill="#FEFEFE" d="M808.27 114.665Q811.718 114.358 815.179 114.356C830.561 114.299 846.27 121.339 857.049 132.216C876.662 152.007 876.116 170.804 876.078 196.514L875.998 234.472L829.877 234.425C829.948 227.673 830.324 220.613 829.55 213.905C834.403 210.056 838.849 206.349 842.788 201.526C846.634 196.176 850.589 189.534 850.442 182.725C850.357 178.787 848.805 174.937 845.826 172.305C841.713 168.673 836.852 168.584 831.712 168.964C831.115 164.107 830.514 159.122 828.853 154.497C826.775 148.713 822.844 143.36 817.09 140.836C812.411 138.783 807.336 139.033 802.631 140.868C792.018 145.007 786.269 154.114 781.784 164.02C774.623 160.121 767.489 156.223 760.107 152.751C762.238 147.232 764.639 142.005 768.209 137.249C778.105 124.064 792.195 116.977 808.27 114.665Z"/>
	<path fill="#FEFEFE" d="M808.451 217.553C803.496 216.811 798.847 215.557 794.536 212.914C787.446 208.569 783.232 201.448 781.473 193.479C778.715 180.988 781.374 166.854 788.372 156.164C792.765 149.452 799.548 143.158 807.692 141.713C811.708 141.001 815.56 141.819 818.862 144.237C827.651 150.674 828.404 161.515 829.907 171.358C832.179 171.259 834.608 171.031 836.867 171.29C840.441 171.7 844.545 173.459 846.653 176.493C848.664 179.386 848.565 183.116 847.813 186.414C845.152 198.091 835.501 207.338 825.663 213.372C825.545 213.559 825.437 213.751 825.309 213.931C823.751 216.122 818.184 217.355 815.582 217.751C819.486 218.61 821.354 215.853 824.716 215.715C822.882 218.109 816.983 219.424 814.047 219.862C813.851 219.891 813.653 219.906 813.456 219.927Q810.964 218.718 808.451 217.553Z"/>
	<path fill="#01000E" d="M825.663 213.372C825.545 213.559 825.437 213.751 825.309 213.931C823.751 216.122 818.184 217.355 815.582 217.751C819.486 218.61 821.354 215.853 824.716 215.715C822.882 218.109 816.983 219.424 814.047 219.862C813.851 219.891 813.653 219.906 813.456 219.927Q810.964 218.718 808.451 217.553C814.769 217.663 819.899 215.723 825.663 213.372Z"/>
	<path fill="#FEFEFE" d="M760.094 155.664C767.292 158.482 774.204 162.647 781.001 166.321C778.07 176.419 777.118 186.965 780.297 197.134C783.468 207.278 789.474 213.098 798.722 217.947L798.534 233.995C784.952 234.504 771.195 234.141 757.598 234.024C757.449 225.567 758.092 216.951 758.37 208.491L760.094 155.664Z"/>
	<path fill="#FEFEFE" d="M824.716 215.715L826.75 215.628C827.544 216.489 827.706 216.951 827.705 218.143C827.698 226.07 829.07 237.873 822.796 243.651Q822.315 244.092 821.793 244.485Q821.271 244.877 820.714 245.217Q820.156 245.556 819.568 245.84Q818.98 246.124 818.368 246.349Q817.755 246.574 817.123 246.739Q816.491 246.904 815.847 247.006Q815.202 247.108 814.55 247.147Q813.898 247.186 813.246 247.162Q812.595 247.132 811.95 247.037Q811.305 246.943 810.672 246.783Q810.04 246.624 809.427 246.403Q808.814 246.181 808.226 245.899Q807.638 245.617 807.081 245.277Q806.525 244.937 806.005 244.543Q805.486 244.15 805.008 243.706Q804.531 243.262 804.1 242.772C799.186 237.1 800.854 225.683 800.877 218.442C805.15 219.504 809.006 220.452 813.456 219.927C813.653 219.906 813.851 219.891 814.047 219.862C816.983 219.424 822.882 218.109 824.716 215.715Z"/>
	<path fill="#FF8B3B" d="M581.317 188.426L662.298 188.478C654.737 224.805 665.137 271.372 685.48 302.282C692.849 313.479 701.573 324.493 711.432 333.598L711.857 334.643C712.342 334.823 712.796 335.036 713.312 335.089C730.035 349.769 748.557 359.416 769.385 366.972L769.37 399.554C769.37 407.559 770.151 416.656 768.197 424.432Q767.83 425.916 767.273 427.34Q766.716 428.764 765.979 430.104Q765.241 431.443 764.336 432.675Q763.43 433.907 762.372 435.011C758.96 438.529 754.544 440.683 749.783 441.692C741.539 443.439 732.208 442.475 723.787 442.469L680.661 442.479Q678.702 437.682 676.494 432.994C657.668 393.752 623.634 359.342 582.076 344.731L581.365 344.274C582.099 292.384 581.751 240.318 581.317 188.426Z"/>
	<path fill="#FF8B3B" d="M771.867 367.724C791.789 372.772 811.996 374.831 832.527 373.027L832.283 451.524C832.304 462.326 833.619 482.249 831.766 491.724C830.877 496.271 828.4 500.585 825.11 503.823C820.534 508.328 813.669 510.529 807.432 511.49C797.088 513.085 781.292 511.958 770.41 511.967L692.428 512.049C692.452 488.583 689.22 467.282 681.519 445.048L722.8 445.067C731.718 445.114 742.142 446.217 750.862 444.275C755.827 443.17 760.495 440.761 764.073 437.114Q764.671 436.499 765.227 435.846Q765.782 435.192 766.293 434.503Q766.803 433.813 767.267 433.092Q767.73 432.37 768.144 431.618Q768.558 430.867 768.921 430.09Q769.284 429.312 769.593 428.513Q769.903 427.713 770.159 426.894Q770.415 426.075 770.615 425.241C772.508 417.65 771.739 408.723 771.775 400.893L771.867 367.724Z"/>
	<path fill="#FEFEFE" d="M325.624 513.964C327.938 512.648 337.046 513.239 339.781 513.924C337.911 513.954 336.772 513.746 335.131 514.687C334.5 515.889 334.302 516.809 334.668 518.125C335.39 520.719 336.66 523.402 337.751 525.865L336.067 527.95C335.566 526.809 335.101 525.791 334.349 524.783L334.223 525.454L332.543 525.112C331.822 526.208 331.926 527.268 331.841 528.547C332.198 532.529 332.444 536.555 332.958 540.517Q333.724 546.686 334.876 552.795L335.821 557.582C336.517 560.463 337.094 563.438 338.076 566.236C338.496 569.186 339.41 572.025 340.229 574.884Q341.719 575.413 343.222 575.905L345.141 581.16C343.706 581.257 342.78 581.163 341.39 580.793C328.888 580.346 316.29 580.673 303.779 580.706C293.702 580.733 277.002 579.424 267.559 582.251C263.029 583.608 259.076 586.849 255.389 589.707C250.175 588.974 244.32 589.611 239.013 589.649C223.886 589.756 208.086 590.674 193.018 589.441L190.486 589.401C190.444 573.064 189.385 553.626 190.627 537.663C191.809 532.776 193.611 528.814 196.338 524.612L197.792 524.856L197.693 526.818Q198.781 525.467 199.93 524.167C210.76 511.915 225.092 515.044 239.615 514.073C253.036 514.844 266.821 514.178 280.276 514.147C295.321 514.113 310.609 514.646 325.624 513.964Z"/>
	<path fill="#1B1464" d="M190.486 589.401C190.444 573.064 189.385 553.626 190.627 537.663C191.458 538.488 192.311 539.266 192.948 540.258Q193.121 564.849 193.018 589.441L190.486 589.401Z"/>
	<path fill="#1B1464" d="M325.624 513.964C327.938 512.648 337.046 513.239 339.781 513.924C337.911 513.954 336.772 513.746 335.131 514.687C334.5 515.889 334.302 516.809 334.668 518.125C335.39 520.719 336.66 523.402 337.751 525.865L336.067 527.95C335.566 526.809 335.101 525.791 334.349 524.783L334.223 525.454L332.543 525.112C331.822 526.208 331.926 527.268 331.841 528.547C331.273 523.809 331.264 518.869 331.021 514.093C329.222 514.083 327.422 514.011 325.624 513.964Z"/>
	<path fill="#01000E" d="M196.338 524.612L197.792 524.856L197.693 526.818C195.354 531.374 193.704 535.162 192.948 540.258C192.311 539.266 191.458 538.488 190.627 537.663C191.809 532.776 193.611 528.814 196.338 524.612Z"/>
	<path fill="#02001A" d="M340.229 574.884Q341.719 575.413 343.222 575.905L345.141 581.16C343.706 581.257 342.78 581.163 341.39 580.793C341.83 578.946 340.757 576.714 340.229 574.884Z"/>
	<path fill="#FEFEFE" d="M663.897 581.938L677.932 581.851C676.665 585.406 674.559 589.325 673.736 592.925L673.713 593.815C673.684 594.755 673.561 595.639 673.393 596.565L673.773 597.37C672.433 600.573 670.672 603.543 668.958 606.556C663.931 615.163 658.324 623.57 651.958 631.253C647.299 636.672 642.376 641.581 637.016 646.314C627.851 655.176 616.188 664.66 604.638 670.312C601.468 672.165 598.296 673.965 595.025 675.636C591.577 677.345 584.538 681.829 580.832 681.473C580.173 686.291 580.46 691.333 580.472 696.191L580.426 723.978C580.385 731.518 579.508 740.195 581.304 747.526Q581.566 748.569 581.898 749.591Q582.23 750.614 582.63 751.611Q583.03 752.609 583.497 753.578Q583.963 754.546 584.494 755.481Q585.025 756.416 585.618 757.312Q586.21 758.209 586.862 759.064Q587.514 759.919 588.222 760.728Q588.93 761.537 589.691 762.296C595.561 768.205 602.913 770.644 611.092 770.943L611.013 773.303C601.854 772.732 594.293 770.396 587.82 763.633C578.79 754.199 577.927 743.78 578.222 731.367C577.921 715.253 578.13 699.098 578.035 682.977C572.578 684.703 567.131 686.286 561.583 687.692C544.918 691.855 528.745 693.235 511.634 692.745C515.005 690.878 518.712 693.213 522.646 690.447C524.253 689.356 526.332 688.781 528.148 688.087C526.888 687.721 525.987 687.179 524.876 686.504C521.272 687.7 517.671 688.577 513.963 689.389C512.483 686.363 513.527 664.341 513.546 659.922L513.594 640.593C532.856 640.113 550.053 636.148 568.384 630.513L565.605 638.127L567.134 640.802Q569.148 634.526 571.365 628.319C573.612 627.735 575.826 626.591 577.963 625.679L578.112 626.703C578.772 628.845 578.783 629.176 580.542 630.513C580.607 634.012 580.31 638.019 581.04 641.423C584.073 639.536 587.368 637.93 590.556 636.313L600.254 629.669Q609.554 622.543 617.93 614.351C621.315 610.931 624.419 607.357 627.51 603.676L630.062 604.195C635.237 597.023 639.795 589.744 644.076 582.008L661.107 581.984L657.076 589.841L658.917 591.273Q661.492 586.651 663.897 581.938Z"/>
	<path fill="#FEFEFE" d="M513.594 640.593C532.856 640.113 550.053 636.148 568.384 630.513L565.605 638.127L567.134 640.802C561.05 655.441 553.451 669.544 541.085 679.85C538.245 682.088 535.23 684.58 531.972 686.186L528.148 688.087C526.888 687.721 525.987 687.179 524.876 686.504C521.272 687.7 517.671 688.577 513.963 689.389C512.483 686.363 513.527 664.341 513.546 659.922L513.594 640.593Z"/>
	<path fill="#01000E" d="M541.356 676.523C553.047 665.888 559.723 652.513 565.605 638.127L567.134 640.802C561.05 655.441 553.451 669.544 541.085 679.85C541.541 678.681 541.42 677.752 541.356 676.523Z"/>
	<path fill="#1B1464" d="M527.003 685.69C532.182 683.063 536.777 680.099 541.356 676.523C541.42 677.752 541.541 678.681 541.085 679.85C538.245 682.088 535.23 684.58 531.972 686.186L528.148 688.087C526.888 687.721 525.987 687.179 524.876 686.504L527.003 685.69Z"/>
	<path fill="#FEFEFE" d="M644.076 582.008L661.107 581.984L657.076 589.841L658.917 591.273C653.179 601.821 646.679 611.422 638.712 620.439C633.078 627.191 626.85 634.233 619.686 639.408Q617.121 641.965 614.057 643.894C611.219 647.034 606.371 650.024 602.603 651.956C599.451 654.558 595.4 656.525 591.732 658.323C589.175 660.115 586.049 661.616 583.119 662.702C583.269 661.755 583.461 661.798 584.132 661.171L584.03 660.032C582.882 660.281 582.106 660.682 580.993 660.226C580.329 655.123 580.713 649.644 580.713 644.49L582.363 643.054L583.541 641.337C582.708 641.385 581.874 641.4 581.04 641.423C584.073 639.536 587.368 637.93 590.556 636.313L600.254 629.669Q609.554 622.543 617.93 614.351C621.315 610.931 624.419 607.357 627.51 603.676L630.062 604.195C635.237 597.023 639.795 589.744 644.076 582.008Z"/>
	<path fill="#01000E" d="M637.154 618.936C644.943 609.823 651.004 600.126 657.076 589.841L658.917 591.273C653.179 601.821 646.679 611.422 638.712 620.439L637.154 618.936Z"/>
	<path fill="#1B1464" d="M617.93 614.351L619.595 616.166C615.193 620.51 610.232 626.041 604.888 629.132C602.424 631.14 599.471 633.913 596.559 635.209C594.148 634.631 592.944 636.068 590.556 636.313L600.254 629.669Q609.554 622.543 617.93 614.351Z"/>
	<path fill="#1B1464" d="M637.154 618.936L638.712 620.439C633.078 627.191 626.85 634.233 619.686 639.408Q617.121 641.965 614.057 643.894Q615.102 642.312 616.219 640.779L615.403 640.023C616.469 638.544 618.474 637.31 619.914 636.161C621.493 633.869 624.806 631.492 626.888 629.479Q632.164 624.347 637.154 618.936Z"/>
	<path fill="#010026" d="M601.292 650.211C603.231 647.759 612.29 642.314 615.403 640.023L616.219 640.779Q615.102 642.312 614.057 643.894C611.219 647.034 606.371 650.024 602.603 651.956C601.815 651.808 602.248 651.856 601.138 651.878L600.217 651.902C600.841 651.248 600.661 651.539 601.043 650.754C601.13 650.575 601.209 650.392 601.292 650.211Z"/>
	<path fill="#02001A" d="M627.51 603.676L630.062 604.195C626.779 608.336 623.334 612.424 619.595 616.166L617.93 614.351C621.315 610.931 624.419 607.357 627.51 603.676Z"/>
	<path fill="#010026" d="M590.556 636.313C592.944 636.068 594.148 634.631 596.559 635.209C593.418 637.416 586.185 643.082 582.363 643.054L583.541 641.337C582.708 641.385 581.874 641.4 581.04 641.423C584.073 639.536 587.368 637.93 590.556 636.313Z"/>
	<path fill="#02001A" d="M593.604 654.648C596.097 653.019 598.669 651.615 601.292 650.211C601.209 650.392 601.13 650.575 601.043 650.754C600.661 651.539 600.841 651.248 600.217 651.902L601.138 651.878C602.248 651.856 601.815 651.808 602.603 651.956C599.451 654.558 595.4 656.525 591.732 658.323C592.062 657.07 592.974 655.791 593.604 654.648Z"/>
	<path fill="#010026" d="M593.604 654.648C592.974 655.791 592.062 657.07 591.732 658.323C589.175 660.115 586.049 661.616 583.119 662.702C583.269 661.755 583.461 661.798 584.132 661.171L584.03 660.032C585.674 657.897 591.076 655.925 593.604 654.648Z"/>
	<path fill="#FEFEFE" d="M571.365 628.319C573.612 627.735 575.826 626.591 577.963 625.679L578.112 626.703C578.208 632.419 578.387 638.151 578.36 643.866C578.335 649.736 577.815 656.071 578.367 661.886C576.374 663.14 574.317 663.856 572.112 664.624C572.91 665.179 573.485 665.54 574.073 666.326L577.982 664.99L577.57 680.147C570.673 682.721 563.525 684.587 556.443 686.576C557.831 686.486 560.568 685.943 561.728 686.619L561.583 687.692C544.918 691.855 528.745 693.235 511.634 692.745C515.005 690.878 518.712 693.213 522.646 690.447C524.253 689.356 526.332 688.781 528.148 688.087L531.972 686.186C535.23 684.58 538.245 682.088 541.085 679.85C553.451 669.544 561.05 655.441 567.134 640.802Q569.148 634.526 571.365 628.319Z"/>
	<path fill="#02001A" d="M556.443 686.576C557.831 686.486 560.568 685.943 561.728 686.619L561.583 687.692C544.918 691.855 528.745 693.235 511.634 692.745C515.005 690.878 518.712 693.213 522.646 690.447C533.897 690.668 545.442 688.699 556.443 686.576Z"/>
	<path fill="#010026" d="M574.073 666.326C570.211 667.948 567.401 669.025 563.155 668.984L563.443 667.821C565.961 666.091 569.204 665.428 572.112 664.624C572.91 665.179 573.485 665.54 574.073 666.326Z"/>
	<path fill="#1B1464" d="M578.112 626.703C578.772 628.845 578.783 629.176 580.542 630.513C580.607 634.012 580.31 638.019 581.04 641.423C581.874 641.4 582.708 641.385 583.541 641.337L582.363 643.054L580.713 644.49C580.713 649.644 580.329 655.123 580.993 660.226C582.106 660.682 582.882 660.281 584.03 660.032L584.132 661.171C583.461 661.798 583.269 661.755 583.119 662.702C582.426 663.091 582.022 663.329 581.228 663.466C579.358 666.868 580.436 675.31 580.518 679.427C583.708 678.14 586.9 676.874 590.013 675.406C593.666 673.597 597.256 671.636 600.867 669.745C612.513 662.638 623.028 655.034 633.633 646.45C639.261 641.174 644.713 635.84 649.851 630.082L651.958 631.253C647.299 636.672 642.376 641.581 637.016 646.314C627.851 655.176 616.188 664.66 604.638 670.312C601.468 672.165 598.296 673.965 595.025 675.636C591.577 677.345 584.538 681.829 580.832 681.473C580.173 686.291 580.46 691.333 580.472 696.191L580.426 723.978C580.385 731.518 579.508 740.195 581.304 747.526Q581.566 748.569 581.898 749.591Q582.23 750.614 582.63 751.611Q583.03 752.609 583.497 753.578Q583.963 754.546 584.494 755.481Q585.025 756.416 585.618 757.312Q586.21 758.209 586.862 759.064Q587.514 759.919 588.222 760.728Q588.93 761.537 589.691 762.296C595.561 768.205 602.913 770.644 611.092 770.943L611.013 773.303C601.854 772.732 594.293 770.396 587.82 763.633C578.79 754.199 577.927 743.78 578.222 731.367C577.921 715.253 578.13 699.098 578.035 682.977C572.578 684.703 567.131 686.286 561.583 687.692L561.728 686.619C560.568 685.943 557.831 686.486 556.443 686.576C563.525 684.587 570.673 682.721 577.57 680.147L577.982 664.99L574.073 666.326C573.485 665.54 572.91 665.179 572.112 664.624C574.317 663.856 576.374 663.14 578.367 661.886C577.815 656.071 578.335 649.736 578.36 643.866C578.387 638.151 578.208 632.419 578.112 626.703Z"/>
	<path fill="#02001A" d="M578.222 731.367C578.518 731.012 578.664 730.54 578.718 730.082C579.33 724.851 578.699 718.88 578.693 713.554C578.683 703.403 578.941 693.399 579.39 683.265L579.79 683.104C578.756 687.689 579.654 691.65 580.472 696.191L580.426 723.978C580.385 731.518 579.508 740.195 581.304 747.526Q581.566 748.569 581.898 749.591Q582.23 750.614 582.63 751.611Q583.03 752.609 583.497 753.578Q583.963 754.546 584.494 755.481Q585.025 756.416 585.618 757.312Q586.21 758.209 586.862 759.064Q587.514 759.919 588.222 760.728Q588.93 761.537 589.691 762.296C595.561 768.205 602.913 770.644 611.092 770.943L611.013 773.303C601.854 772.732 594.293 770.396 587.82 763.633C578.79 754.199 577.927 743.78 578.222 731.367Z"/>
	<path fill="#02001A" d="M668.149 603.293L668.958 606.556C663.931 615.163 658.324 623.57 651.958 631.253L649.851 630.082C656.978 621.845 662.53 612.579 668.149 603.293Z"/>
	<path fill="#01000E" d="M673.736 592.925L673.713 593.815C673.684 594.755 673.561 595.639 673.393 596.565L673.773 597.37C672.433 600.573 670.672 603.543 668.958 606.556L668.149 603.293Q670.879 598.075 673.736 592.925Z"/>
	<path fill="#4D52E2" d="M363.741 445.41C363.855 444.344 363.914 443.825 364.409 442.849C369.822 443.07 375.779 443.457 381.156 442.765C385.236 445.197 389.339 443.468 393.853 443.607L390.516 445.465L399.451 445.551C398.539 448.157 397.116 450.478 396.142 453.021C394.249 453.556 392.415 454.124 390.586 454.848L391.581 457.166L392.8 456.742C402.788 451.377 431.989 446.887 443.654 445.839C441.855 467.973 440.753 489.77 440.591 511.986L373.957 511.942C362.804 511.949 351.478 511.611 340.347 512.056Q337.312 511.964 334.284 511.732C334.753 507.304 336.079 503.427 337.792 499.343L335.599 498.959L334.108 501.849C333.485 501.145 333.67 501.565 333.606 500.568L331.239 499.445C331.526 495.209 331.552 490.234 332.854 486.18C333.869 472.692 338.384 458.328 342.699 445.562C343.699 445.726 344.388 445.888 345.27 446.394L345.791 445.974C346.611 445.673 347.54 445.644 348.407 445.538L351.071 445.496L360.528 445.573L358.415 451.528C359.156 452.307 359.754 452.902 360.319 453.818C361.269 451.115 362.079 447.727 363.741 445.41Z"/>
	<path fill="#FEFEFE" d="M363.741 445.41C363.855 444.344 363.914 443.825 364.409 442.849C369.822 443.07 375.779 443.457 381.156 442.765C385.236 445.197 389.339 443.468 393.853 443.607L390.516 445.465L399.451 445.551C398.539 448.157 397.116 450.478 396.142 453.021C394.249 453.556 392.415 454.124 390.586 454.848L391.581 457.166L392.8 456.742C392.915 457.091 393.16 457.423 393.145 457.791C393.128 458.205 385.74 478.487 384.799 482.081C382.372 491.359 380.608 501.945 380.422 511.575C365.137 511.564 349.53 510.886 334.284 511.732C334.753 507.304 336.079 503.427 337.792 499.343L335.599 498.959L334.108 501.849C333.485 501.145 333.67 501.565 333.606 500.568L331.239 499.445C331.526 495.209 331.552 490.234 332.854 486.18C333.869 472.692 338.384 458.328 342.699 445.562C343.699 445.726 344.388 445.888 345.27 446.394L345.791 445.974C346.611 445.673 347.54 445.644 348.407 445.538L351.071 445.496L360.528 445.573L358.415 451.528C359.156 452.307 359.754 452.902 360.319 453.818C361.269 451.115 362.079 447.727 363.741 445.41Z"/>
	<path fill="#FEFEFE" d="M363.741 445.41C363.855 444.344 363.914 443.825 364.409 442.849C369.822 443.07 375.779 443.457 381.156 442.765C385.236 445.197 389.339 443.468 393.853 443.607L390.516 445.465L399.451 445.551C398.539 448.157 397.116 450.478 396.142 453.021C394.249 453.556 392.415 454.124 390.586 454.848L391.581 457.166C386.892 459.13 382.228 461.106 377.628 463.272C375.63 464.547 373.616 465.715 371.534 466.846L368.134 468.918L358.921 475.18L355.821 477.707C348.376 484.052 342.221 490.543 337.792 499.343L335.599 498.959L334.108 501.849C333.485 501.145 333.67 501.565 333.606 500.568L331.239 499.445C331.526 495.209 331.552 490.234 332.854 486.18C333.869 472.692 338.384 458.328 342.699 445.562C343.699 445.726 344.388 445.888 345.27 446.394L345.791 445.974C346.611 445.673 347.54 445.644 348.407 445.538L351.071 445.496L360.528 445.573L358.415 451.528C359.156 452.307 359.754 452.902 360.319 453.818C361.269 451.115 362.079 447.727 363.741 445.41Z"/>
	<path fill="#1B1464" d="M374.118 462.74C379.146 459.356 385.007 457.155 390.586 454.848L391.581 457.166C386.892 459.13 382.228 461.106 377.628 463.272C375.63 464.547 373.616 465.715 371.534 466.846L368.134 468.918L358.921 475.18L355.821 477.707L353.648 476.325C354.854 475.337 356.105 474.405 357.345 473.461C360.388 470.171 365.756 467.501 369.614 465.135L371.556 463.965L374.118 462.74Z"/>
	<defs>
		<linearGradient id="gradient_0" gradientUnits="userSpaceOnUse" x1="333.08698" y1="463.99124" x2="345.40961" y2="462.96753">
			<stop offset="0" stop-color="#000013"/>
			<stop offset="1" stop-color="#010024"/>
		</linearGradient>
	</defs>
	<path fill="url(#gradient_0)" d="M342.699 445.562C343.699 445.726 344.388 445.888 345.27 446.394C342.323 454.249 340.296 462.227 338.427 470.388C337.524 474.328 336.877 478.48 335.688 482.336L334.413 482.894L334.289 483.349C333.959 484.524 333.753 485.293 332.854 486.18C333.869 472.692 338.384 458.328 342.699 445.562Z"/>
	<path fill="#02001A" d="M363.741 445.41C363.855 444.344 363.914 443.825 364.409 442.849C369.822 443.07 375.779 443.457 381.156 442.765C385.236 445.197 389.339 443.468 393.853 443.607L390.516 445.465L382.204 445.501C381.697 447 381.348 448.479 380.219 449.642C379.035 449.426 379.064 449.629 378.221 448.652C378.619 447.775 378.793 447.305 378.704 446.339C376.324 444.245 366.987 445.419 363.741 445.41Z"/>
	<path fill="#02001A" d="M353.648 476.325L355.821 477.707C348.376 484.052 342.221 490.543 337.792 499.343L335.599 498.959C339.449 489.87 346.503 482.892 353.648 476.325Z"/>
	<path fill="#01000E" d="M332.854 486.18C333.753 485.293 333.959 484.524 334.289 483.349L334.413 482.894L335.688 482.336C334.843 488.41 334.009 494.444 333.606 500.568L331.239 499.445C331.526 495.209 331.552 490.234 332.854 486.18Z"/>
	<path fill="#010026" d="M360.319 453.818C359.61 456.33 358.97 458.683 357.053 460.556L356.251 460.517C355.139 457.117 356.936 454.502 358.415 451.528C359.156 452.307 359.754 452.902 360.319 453.818Z"/>
	<path fill="#FEFEFE" d="M430.228 350.491C433.265 348.892 436.534 347.2 439.809 346.18C441.253 346.871 442.061 346.973 443.664 346.979L443.565 347.467C443.531 350.523 443.423 353.594 443.571 356.647C444.01 357.247 443.814 356.878 444.023 357.957C444.082 358.263 444.134 358.571 444.19 358.877C444.202 358.687 444.23 358.497 444.226 358.306C444.158 354.936 444.794 351.897 446.073 348.761C446.145 352.874 446.3 357.005 446.016 361.112C447.875 360.905 449.732 360.094 451.507 359.497C453.593 358.675 458.871 356.091 460.932 356.553C461.099 356.591 461.237 356.708 461.39 356.785L461.504 357.505C458.666 359.905 453.847 361.081 450.368 362.344L445.954 364.371C445.899 369.88 445.346 376.474 446.902 381.744L445.954 383.607C444.686 386.712 445.54 392.614 445.551 396.131C444.099 397.239 443.807 397.374 443.641 399.184C443.584 399.804 443.607 400.429 443.58 401.051C443.547 401.832 443.548 401.584 443.244 402.513L443.017 403.047C427.685 411.186 409.617 427.592 401.359 442.993L400.91 443.111C398.729 443.917 396.156 443.624 393.853 443.607C389.339 443.468 385.236 445.197 381.156 442.765C375.779 443.457 369.822 443.07 364.409 442.849C363.914 443.825 363.855 444.344 363.741 445.41C362.079 447.727 361.269 451.115 360.319 453.818C359.754 452.902 359.156 452.307 358.415 451.528L360.528 445.573L351.071 445.496L348.407 445.538C347.54 445.644 346.611 445.673 345.791 445.974C345.666 444.704 345.856 444.499 344.969 443.509C343.996 443.653 342.99 443.912 342.046 443.534C341.897 443.474 341.768 443.376 341.63 443.296L343.229 442.966C344.664 441.727 345.259 439.651 345.978 437.935C346.642 436.305 347.365 434.832 348.283 433.33C350.104 428.488 352.782 423.701 355.52 419.323C360.355 409.971 367.791 400.88 374.786 393.019C391.452 374.223 408.056 362.335 430.228 350.491Z"/>
	<path fill="#FEFEFE" d="M430.228 350.491C433.265 348.892 436.534 347.2 439.809 346.18C441.253 346.871 442.061 346.973 443.664 346.979L443.565 347.467C443.531 350.523 443.423 353.594 443.571 356.647L443.485 362.673C439.076 364.866 434.731 367.08 430.489 369.589C427.767 371.152 425.004 372.664 422.399 374.418C418.055 377.18 413.882 380.02 409.764 383.114Q401.559 389.298 394.254 396.522L395.804 398.443C389.754 404.534 384.15 410.939 379.163 417.94C373.802 426.128 369.329 434.445 364.409 442.849C363.914 443.825 363.855 444.344 363.741 445.41C362.079 447.727 361.269 451.115 360.319 453.818C359.754 452.902 359.156 452.307 358.415 451.528L360.528 445.573L351.071 445.496L348.407 445.538C347.54 445.644 346.611 445.673 345.791 445.974C345.666 444.704 345.856 444.499 344.969 443.509C343.996 443.653 342.99 443.912 342.046 443.534C341.897 443.474 341.768 443.376 341.63 443.296L343.229 442.966C344.664 441.727 345.259 439.651 345.978 437.935C346.642 436.305 347.365 434.832 348.283 433.33C350.104 428.488 352.782 423.701 355.52 419.323C360.355 409.971 367.791 400.88 374.786 393.019C391.452 374.223 408.056 362.335 430.228 350.491Z"/>
	<path fill="#1B1464" d="M430.228 350.491C433.265 348.892 436.534 347.2 439.809 346.18C441.253 346.871 442.061 346.973 443.664 346.979L443.565 347.467Q438.084 349.588 432.687 351.917C409.933 363.704 394.106 375.465 376.672 394.213L374.786 393.019C391.452 374.223 408.056 362.335 430.228 350.491Z"/>
	<path fill="#01000E" d="M377.28 416.529L379.163 417.94C373.802 426.128 369.329 434.445 364.409 442.849C363.914 443.825 363.855 444.344 363.741 445.41C362.079 447.727 361.269 451.115 360.319 453.818C359.754 452.902 359.156 452.307 358.415 451.528L360.528 445.573L351.071 445.496C352.245 444.724 353.757 444.24 355.063 443.698C356.27 443.736 357.412 443.533 358.599 443.345C358.762 443.322 358.925 443.302 359.088 443.275C359.654 443.182 360.9 443.019 361.362 442.723C362.421 442.045 364.522 437.128 365.276 435.747Q370.669 425.757 377.28 416.529Z"/>
	<path d="M374.786 393.019L376.672 394.213C369.28 402.807 362.784 411.961 356.77 421.564C356.177 420.809 355.899 420.194 355.52 419.323C360.355 409.971 367.791 400.88 374.786 393.019Z"/>
	<path fill="#02001A" d="M394.254 396.522L395.804 398.443C389.754 404.534 384.15 410.939 379.163 417.94L377.28 416.529C382.097 409.262 388.17 402.737 394.254 396.522Z"/>
	<path fill="#01000E" d="M348.283 433.33C350.104 428.488 352.782 423.701 355.52 419.323C355.899 420.194 356.177 420.809 356.77 421.564Q354.265 426.276 351.837 431.028L347.259 441.127C346.177 440.078 346.258 439.389 345.978 437.935C346.642 436.305 347.365 434.832 348.283 433.33Z"/>
	<path fill="#010026" d="M341.63 443.296L343.229 442.966C344.664 441.727 345.259 439.651 345.978 437.935C346.258 439.389 346.177 440.078 347.259 441.127L347.111 442.436C349.606 444.186 355.458 442.749 358.599 443.345C357.412 443.533 356.27 443.736 355.063 443.698C353.757 444.24 352.245 444.724 351.071 445.496L348.407 445.538C347.54 445.644 346.611 445.673 345.791 445.974C345.666 444.704 345.856 444.499 344.969 443.509C343.996 443.653 342.99 443.912 342.046 443.534C341.897 443.474 341.768 443.376 341.63 443.296Z"/>
	<path fill="#02001A" d="M348.407 445.538C348.591 445.34 348.766 445.133 348.959 444.944C350.698 443.251 352.833 443.646 355.063 443.698C353.757 444.24 352.245 444.724 351.071 445.496L348.407 445.538Z"/>
	<path fill="#FEFEFE" d="M442.886 385.231C443.776 390.617 443.206 397.007 443.244 402.513L443.017 403.047C427.685 411.186 409.617 427.592 401.359 442.993L400.91 443.111C398.729 443.917 396.156 443.624 393.853 443.607C389.339 443.468 385.236 445.197 381.156 442.765C384.192 433.298 397.812 417.171 405.346 409.862L405.392 412.932C408.491 409.678 411.992 406.768 415.351 403.785C420.491 399.554 425.873 395.714 431.366 391.961L434.029 390.255L436.239 388.889C438.433 387.611 440.628 386.392 442.886 385.231Z"/>
	<path fill="#010026" d="M381.156 442.765C384.192 433.298 397.812 417.171 405.346 409.862L405.392 412.932C396.962 422.135 389.404 431.979 383.458 442.988C389.254 443.022 395.124 442.86 400.91 443.111C398.729 443.917 396.156 443.624 393.853 443.607C389.339 443.468 385.236 445.197 381.156 442.765Z"/>
	<path fill="#1B1464" d="M443.571 356.647C444.01 357.247 443.814 356.878 444.023 357.957C444.082 358.263 444.134 358.571 444.19 358.877C444.202 358.687 444.23 358.497 444.226 358.306C444.158 354.936 444.794 351.897 446.073 348.761C446.145 352.874 446.3 357.005 446.016 361.112C447.875 360.905 449.732 360.094 451.507 359.497C453.593 358.675 458.871 356.091 460.932 356.553C461.099 356.591 461.237 356.708 461.39 356.785L461.504 357.505C458.666 359.905 453.847 361.081 450.368 362.344L445.954 364.371C445.899 369.88 445.346 376.474 446.902 381.744L445.954 383.607C444.686 386.712 445.54 392.614 445.551 396.131C444.099 397.239 443.807 397.374 443.641 399.184C443.584 399.804 443.607 400.429 443.58 401.051C443.547 401.832 443.548 401.584 443.244 402.513C443.206 397.007 443.776 390.617 442.886 385.231C440.628 386.392 438.433 387.611 436.239 388.889L434.029 390.255L431.366 391.961C425.873 395.714 420.491 399.554 415.351 403.785C411.992 406.768 408.491 409.678 405.392 412.932L405.346 409.862C407.943 406.494 411.933 403.57 415.165 400.798Q421.684 395.405 428.745 390.746L432.204 388.513L434.388 387.207C436.444 385.967 438.544 384.813 440.644 383.649L442.433 382.349C444.464 378.323 443.273 370.075 443.286 365.567C439.741 367.172 436.291 369.049 432.825 370.822C430.476 372.239 427.977 374.093 425.495 375.207C420.642 378.466 415.763 381.685 411.077 385.183C405.818 389.36 400.531 393.663 395.804 398.443L394.254 396.522Q401.559 389.298 409.764 383.114C413.882 380.02 418.055 377.18 422.399 374.418C425.004 372.664 427.767 371.152 430.489 369.589C434.731 367.08 439.076 364.866 443.485 362.673L443.571 356.647Z"/>
	<path fill="#4D52E2" d="M508.85 335.389L510.208 335.944C510.655 337.142 510.619 338.024 510.596 339.28C511.706 350.864 510.983 363.156 510.967 374.812L511.06 435.758C489.194 436.212 468.244 437.969 446.799 442.463C449.067 426.535 450.853 410.191 456.678 395.091C462.7 377.049 470.224 361.97 483.772 348.268C491.128 342.023 498.267 337.397 507.837 335.569L508.85 335.389Z"/>
	<path fill="#FEFEFE" d="M508.85 335.389L510.208 335.944C510.655 337.142 510.619 338.024 510.596 339.28Q510.494 361.597 510.699 383.913C497.994 384.133 484.37 386.093 472.119 389.531C469.017 390.401 459.146 395.502 456.678 395.091C462.7 377.049 470.224 361.97 483.772 348.268C491.128 342.023 498.267 337.397 507.837 335.569L508.85 335.389Z"/>
	<path fill="#4D52E2" d="M380.479 514.235C400.414 515.338 420.804 514.5 440.789 514.467C440.907 536.117 440.94 558.325 444.08 579.783C427.461 577.118 406.462 573.249 390.932 566.855C384.699 550.753 380.754 531.456 380.479 514.235Z"/>
	<path fill="#4D52E2" d="M513.28 383.935C533.313 384.544 550.814 388.008 569.279 396.083C574.953 409.844 576.854 428.194 578.159 443.01C557.264 437.141 534.982 435.821 513.385 435.701L513.28 383.935Z"/>
	<path fill="#4D52E2" d="M446.836 582.771C468.612 585.654 488.999 589.436 511.116 589.456C511.106 606.459 510.829 623.529 511.227 640.524C491.861 639.546 472.713 636.921 454.615 629.689C450.679 614.126 448.677 598.7 446.836 582.771Z"/>
	<path fill="#4D52E2" d="M513.509 589.231Q532.241 589.124 550.841 586.901C559.78 585.816 568.644 584.123 577.602 583.211C576.417 599.037 572.864 615.301 568.384 630.513C550.053 636.148 532.856 640.113 513.594 640.593C513.798 623.482 513.551 606.344 513.509 589.231Z"/>
	<path fill="#FF8B3B" d="M692.386 514.454L770.978 514.522C782.523 514.515 801.078 513.393 811.965 515.275C817.439 516.221 822.583 518.152 826.536 522.232C829.759 525.559 831.417 529.538 832.311 534.026C820.317 534.58 808.08 534.061 796.063 534.024L727.111 533.841C715.323 533.822 703.202 533.254 691.456 534.107C692.272 527.552 692.432 521.053 692.386 514.454Z"/>
	<path fill="#FEFEFE" d="M688.91 526.428L689.354 526.051C690.252 529.019 688.359 532.326 691.456 534.107C691.27 536.989 690.941 539.788 690.488 542.641C690.194 547.27 689.088 551.906 688.079 556.428C687.654 555.184 687.63 554.237 686.493 553.503C684.061 562.19 681.823 570.933 678.764 579.426C674.192 579.59 669.581 579.47 665.005 579.475C665.687 577.9 666.699 576.037 666.923 574.333C667.06 573.297 666.998 573.04 666.407 572.18L665.35 572.639C663.551 574.547 662.936 577.074 662.098 579.508C658.087 579.514 654.047 579.782 650.039 579.654C648.385 579.601 646.794 579.481 645.606 578.221C645.655 577.35 645.628 576.692 645.421 575.843L644.503 575.563C643.015 576.419 642.533 578.032 641.842 579.524L626.945 579.558C628.429 576.452 629.718 573.219 631.088 570.059C633.37 568.911 636.229 568.189 638.661 567.342C637.467 566.308 636.605 566.301 635.11 566.209L632.173 566.986C632.629 562.726 634.804 557.712 636 553.534Q638.806 543.833 640.674 533.909L640.865 533.659C646.168 533.601 678.511 532.709 680.712 533.663C681.058 533.813 681.301 534.134 681.595 534.37L681.838 534.489L682.678 537.003C685.111 533.626 687.292 530.275 688.91 526.428Z"/>
	<path fill="#FEFEFE" d="M640.865 533.659C646.168 533.601 678.511 532.709 680.712 533.663C681.058 533.813 681.301 534.134 681.595 534.37C678.226 539.62 674.219 544.15 669.519 548.254L666.317 550.689C663.661 552.511 661.033 554.387 658.253 556.016C655.493 557.536 652.568 558.958 649.916 560.649C644.877 562.194 640.182 564.69 635.11 566.209L632.173 566.986C632.629 562.726 634.804 557.712 636 553.534Q638.806 543.833 640.674 533.909L640.865 533.659Z"/>
	<path fill="#02001A" d="M649.916 560.649C652.568 558.958 655.493 557.536 658.253 556.016L659.789 557.926C658.111 558.854 656.338 560.061 654.533 560.685C649.689 563.185 644.019 566.202 638.661 567.342C637.467 566.308 636.605 566.301 635.11 566.209C640.182 564.69 644.877 562.194 649.916 560.649Z"/>
	<path fill="#02001A" d="M681.595 534.37L681.838 534.489L682.678 537.003C679.574 541.706 676.034 545.436 671.98 549.336L669.519 548.254C674.219 544.15 678.226 539.62 681.595 534.37Z"/>
	<path fill="#02001A" d="M686.493 553.503C686.806 548.212 688.207 542.576 688.839 537.261C689.241 539.086 689.515 541.025 690.488 542.641C690.194 547.27 689.088 551.906 688.079 556.428C687.654 555.184 687.63 554.237 686.493 553.503Z"/>
	<path fill="#1B1464" d="M666.317 550.689C666.881 551.286 667.54 551.882 668.028 552.539C665.34 554.419 662.691 556.385 659.789 557.926L658.253 556.016C661.033 554.387 663.661 552.511 666.317 550.689Z"/>
	<path fill="#01000E" d="M688.91 526.428L689.354 526.051C690.252 529.019 688.359 532.326 691.456 534.107C691.27 536.989 690.941 539.788 690.488 542.641C689.515 541.025 689.241 539.086 688.839 537.261C689.293 533.821 688.928 529.919 688.91 526.428Z"/>
	<path fill="#02001A" d="M666.317 550.689L669.519 548.254L671.98 549.336L668.028 552.539C667.54 551.882 666.881 551.286 666.317 550.689Z"/>
	<path fill="#FEFEFE" d="M454.615 629.689C472.713 636.921 491.861 639.546 511.227 640.524C511.252 644.784 510.888 649.433 511.412 653.639C512.019 655.27 512.416 656.796 512.808 658.485C513.005 659.332 512.946 659.05 513.546 659.922C513.527 664.341 512.483 686.363 513.963 689.389C517.671 688.577 521.272 687.7 524.876 686.504C525.987 687.179 526.888 687.721 528.148 688.087C526.332 688.781 524.253 689.356 522.646 690.447C518.712 693.213 515.005 690.878 511.634 692.745C505.073 692.965 498.559 692.78 492.002 692.53L491.997 690.029L502.483 690.48C497.978 688.994 493.868 687.287 489.81 684.809C488.07 683.809 486.488 682.603 484.874 681.416C471.145 671.514 461.696 654.16 455.272 638.79C456.526 638.373 456.576 638.372 457.831 638.785C456.708 635.775 455.683 632.72 454.615 629.689Z"/>
	<defs>
		<linearGradient id="gradient_1" gradientUnits="userSpaceOnUse" x1="507.5285" y1="692.95642" x2="508.30328" y2="686.2915">
			<stop offset="0" stop-color="#000007"/>
			<stop offset="1" stop-color="#01001F"/>
		</linearGradient>
	</defs>
	<path fill="url(#gradient_1)" d="M493.993 684.302C499.61 686.772 505.027 688.206 511.044 689.364C512.342 689.619 512.666 689.79 513.963 689.389C517.671 688.577 521.272 687.7 524.876 686.504C525.987 687.179 526.888 687.721 528.148 688.087C526.332 688.781 524.253 689.356 522.646 690.447C518.712 693.213 515.005 690.878 511.634 692.745C505.073 692.965 498.559 692.78 492.002 692.53L491.997 690.029L502.483 690.48C497.978 688.994 493.868 687.287 489.81 684.809L493.993 684.302Z"/>
	<path fill="#01000E" d="M455.272 638.79C456.526 638.373 456.576 638.372 457.831 638.785C464.99 654.606 473.416 669.621 487.42 680.393C489.595 681.7 491.753 683.115 493.993 684.302L489.81 684.809C488.07 683.809 486.488 682.603 484.874 681.416C471.145 671.514 461.696 654.16 455.272 638.79Z"/>
	<path fill="#1B1464" d="M511.412 653.639C512.019 655.27 512.416 656.796 512.808 658.485C513.005 659.332 512.946 659.05 513.546 659.922C513.527 664.341 512.483 686.363 513.963 689.389C512.666 689.79 512.342 689.619 511.044 689.364C512.386 686.168 511.151 659.583 511.412 653.639Z"/>
	<path fill="#4D52E2" d="M580.482 582.979C593.817 580.681 610.125 582.007 623.799 582.067L641.132 581.985C637.545 589.638 632.609 596.935 627.51 603.676C624.419 607.357 621.315 610.931 617.93 614.351Q609.554 622.543 600.254 629.669L590.556 636.313C587.368 637.93 584.073 639.536 581.04 641.423C580.31 638.019 580.607 634.012 580.542 630.513L580.443 624.903C579.414 613.378 579.403 594.47 580.482 582.979Z"/>
	<path fill="#FEFEFE" d="M623.799 582.067L641.132 581.985C637.545 589.638 632.609 596.935 627.51 603.676C624.419 607.357 621.315 610.931 617.93 614.351Q609.554 622.543 600.254 629.669L590.556 636.313C587.368 637.93 584.073 639.536 581.04 641.423C580.31 638.019 580.607 634.012 580.542 630.513L580.443 624.903C598.157 616.701 613.807 598.455 623.799 582.067Z"/>
	<path fill="#4D52E2" d="M583.906 533.581Q612.288 534.05 640.674 533.909Q638.806 543.833 636 553.534C634.804 557.712 632.629 562.726 632.173 566.986C627.244 569.302 620.634 570.464 615.333 571.815Q597.948 576.364 580.393 580.202C582.644 564.682 583.492 549.241 583.906 533.581Z"/>
	<path fill="#FEFEFE" d="M519.92 334.424C521.174 334.024 522.257 333.713 523.584 334.179C523.75 334.237 523.881 334.368 524.03 334.463C527.201 336.447 530.726 337.88 533.632 340.254C550.024 351.015 561.137 369.14 568.393 386.936L566.705 388.915L569.279 396.083C550.814 388.008 533.313 384.544 513.28 383.935C512.892 374.573 513.167 365.119 513.099 355.745C513.053 349.296 512.439 342.323 513.194 335.943C514.486 335.366 515.699 335.527 517.093 335.533L517.584 334.971L519.166 335.18L519.92 334.424Z"/>
	<path fill="#01000E" d="M533.632 340.254C550.024 351.015 561.137 369.14 568.393 386.936L566.705 388.915C559.754 371.025 549.167 355.198 534.06 343.26C533.652 342.03 533.361 341.543 533.632 340.254Z"/>
	<path fill="#1B1464" d="M519.92 334.424C521.174 334.024 522.257 333.713 523.584 334.179C523.75 334.237 523.881 334.368 524.03 334.463C527.201 336.447 530.726 337.88 533.632 340.254C533.361 341.543 533.652 342.03 534.06 343.26C528.73 339.522 523.542 338.025 517.608 335.744C517.435 335.678 517.264 335.603 517.093 335.533L517.584 334.971L519.166 335.18L519.92 334.424Z"/>
	<path fill="#FF8B3B" d="M581.539 347.093C588.364 349.415 594.991 352.818 601.317 356.264Q604.227 357.851 607.074 359.551Q609.92 361.25 612.698 363.059Q615.476 364.868 618.182 366.783Q620.887 368.699 623.516 370.719Q626.145 372.738 628.693 374.859Q631.242 376.979 633.705 379.197Q636.169 381.415 638.544 383.728Q640.92 386.04 643.204 388.443Q645.487 390.846 647.676 393.336Q649.864 395.826 651.954 398.4Q654.043 400.973 656.031 403.626Q658.019 406.279 659.902 409.008Q661.786 411.736 663.561 414.535Q665.336 417.335 667.002 420.202Q668.667 423.068 670.219 425.997Q671.771 428.927 673.208 431.914Q675.79 437.092 677.836 442.505L663.226 442.518C659.013 433.591 654.613 424.963 648.952 416.833C634.013 395.379 606.92 370.74 582.318 362.103L581.376 361.782L581.209 361.536C582.011 356.969 581.534 351.747 581.539 347.093Z"/>
	<path fill="#FEFEFE" d="M339.781 513.924C349.097 514.216 358.432 513.994 367.752 513.994C371.842 513.994 376.435 513.655 380.479 514.235C380.754 531.456 384.699 550.753 390.932 566.855C371.134 559.557 354.353 548.129 341.267 531.547C340.33 529.612 338.894 527.703 337.751 525.865C336.66 523.402 335.39 520.719 334.668 518.125C334.302 516.809 334.5 515.889 335.131 514.687C336.772 513.746 337.911 513.954 339.781 513.924Z"/>
	<path fill="#FEFEFE" d="M502.199 331.723C528.65 329.972 556.619 334.929 581.365 344.274L582.076 344.731C581.341 345.406 581.153 345.441 580.829 346.431L581.539 347.093C581.534 351.747 582.011 356.969 581.209 361.536L581.376 361.782L580.08 363.287L581.529 364.282C581.557 368.308 582.49 375.542 580.758 379.122C579.223 378.576 578.597 378.098 577.001 378.549L576.633 379.453C577.98 381.025 579.828 381.343 581.47 382.454C581.429 388.75 581.782 395.378 581.111 401.622L572.109 397.64C571.411 394.103 569.625 390.352 568.393 386.936C561.137 369.14 550.024 351.015 533.632 340.254C530.726 337.88 527.201 336.447 524.03 334.463C523.881 334.368 523.75 334.237 523.584 334.179C522.257 333.713 521.174 334.024 519.92 334.424L520.345 333.086C517.323 331.52 509.542 331.421 506.323 332.511C505.862 332.667 505.687 332.781 505.228 333.016L505.115 333.761C506.371 334.828 506.899 334.814 508.39 335.208C508.55 335.25 508.697 335.329 508.85 335.389L507.837 335.569C506.704 335.48 505.83 335.395 504.782 334.941C504.081 333.391 503.614 332.687 502.199 331.723Z"/>
	<path fill="#01000E" d="M502.199 331.723C528.65 329.972 556.619 334.929 581.365 344.274L582.076 344.731C581.341 345.406 581.153 345.441 580.829 346.431C573.377 344.652 566.186 341.607 558.754 339.667C547.337 336.686 535.735 335.587 524.03 334.463C523.881 334.368 523.75 334.237 523.584 334.179C522.257 333.713 521.174 334.024 519.92 334.424L520.345 333.086C517.323 331.52 509.542 331.421 506.323 332.511C505.862 332.667 505.687 332.781 505.228 333.016L505.115 333.761C506.371 334.828 506.899 334.814 508.39 335.208C508.55 335.25 508.697 335.329 508.85 335.389L507.837 335.569C506.704 335.48 505.83 335.395 504.782 334.941C504.081 333.391 503.614 332.687 502.199 331.723Z"/>
	<path fill="#01000E" d="M580.08 363.287C578.142 363.191 567.818 360.208 565.445 359.474C563.757 358.952 561.772 357.886 560.973 356.26C564.582 355.348 576.87 360.08 581.209 361.536L581.376 361.782L580.08 363.287Z"/>
	<path fill="#FEFEFE" d="M334.223 525.454L334.349 524.783C335.101 525.791 335.566 526.809 336.067 527.95L337.751 525.865C338.894 527.703 340.33 529.612 341.267 531.547L340.2 534.164C350.506 546.66 363.799 557.572 378.539 564.502C383.035 566.616 388.838 567.632 393.007 570.06C394.771 573.256 398.077 577.483 398.936 580.895L382.476 580.955L382.259 580.506C382.14 580.265 382.015 580.026 381.897 579.785C381.456 578.878 381.107 577.892 380.336 577.206C379.783 576.713 379.483 576.405 378.723 576.442C378.102 577.371 378.232 579.708 378.153 580.874C373.292 581.723 367.908 581.001 363.006 580.758C360.5 575.001 359.252 568.699 356.611 563.085L355.706 562.806L355.28 563.499C355.298 569.138 358.28 575.595 360.086 580.914C355.155 580.897 350.04 580.596 345.141 581.16L343.222 575.905Q341.719 575.413 340.229 574.884C339.41 572.025 338.496 569.186 338.076 566.236C337.094 563.438 336.517 560.463 335.821 557.582L334.876 552.795Q333.724 546.686 332.958 540.517C332.444 536.555 332.198 532.529 331.841 528.547C331.926 527.268 331.822 526.208 332.543 525.112L334.223 525.454Z"/>
	<path fill="#02001A" d="M331.841 528.547C331.926 527.268 331.822 526.208 332.543 525.112L334.223 525.454Q334.546 532.573 335.213 539.668L334.454 540.738L332.958 540.517C332.444 536.555 332.198 532.529 331.841 528.547Z"/>
	<path fill="#01000E" d="M338.076 566.236C338.439 564.981 338.188 563.721 338.051 562.444L338.497 562.335L339.524 562.975Q341.43 569.424 343.222 575.905Q341.719 575.413 340.229 574.884C339.41 572.025 338.496 569.186 338.076 566.236Z"/>
	<path fill="#1B1464" d="M335.213 539.668C335.871 543.076 336.342 546.524 336.858 549.957L334.876 552.795Q333.724 546.686 332.958 540.517L334.454 540.738L335.213 539.668Z"/>
	<path fill="#02001A" d="M337.751 525.865C338.894 527.703 340.33 529.612 341.267 531.547L340.2 534.164C338.667 532.223 337.398 530.034 336.067 527.95L337.751 525.865Z"/>
	<path fill="#02001A" d="M335.821 557.582L337.898 555.48L339.524 562.975L338.497 562.335L338.051 562.444C338.188 563.721 338.439 564.981 338.076 566.236C337.094 563.438 336.517 560.463 335.821 557.582Z"/>
	<path fill="#010026" d="M336.858 549.957L337.898 555.48L335.821 557.582L334.876 552.795L336.858 549.957Z"/>
	<path fill="#FEFEFE" d="M446.101 338.673C446.176 340.113 446.339 341.273 446.723 342.662C452.792 341.486 458.465 338.715 464.484 337.284C476.905 334.331 489.537 333.092 502.199 331.723C503.614 332.687 504.081 333.391 504.782 334.941C505.83 335.395 506.704 335.48 507.837 335.569C498.267 337.397 491.128 342.023 483.772 348.268C483.723 348.267 483.673 348.256 483.625 348.265C482.453 348.486 481.773 348.614 480.578 348.41C470.688 357.269 462.892 371.075 458.215 383.387C456.575 387.704 455.596 392.645 453.503 396.727C450.881 397.846 448.34 399.493 445.852 400.901L445.954 383.607L446.902 381.744C445.346 376.474 445.899 369.88 445.954 364.371L450.368 362.344C453.847 361.081 458.666 359.905 461.504 357.505L461.39 356.785C461.237 356.708 461.099 356.591 460.932 356.553C458.871 356.091 453.593 358.675 451.507 359.497C449.732 360.094 447.875 360.905 446.016 361.112C446.3 357.005 446.145 352.874 446.073 348.761C444.794 351.897 444.158 354.936 444.226 358.306C444.23 358.497 444.202 358.687 444.19 358.877C444.134 358.571 444.082 358.263 444.023 357.957C443.814 356.878 444.01 357.247 443.571 356.647C443.423 353.594 443.531 350.523 443.565 347.467L443.664 346.979C442.061 346.973 441.253 346.871 439.809 346.18C440.709 345.788 441.832 345.37 442.569 344.715C444.64 342.877 443.936 337.565 443.955 334.981L446.101 338.673Z"/>
	<defs>
		<linearGradient id="gradient_2" gradientUnits="userSpaceOnUse" x1="474.72491" y1="327.00803" x2="467.52631" y2="364.06961">
			<stop offset="0" stop-color="#00000E"/>
			<stop offset="1" stop-color="#04034C"/>
		</linearGradient>
	</defs>
	<path fill="url(#gradient_2)" d="M446.101 338.673C446.176 340.113 446.339 341.273 446.723 342.662C452.792 341.486 458.465 338.715 464.484 337.284C476.905 334.331 489.537 333.092 502.199 331.723C503.614 332.687 504.081 333.391 504.782 334.941C505.83 335.395 506.704 335.48 507.837 335.569C498.267 337.397 491.128 342.023 483.772 348.268C483.723 348.267 483.673 348.256 483.625 348.265C482.453 348.486 481.773 348.614 480.578 348.41C486.581 342.042 493.597 337.808 501.616 334.454C494.648 334.815 487.53 335.45 480.629 336.486C474.069 337.471 451.316 342.122 446.514 346.011Q446.27 347.382 446.073 348.761C444.794 351.897 444.158 354.936 444.226 358.306C444.23 358.497 444.202 358.687 444.19 358.877C444.134 358.571 444.082 358.263 444.023 357.957C443.814 356.878 444.01 357.247 443.571 356.647C443.423 353.594 443.531 350.523 443.565 347.467L443.664 346.979C442.061 346.973 441.253 346.871 439.809 346.18C440.709 345.788 441.832 345.37 442.569 344.715C444.64 342.877 443.936 337.565 443.955 334.981L446.101 338.673Z"/>
	<path fill="#FF8B3B" d="M581.529 364.282C613.574 378.376 647.241 408.734 659.891 441.855L660.14 442.522L643.492 442.474C635.807 423.606 615.75 401.535 599.144 390.077C593.769 386.369 585.349 383.065 580.758 379.122C582.49 375.542 581.557 368.308 581.529 364.282Z"/>
	<path fill="#5EE4A1" d="M384.308 590.421C394.228 606.823 408.287 622.082 424.042 633.076C428.298 636.047 434.065 637.898 437.927 641.161C436.618 645.952 437.605 653.384 437.808 658.435C408.717 645.373 381.341 619.315 367.253 590.442L384.308 590.421Z"/>
	<path fill="#FEFEFE" d="M444.92 624.974C447.023 626.491 449.465 627.188 451.893 628.033C452.731 631.723 454.006 635.23 455.272 638.79C461.696 654.16 471.145 671.514 484.874 681.416C486.488 682.603 488.07 683.809 489.81 684.809C493.868 687.287 497.978 688.994 502.483 690.48L491.997 690.029C476.04 688.763 460.296 686.001 445.354 680.093C445.188 674.913 445.305 669.701 445.308 664.517C448.835 666.103 455.218 669.148 458.938 669.247C459.881 669.273 460.009 669.246 460.697 668.583C458.225 665.37 449.084 663.233 445.161 661.598C445.054 656.693 445.116 651.773 445.103 646.866C446.097 646.099 446.585 645.756 446.93 644.525C446.469 643.34 446.091 643.15 445.079 642.345C444.804 636.569 444.924 630.756 444.92 624.974Z"/>
	<path fill="#FF8B3B" d="M581.47 382.454C587.335 385.544 593.136 388.716 598.521 392.607C614.584 404.212 633.399 424.228 641.111 442.493L623.946 442.512C613.366 425.533 598.912 411.083 581.042 401.782L581.111 401.622C581.782 395.378 581.429 388.75 581.47 382.454Z"/>
	<path fill="#3738B5" d="M584.057 514.167L642.519 514.413Q642.097 524.071 640.865 533.659L640.674 533.909Q612.288 534.05 583.906 533.581L584.057 514.167Z"/>
	<path fill="#3738B5" d="M581.042 401.782C598.912 411.083 613.366 425.533 623.946 442.512L580.605 442.809C580.466 438.385 579.359 434.029 579.134 429.597C582.082 424.848 578.806 408.785 581.042 401.782Z"/>
	<path fill="#4D52E2" d="M443.017 403.047Q442.528 423.256 443.36 443.454Q430.502 443.646 417.643 443.477C412.336 443.44 406.608 443.739 401.359 442.993C409.617 427.592 427.685 411.186 443.017 403.047Z"/>
	<path fill="#FF8B3B" d="M642.519 514.413L689.2 514.395C687.649 521.64 685.261 527.928 681.838 534.489L681.595 534.37C681.301 534.134 681.058 533.813 680.712 533.663C678.511 532.709 646.168 533.601 640.865 533.659Q642.097 524.071 642.519 514.413Z"/>
	<path fill="#5EE4A1" d="M404.118 589.96L404.399 590.06C412.695 603.298 425.87 612.771 438.472 621.607C436.855 625.59 437.761 633.541 437.78 638.037C417.195 627.495 399.312 610.08 387.24 590.379C392.865 590.305 398.503 590.313 404.118 589.96Z"/>
	<path fill="#1E4F82" d="M404.399 590.06Q422.594 589.616 440.794 589.482C440.906 600.541 441.231 611.697 440.889 622.747L438.472 621.607C425.87 612.771 412.695 603.298 404.399 590.06Z"/>
	<path fill="#4D52E2" d="M400.554 583.339C415.158 583.106 429.755 583.35 444.36 583.092C446.122 598.231 447.626 613.343 451.893 628.033C449.465 627.188 447.023 626.491 444.92 624.974C444.924 630.756 444.804 636.569 445.079 642.345C443.852 641.9 442.796 641.279 441.661 640.645L441.318 640.062L437.78 638.037C437.761 633.541 436.855 625.59 438.472 621.607L440.889 622.747C441.231 611.697 440.906 600.541 440.794 589.482Q422.594 589.616 404.399 590.06L404.118 589.96C402.844 587.781 401.655 585.612 400.554 583.339Z"/>
	<path fill="#FEFEFE" d="M437.78 638.037C437.761 633.541 436.855 625.59 438.472 621.607L440.889 622.747C443.391 625.495 442.093 636.109 442.068 639.955L441.318 640.062L437.78 638.037Z"/>
	<path fill="#02001A" d="M442.068 639.955C443.626 634.974 441.015 628.507 443.021 623.658C444.293 623.916 444.194 623.89 444.92 624.974C444.924 630.756 444.804 636.569 445.079 642.345C443.852 641.9 442.796 641.279 441.661 640.645L441.318 640.062L442.068 639.955Z"/>
	<path fill="#FEFEFE" d="M259.94 589.327C263.521 586.73 266.928 584.665 271.375 583.865C279.442 582.414 288.965 583.316 297.187 583.304Q320.269 583.174 343.351 583.362L346.13 590.053C337.262 590.347 263.643 590.879 259.94 589.327Z"/>
	<path fill="#FEFEFE" d="M438.524 680.631C439.926 681.143 441.513 681.411 442.492 682.552C443.144 695.722 442.803 709.05 442.903 722.245C442.964 730.184 443.791 739.038 442.801 746.887C442.374 750.281 441.074 753.747 439.215 756.609C438.663 755.583 438.494 754.84 438.426 753.664C437.979 745.951 437.651 683.606 438.524 680.631Z"/>
	<path fill="#4D52E2" d="M393.007 570.06C407.813 574.092 421.903 578.717 437.238 580.517C427.099 581.959 409.556 581.21 398.936 580.895C398.077 577.483 394.771 573.256 393.007 570.06Z"/>
	<path fill="#4D52E2" d="M593.377 579.757C605.834 576.205 618.592 573.628 631.088 570.059C629.718 573.219 628.429 576.452 626.945 579.558C615.917 580.155 604.42 580.158 593.377 579.757Z"/>
	<path fill="#4D52E2" d="M445.954 383.607L445.852 400.901C448.34 399.493 450.881 397.846 453.503 396.727C449.339 408.733 447.93 421.046 445.297 433.393C444.322 421.162 445.278 408.41 445.551 396.131C445.54 392.614 444.686 386.712 445.954 383.607Z"/>
	<path fill="#FEFEFE" d="M364.011 583.463L380.886 583.499L384.308 590.421L367.253 590.442C366.015 588.2 365.045 585.805 364.011 583.463Z"/>
	<path fill="#FEFEFE" d="M441.661 640.645C442.796 641.279 443.852 641.9 445.079 642.345C446.091 643.15 446.469 643.34 446.93 644.525C446.585 645.756 446.097 646.099 445.103 646.866C441.459 651.11 444.154 656.025 442.832 660.924C441.083 660.201 439.464 659.348 437.808 658.435C437.605 653.384 436.618 645.952 437.927 641.161L441.348 642.963L441.661 640.645Z"/>
	<path fill="#02001A" d="M441.661 640.645C442.796 641.279 443.852 641.9 445.079 642.345C446.091 643.15 446.469 643.34 446.93 644.525C446.585 645.756 446.097 646.099 445.103 646.866C441.459 651.11 444.154 656.025 442.832 660.924C441.891 656.239 444.261 646.257 441.348 642.963L441.661 640.645Z"/>
	<path fill="#FEFEFE" d="M383.494 583.481L400.554 583.339C401.655 585.612 402.844 587.781 404.118 589.96C398.503 590.313 392.865 590.305 387.24 590.379C385.831 588.19 384.698 585.789 383.494 583.481Z"/>
	<path fill="#4D52E2" d="M572.109 397.64L581.111 401.622L581.042 401.782C578.806 408.785 582.082 424.848 579.134 429.597C577.416 418.686 575.537 408.181 572.109 397.64Z"/>
	<path fill="#4D52E2" d="M399.451 445.551Q412.913 445.67 426.368 446.129C421.443 447.596 416.183 448.034 411.162 449.174C406.286 450.281 401.039 452.433 396.142 453.021C397.116 450.478 398.539 448.157 399.451 445.551Z"/>
	<path fill="#02001A" d="M193.81 492.434C196.888 500.091 201.228 506.087 209.131 509.459C219.457 513.864 231.445 511.344 242.343 511.992C234.893 514.792 220.837 510.536 214.737 512.873L212.091 512.867Q209.944 512.455 207.927 511.612C200.324 508.404 195.168 501.865 192.086 494.433C192.566 493.594 193.12 493.101 193.81 492.434Z"/>
	<path fill="#1B1464" d="M686.493 553.503C687.63 554.237 687.654 555.184 688.079 556.428C686.235 564.061 684.293 571.697 681.735 579.129L725.373 579.177C723.173 580.436 684.075 579.729 678.764 579.426C681.823 570.933 684.061 562.19 686.493 553.503Z"/>
	<path fill="#4D52E2" d="M577.745 598.977C578.359 607.8 577.635 616.803 577.963 625.679C575.826 626.591 573.612 627.735 571.365 628.319C574.432 618.931 575.896 608.663 577.745 598.977Z"/>
	<path fill="#1B1464" d="M333.606 500.568C333.67 501.565 333.485 501.145 334.108 501.849L335.599 498.959L337.792 499.343C336.079 503.427 334.753 507.304 334.284 511.732Q337.312 511.964 340.347 512.056L339.838 512.517C334.953 512.862 330.045 512.376 325.153 512.311C318.893 512.228 312.466 512.55 306.247 511.91C314.273 511.215 322.689 511.677 330.762 511.644C330.811 507.562 330.953 503.517 331.239 499.445L333.606 500.568Z"/>
	<path fill="#02001A" d="M212.091 512.867L214.737 512.873C214.515 513.033 214.297 513.198 214.072 513.353C210.548 515.774 206.538 515.936 203.172 519.129L203.474 519.349L203.902 519.073C205.879 517.818 207.989 516.955 210.023 515.819C215.619 512.697 233.458 513.043 239.615 514.073C225.092 515.044 210.76 511.915 199.93 524.167Q198.781 525.467 197.693 526.818L197.792 524.856L196.338 524.612C200.925 518.889 205.532 515.948 212.091 512.867Z"/>
	<path fill="#3738B5" d="M591.21 445.014C602.689 444.668 614.316 444.847 625.79 445.29C627.698 448.589 629.837 451.9 631.406 455.368L624.921 453.319C623.548 453.464 622.504 453.249 621.56 454.34C621.532 454.372 621.52 454.416 621.5 454.454Q627.117 456.476 632.849 458.145C653.024 465.018 675.285 476.257 685.102 496.339Q686.017 498.167 686.751 500.075Q687.485 501.982 688.03 503.952Q688.576 505.922 688.929 507.936Q689.281 509.949 689.437 511.987C673.8 512.001 658.146 512.177 642.51 512.021L584.124 511.99C583.575 489.433 583.574 468.135 580.536 445.669C584.538 446.252 588.5 447.015 592.47 447.778C594.157 447.068 595.575 447.111 597.368 447.143L598.122 447.161L598.431 446.484C596.005 446.069 593.612 445.549 591.21 445.014Z"/>
	<path fill="#FF8B3B" d="M632.849 458.145C653.024 465.018 675.285 476.257 685.102 496.339Q686.017 498.167 686.751 500.075Q687.485 501.982 688.03 503.952Q688.576 505.922 688.929 507.936Q689.281 509.949 689.437 511.987C673.8 512.001 658.146 512.177 642.51 512.021C642.473 493.289 639.502 475.717 632.849 458.145Z"/>
	<path fill="#3738B5" d="M591.21 445.014C602.689 444.668 614.316 444.847 625.79 445.29C627.698 448.589 629.837 451.9 631.406 455.368L624.921 453.319C616.311 450.445 607.495 447.422 598.431 446.484C596.005 446.069 593.612 445.549 591.21 445.014Z"/>
	<path fill="#01000E" d="M598.431 446.484C607.495 447.422 616.311 450.445 624.921 453.319C623.548 453.464 622.504 453.249 621.56 454.34C621.532 454.372 621.52 454.416 621.5 454.454C617.723 453.821 613.847 452.522 610.118 451.584Q601.37 449.328 592.47 447.778C594.157 447.068 595.575 447.111 597.368 447.143L598.122 447.161L598.431 446.484Z"/>
	<path fill="#4D52E2" d="M513.375 438.103C532.494 438.367 560.038 439.324 578.022 445.514C581.892 464.553 581.737 491.999 581.839 511.907C559.072 511.623 536.264 511.92 513.494 511.949L513.375 438.103Z"/>
	<path fill="#4D52E2" d="M506.164 438.216L511.007 438.243Q510.867 475.088 511.125 511.931L447.375 511.965C446.919 511.981 446.462 511.994 446.005 511.983C444.817 511.954 444.031 512.111 443.212 511.216C442.375 505.371 442.989 498.959 443.153 493.052C443.601 476.897 444.255 460.735 446.593 444.724C453.886 443.672 461.111 442.19 468.419 441.193C480.978 439.48 493.501 438.634 506.164 438.216Z"/>
	<path fill="#4D52E2" d="M567.882 514.243Q574.87 514.142 581.858 514.278C581.828 536.626 581.096 558.663 577.784 580.797C561.307 582.501 545.266 585.781 528.625 586.484Q521.062 586.819 513.493 586.972L513.503 514.458Q540.693 514.488 567.882 514.243Z"/>
	<path fill="#4D52E2" d="M444.712 514.231L511.14 514.445C511.039 523.749 511.818 583.639 510.739 586.634L509.624 586.949C500.173 586.627 490.768 586.316 481.359 585.295C469.757 584.036 458.201 581.901 446.65 580.221C445.58 572.175 441.335 518.884 443.261 514.834C443.535 514.259 444.148 514.348 444.712 514.231Z"/>
	<path fill="#5EE4A1" d="M346.172 583.457L361.453 583.437L364.423 590.438C377.095 614.618 395.967 636.518 419.049 651.261C425.142 655.153 431.718 658.183 438.082 661.593L442.525 663.435L442.559 678.943L438.074 677.357C409.129 666.385 381.043 643.251 363.793 617.587C358.055 609.05 353.62 599.659 349.068 590.461C347.994 588.18 347.11 585.798 346.172 583.457Z"/>
	<path fill="#FEFEFE" d="M346.172 583.457L361.453 583.437L364.423 590.438L349.068 590.461C347.994 588.18 347.11 585.798 346.172 583.457Z"/>
	<path fill="#FEFEFE" d="M438.082 661.593L442.525 663.435L442.559 678.943L438.074 677.357L438.082 661.593Z"/>
	<path fill="#FF8B3B" d="M664.258 445.215L678.774 445.08C685.102 462.72 689.459 480.98 689.58 499.817C687.409 495.355 685.265 491.002 682.308 486.99C671.783 472.715 654.408 463.156 637.962 457.482C635.824 456.745 633.608 455.859 631.406 455.368C629.837 451.9 627.698 448.589 625.79 445.29Q633.851 445.176 641.912 445.239C643.131 448.21 644.251 450.471 646.342 452.951C645.934 450.326 645.446 447.904 644.631 445.366L661.326 445.277C662.571 448.47 664.934 457.514 667.632 459.414L668.447 459.001C669.157 456.26 665.35 448.118 664.258 445.215Z"/>
	<path fill="#FFF46B" d="M134.181 236.828C136.109 230.462 137.288 223.844 138.813 217.37L149.464 170.64C151.48 161.878 153.11 152.502 156.465 144.162C158.727 138.54 161.675 133.71 165.802 129.263Q166.779 128.216 167.808 127.219Q168.836 126.223 169.913 125.279Q170.99 124.335 172.113 123.446Q173.236 122.557 174.401 121.725Q175.567 120.894 176.773 120.122Q177.98 119.349 179.223 118.639Q180.466 117.928 181.743 117.28Q183.02 116.632 184.329 116.049Q185.637 115.466 186.972 114.949Q188.308 114.432 189.668 113.983Q191.027 113.534 192.408 113.153Q193.788 112.772 195.186 112.461Q196.584 112.15 197.996 111.909Q199.408 111.668 200.83 111.499Q202.252 111.329 203.68 111.23Q205.109 111.132 206.541 111.105C222.634 110.65 237.566 116.053 249.209 127.249C255.792 133.58 260.7 141.312 263.138 150.146C266.364 161.835 265.08 175.332 265.081 187.398Q264.993 208.405 265.221 229.411C280.162 229.394 292.509 232.786 303.308 243.637Q304.357 244.675 305.337 245.779Q306.317 246.882 307.224 248.046Q308.132 249.21 308.963 250.43Q309.794 251.65 310.545 252.92Q311.297 254.19 311.965 255.506Q312.634 256.822 313.216 258.178Q313.799 259.534 314.294 260.924Q314.789 262.315 315.194 263.734C317.927 273.583 316.993 284.824 316.989 294.974C316.984 308.163 316.735 321.401 317.136 334.583L182.858 334.361C160.011 334.366 137.132 333.975 114.29 334.223L114.145 294.57C114.134 284.575 113.177 273.515 115.552 263.757C117.408 256.132 121.079 249.3 126.578 243.71C128.85 241.4 132.192 239.222 134.181 236.828Z"/>
	<path fill="#1B1464" d="M134.181 236.828C136.109 230.462 137.288 223.844 138.813 217.37L149.464 170.64C151.48 161.878 153.11 152.502 156.465 144.162C158.727 138.54 161.675 133.71 165.802 129.263Q166.779 128.216 167.808 127.219Q168.836 126.223 169.913 125.279Q170.99 124.335 172.113 123.446Q173.236 122.557 174.401 121.725Q175.567 120.894 176.773 120.122Q177.98 119.349 179.223 118.639Q180.466 117.928 181.743 117.28Q183.02 116.632 184.329 116.049Q185.637 115.466 186.972 114.949Q188.308 114.432 189.668 113.983Q191.027 113.534 192.408 113.153Q193.788 112.772 195.186 112.461Q196.584 112.15 197.996 111.909Q199.408 111.668 200.83 111.499Q202.252 111.329 203.68 111.23Q205.109 111.132 206.541 111.105C222.634 110.65 237.566 116.053 249.209 127.249C255.792 133.58 260.7 141.312 263.138 150.146C266.364 161.835 265.08 175.332 265.081 187.398Q264.993 208.405 265.221 229.411C264.306 230.156 263.415 230.906 262.411 231.53L229.31 231.605L226.866 230.108C226.595 231.416 226.261 232.636 225.663 233.838Q225.341 234.498 224.953 235.121Q224.564 235.744 224.114 236.323Q223.663 236.903 223.155 237.433Q222.647 237.963 222.087 238.438Q221.527 238.912 220.922 239.327Q220.316 239.741 219.67 240.091Q219.025 240.441 218.347 240.722Q217.668 241.003 216.965 241.213Q216.274 241.422 215.566 241.559Q214.857 241.695 214.138 241.757Q213.419 241.818 212.698 241.805Q211.976 241.791 211.26 241.702Q210.544 241.614 209.841 241.451Q209.138 241.288 208.456 241.052Q207.773 240.817 207.119 240.512Q206.466 240.207 205.847 239.835C201.771 237.334 200.292 233.879 199.249 229.444C198.489 230.026 197.602 230.592 196.92 231.258C177.32 233.211 156.699 227.511 138.418 236.845C137.006 236.791 135.593 236.817 134.181 236.828Z"/>
	<path fill="#FEFEFE" d="M220.619 142.88C231.82 147.777 249.162 156.628 253.884 168.453C256.812 175.788 255.939 184.167 252.765 191.267C248.755 200.237 241.222 206.778 232.077 210.194C229.327 211.221 226.483 211.794 223.589 212.249C214.744 212.989 207.157 210.78 200.121 205.431C195.393 199.906 195.483 195.106 195.461 188.242C190.575 187.763 186.88 186.905 183.514 182.953Q183.024 182.368 182.593 181.737Q182.162 181.107 181.795 180.437Q181.427 179.768 181.127 179.066Q180.827 178.364 180.596 177.636Q180.365 176.908 180.207 176.161Q180.048 175.414 179.963 174.655Q179.878 173.896 179.868 173.133Q179.857 172.369 179.921 171.608C180.291 167.191 182.574 163.341 185.985 160.574C187.635 159.235 189.399 158.095 191.608 158.324C198.201 159.009 201.279 167.197 208.772 161.713C214.897 157.231 217.902 149.671 220.619 142.88Z"/>
	<path fill="#FEFEFE" d="M200.121 205.431C207.157 210.78 214.744 212.989 223.589 212.249C224.459 212.952 225.272 213.655 226.061 214.447C227.084 219.147 227.131 225.308 226.866 230.108C226.595 231.416 226.261 232.636 225.663 233.838Q225.341 234.498 224.953 235.121Q224.564 235.744 224.114 236.323Q223.663 236.903 223.155 237.433Q222.647 237.963 222.087 238.438Q221.527 238.912 220.922 239.327Q220.316 239.741 219.67 240.091Q219.025 240.441 218.347 240.722Q217.668 241.003 216.965 241.213Q216.274 241.422 215.566 241.559Q214.857 241.695 214.138 241.757Q213.419 241.818 212.698 241.805Q211.976 241.791 211.26 241.702Q210.544 241.614 209.841 241.451Q209.138 241.288 208.456 241.052Q207.773 240.817 207.119 240.512Q206.466 240.207 205.847 239.835C201.771 237.334 200.292 233.879 199.249 229.444C200.365 222.535 199.027 214.892 199.692 207.846L200.121 205.431Z"/>
	<path fill="#01000E" d="M200.121 205.431C207.157 210.78 214.744 212.989 223.589 212.249C224.459 212.952 225.272 213.655 226.061 214.447C215.671 215.211 208.365 213.839 199.692 207.846L200.121 205.431Z"/>
	<path d="M265.221 229.411C280.162 229.394 292.509 232.786 303.308 243.637Q304.357 244.675 305.337 245.779Q306.317 246.882 307.224 248.046Q308.132 249.21 308.963 250.43Q309.794 251.65 310.545 252.92Q311.297 254.19 311.965 255.506Q312.634 256.822 313.216 258.178Q313.799 259.534 314.294 260.924Q314.789 262.315 315.194 263.734C317.927 273.583 316.993 284.824 316.989 294.974C316.984 308.163 316.735 321.401 317.136 334.583L182.858 334.361C160.011 334.366 137.132 333.975 114.29 334.223L114.145 294.57C114.134 284.575 113.177 273.515 115.552 263.757C117.408 256.132 121.079 249.3 126.578 243.71C128.85 241.4 132.192 239.222 134.181 236.828C135.593 236.817 137.006 236.791 138.418 236.845C135.282 239.044 132.268 241.271 129.544 243.976C114.372 259.038 116.442 276.949 116.456 296.578L116.489 331.927L314.384 332.108L314.512 287.404C314.53 270.744 313.588 257.301 301.055 244.911C289.995 233.977 277.385 231.467 262.411 231.53C263.415 230.906 264.306 230.156 265.221 229.411Z"/>
	<path d="M196.92 231.258C197.602 230.592 198.489 230.026 199.249 229.444C200.292 233.879 201.771 237.334 205.847 239.835Q206.466 240.207 207.119 240.512Q207.773 240.817 208.456 241.052Q209.138 241.288 209.841 241.451Q210.544 241.614 211.26 241.702Q211.976 241.791 212.698 241.805Q213.419 241.818 214.138 241.757Q214.857 241.695 215.566 241.559Q216.274 241.422 216.965 241.213Q217.668 241.003 218.347 240.722Q219.025 240.441 219.67 240.091Q220.316 239.741 220.922 239.327Q221.527 238.912 222.087 238.438Q222.647 237.963 223.155 237.433Q223.663 236.903 224.114 236.323Q224.564 235.744 224.953 235.121Q225.341 234.498 225.663 233.838C226.261 232.636 226.595 231.416 226.866 230.108L229.31 231.605C229.243 231.761 229.173 231.917 229.107 232.075C227.002 237.118 224.06 241.1 218.798 243.216Q218.07 243.514 217.315 243.736Q216.561 243.958 215.787 244.102Q215.014 244.246 214.23 244.31Q213.446 244.375 212.659 244.359Q211.873 244.343 211.092 244.247Q210.311 244.151 209.544 243.976Q208.778 243.801 208.033 243.548Q207.287 243.296 206.572 242.969C201.401 240.598 198.857 236.333 196.92 231.258Z"/>
	<path fill="#1B1464" d="M764.907 733.346C762.418 729.704 760.48 726.612 761.33 721.965C762.392 716.161 767.366 711.594 772.124 708.514C782.575 701.749 795.697 699.986 807.753 702.6C826.409 706.645 843.806 721.354 853.806 737.269C860.73 748.288 864.471 761.911 861.479 774.818C859.249 784.435 852.821 794.208 844.375 799.455C840.715 801.729 836.743 802.865 832.529 803.613L832.598 824.532Q845.532 824.733 858.467 824.618C876.123 824.51 892.247 824.063 905.495 837.715Q906.417 838.668 907.276 839.679Q908.134 840.69 908.926 841.753Q909.717 842.817 910.439 843.93Q911.16 845.043 911.808 846.2Q912.456 847.357 913.028 848.553Q913.6 849.75 914.093 850.981Q914.587 852.212 915 853.472Q915.413 854.732 915.744 856.016C918.521 866.876 917.416 879.526 917.431 890.707Q917.515 908.903 917.392 927.098C872.006 927.691 826.576 927.386 781.188 927.336C760.014 927.313 738.646 926.684 717.491 927.465C717.907 914.676 717.591 901.833 717.532 889.037C717.447 870.352 715.16 850.667 730.059 836.534C741.838 825.361 753.228 824.53 768.584 824.546Q779.324 824.56 790.063 824.768C791.251 824.799 798.867 825.052 799.277 824.111C799.534 823.521 799.548 821.663 799.569 821.011C799.578 820.759 799.578 820.507 799.583 820.255C799.231 815.942 799.501 811.417 799.494 807.08C794.157 804.259 789.151 801.231 785.259 796.529C776.857 787.392 775.174 776.024 775.599 764.097C775.508 762.522 775.648 761.884 774.365 760.787C769.162 756.337 762.436 753.075 761.538 745.408C761.017 740.966 762.713 737.084 764.907 733.346Z"/>
	<path fill="#FEFEFE" d="M777.683 763.441L778.18 761.983C784.064 760.187 791.436 762.181 797.803 760.123C805.208 757.73 812.658 755.14 818.364 749.614C819.873 748.152 823.415 743.619 825.376 743.728C826.339 745.06 826.316 746.052 826.053 747.663C825.009 754.061 818.5 765.847 822.206 771.957C822.661 772.707 822.983 772.672 823.745 772.975C825.834 771.792 825.967 769.559 827.156 767.616C830.376 762.353 836.682 757.009 843.248 758.681C845.951 759.369 848.037 761.072 849.425 763.47C851.648 767.313 851.479 772.067 850.213 776.193C848.955 780.29 846.202 783.825 842.322 785.734C840.495 786.632 838.369 786.908 836.382 787.237C828.404 803.654 832.165 811.279 830.434 827.954C827.629 832.071 824.277 835.147 819.191 836.076C814.866 836.866 810.465 835.766 806.901 833.228C804.496 831.516 802.951 829.491 801.527 826.94C801.486 820.826 802.167 813.666 801.155 807.692C801.14 807.83 801.123 807.969 801.109 808.108C800.572 813.401 801.269 818.754 800.624 824.048L800.245 824.136C799.953 822.836 799.712 821.586 799.583 820.255C799.231 815.942 799.501 811.417 799.494 807.08C794.157 804.259 789.151 801.231 785.259 796.529C776.857 787.392 775.174 776.024 775.599 764.097L777.683 763.441Z"/>
	<path fill="#01000E" d="M786.987 795.408C793.086 801.063 798.981 805.274 807.395 806.543L808.173 808.19L807.123 808.827L801.155 807.692C801.14 807.83 801.123 807.969 801.109 808.108C800.572 813.401 801.269 818.754 800.624 824.048L800.245 824.136C799.953 822.836 799.712 821.586 799.583 820.255C799.231 815.942 799.501 811.417 799.494 807.08C794.157 804.259 789.151 801.231 785.259 796.529C786.057 796.31 786.375 795.943 786.987 795.408Z"/>
	<path d="M775.599 764.097L777.683 763.441C777.359 776.52 778.982 784.885 786.987 795.408C786.375 795.943 786.057 796.31 785.259 796.529C776.857 787.392 775.174 776.024 775.599 764.097Z"/>
	<path fill="#010026" d="M807.395 806.543C809.773 806.578 812.095 806.406 814.306 807.392L814.864 808.211C813.97 809.095 813.285 809.324 812.038 809.362C810.552 809.408 808.579 809.119 807.123 808.827L808.173 808.19L807.395 806.543Z"/>
	<path fill="#FF8B3B" d="M966.187 261.826L973.15 262.094L973.255 533.895L894.007 533.815C874.321 533.821 854.591 533.568 834.91 533.935L834.545 534.02C834.451 531.347 833.627 528.677 832.473 526.269C828.871 518.754 822.114 515.501 814.645 513.017C819.064 511.183 823.28 509.286 826.783 505.929Q827.471 505.264 828.108 504.55Q828.745 503.836 829.327 503.076Q829.909 502.316 830.433 501.516Q830.957 500.715 831.419 499.877Q831.882 499.04 832.282 498.17Q832.681 497.301 833.015 496.404Q833.348 495.507 833.614 494.588Q833.88 493.668 834.077 492.732C836.224 482.277 834.965 461.367 834.933 450.111L835.056 372.809Q839.539 372.393 843.98 371.659C866.852 368.091 889.504 357.719 908.093 343.949C911.227 341.627 915.229 339.099 917.516 335.952C934.588 324.515 951.375 299.232 959.549 280.473C962.055 274.721 963.22 268.369 965.791 262.683L966.187 261.826Z"/>
	<path fill="#FF8B3B" d="M581.473 126.486L688.136 126.558C676.481 143.392 666.412 165.752 663.025 185.983L662.298 188.478L581.317 188.426C560.218 187.626 367.347 189.499 364.02 187.753C363.301 187.376 363.422 186.514 363.286 185.784C370.958 185.374 378.754 185.634 386.443 185.638L427.241 185.634C478.56 185.59 529.938 186.205 581.248 185.575C581.54 165.884 581.443 146.178 581.473 126.486Z"/>
	<path d="M363.286 185.784C390.787 186.507 418.43 185.888 445.95 185.88L578.899 185.909C606.855 185.798 635.095 185.029 663.025 185.983L662.298 188.478L581.317 188.426C560.218 187.626 367.347 189.499 364.02 187.753C363.301 187.376 363.422 186.514 363.286 185.784Z"/>
	<path fill="#1B1464" d="M190.547 476.716L190.393 408.117C190.37 396.774 189.685 385.036 190.217 373.731C190.267 372.663 190.296 371.843 190.98 370.991L192.499 371.057C193.893 373.565 193.118 448.832 193.089 458.909C193.059 469.778 191.921 481.786 193.81 492.434C193.12 493.101 192.566 493.594 192.086 494.433C191.577 492.952 191.187 491.403 190.749 489.898C190.304 485.531 190.494 481.101 190.547 476.716Z"/>
	<path fill="#1B1464" d="M832.311 534.026L834.545 534.02L834.91 533.935C834.951 546.904 835.921 647.037 834.416 651.172L833.705 651.392C832.746 650.201 832.624 649.311 832.47 647.798C831.662 639.845 832.523 631.017 832.504 622.96C832.476 610.808 831.568 594.805 832.565 583.168C831.944 569.341 832.252 555.003 832.58 541.163L832.311 534.026Z"/>
	<path fill="#010026" d="M832.58 541.163C833.781 542.848 833.804 552.147 834.338 555.227Q834.603 573.928 834.266 592.627C832.902 586.462 834.018 579.841 833.294 573.542C833.136 576.506 833.374 580.358 832.565 583.168C831.944 569.341 832.252 555.003 832.58 541.163Z"/>
	<path fill="#02001A" d="M832.311 534.026L834.545 534.02C833.965 541.012 834.4 548.205 834.338 555.227C833.804 552.147 833.781 542.848 832.58 541.163L832.311 534.026Z"/>
	<path fill="#01000E" d="M255.731 429.694C257.465 430.444 258.039 432.021 258.731 433.721L259.659 433.711L259.434 433.04L259.782 432.43C262.606 435.658 265.445 438.352 269.12 440.587C278.412 443.921 287.905 443.099 297.627 443.054C308.903 443.002 320.428 442.532 331.685 443.108C334.206 443.73 336.86 444.182 339.13 445.48C328.03 445.851 316.778 445.365 305.657 445.371C296.436 445.376 286.781 446.009 277.606 445.212C275.475 445.027 273.532 444.64 271.554 443.8C270.561 443.519 269.559 443.224 268.611 442.814C262.98 440.376 258.015 435.386 255.731 429.694Z"/>
	<path fill="#02001A" d="M255.731 429.694C254.22 427.51 253.513 424.449 253.194 421.835C252.012 412.14 252.99 401.618 252.953 391.828C252.925 384.42 251.761 374.784 252.972 367.623C253.086 366.947 253.293 366.368 253.537 365.73L254.315 365.4C254.577 365.681 254.943 365.892 255.1 366.242C256.841 370.118 254.113 413.699 255.79 423.162C256.372 426.446 258.204 429.536 259.782 432.43L259.434 433.04L259.659 433.711L258.731 433.721C258.039 432.021 257.465 430.444 255.731 429.694Z"/>
	<path fill="#1B1464" d="M768.312 599.884C769.232 600.441 770.172 601.199 771.243 601.351C772.745 609.56 771.446 622.55 771.493 631.238C771.508 637.008 772.496 652.598 770.803 657.228L769.772 657.373C768.077 655.339 769 643.026 769.101 639.783C768.645 626.607 770.151 612.947 768.312 599.884Z"/>
	<path fill="#01000E" d="M445.389 273.59C446.894 283.695 446.071 294.821 446.074 305.03C446.076 316.175 446.583 327.547 446.101 338.673L443.955 334.981C442.762 315.215 445.111 295.128 443.357 275.372C444.124 274.839 444.716 274.237 445.389 273.59Z"/>
	<path d="M611.092 770.943C618.891 770.91 659.117 769.744 662.967 771.723L663.199 772.575C662.928 772.78 662.695 773.047 662.388 773.192C660.883 773.901 616.604 773.477 611.013 773.303L611.092 770.943Z"/>
	<path d="M410.683 251.178C420.858 251.178 429.79 251.99 437.526 259.518C441.6 263.482 443.85 268.211 445.389 273.59C444.716 274.237 444.124 274.839 443.357 275.372C442.058 270.187 439.884 265.476 436.084 261.609C427.416 252.786 416.37 253.735 405.071 253.521C405.866 252.991 405.533 253.109 406.382 252.902C408.097 252.484 409.186 252.129 410.683 251.178Z"/>
	<path fill="#01000E" d="M405.071 253.521C397.72 254.273 389.744 253.65 382.342 253.626C376.656 253.608 370.606 254.088 364.968 253.62C363.823 253.525 363.203 253.363 362.461 252.463L363.083 251.669C367.136 250.164 403.422 251.161 410.683 251.178C409.186 252.129 408.097 252.484 406.382 252.902C405.533 253.109 405.866 252.991 405.071 253.521Z"/>
	<path fill="#02001A" d="M767.812 592.444C769.711 595.315 770.662 597.966 771.243 601.351C770.172 601.199 769.232 600.441 768.312 599.884C767.561 597.421 766.402 595.186 765.266 592.886L767.812 592.444Z"/>
	<path fill="#02001A" d="M331.685 443.108C334.981 443.092 338.353 442.942 341.63 443.296C341.768 443.376 341.897 443.474 342.046 443.534C342.99 443.912 343.996 443.653 344.969 443.509C345.856 444.499 345.666 444.704 345.791 445.974L345.27 446.394C344.388 445.888 343.699 445.726 342.699 445.562L339.13 445.48C336.86 444.182 334.206 443.73 331.685 443.108Z"/>
</svg>
